<?xml version="1.0" encoding="utf-8"?><svg xmlns="http://www.w3.org/2000/svg" xmlns:xlink="http://www.w3.org/1999/xlink"><symbol viewBox="0 0 296.429 296.429" id="brainstorm"><path d="M277.381 48.81V15.476l11.429 8.571 5.714-7.619L272.619 0l-21.905 16.429 5.714 7.619 11.429-8.571V48.81c0 13.129-10.681 23.81-23.81 23.81H225c-15.067 0-27.814 9.524-31.929 23.81h-6.819l-.176 9.524h5.59v14.843c-2.338-.333-4.71-.557-7.143-.557-11.076 0-21.724 3.7-30.467 10.51a33.324 33.324 0 0 0-24.295-10.51c-3.262 0-6.462.519-9.524 1.438v-30.01c0-15.757-12.814-28.571-28.571-28.571h-4.762v-9.524H77.38v9.524H63.095c-15.757 0-28.571 12.814-28.571 28.571v9.524c0 5.252-4.271 9.524-9.524 9.524h-9.524l8.571-11.429-7.619-5.714L0 115.476l16.429 21.905 7.619-5.714-8.571-11.429H25c10.505 0 19.048-8.543 19.048-19.048v-9.524c0-10.505 8.543-19.048 19.048-19.048h28.571c10.505 0 19.048 8.543 19.048 19.048v34.619c-2.071 1.448-4 3.11-5.714 5.014a39.833 39.833 0 0 0-10.952-1.538c-20.429 0-37.386 15.105-40.062 34.995C36.995 169.781 25 185.567 25 203.571a40.538 40.538 0 0 0 7.519 23.49 39.837 39.837 0 0 0-2.757 14.605c0 22.319 18.157 40.476 40.476 40.476 1.805 0 3.571-.162 5.314-.39.329-.043.657-.1.986-.152a39.952 39.952 0 0 0 5.181-1.143 40.049 40.049 0 0 0 21.852 6.448c8.729 0 17.043-2.748 23.943-7.838 7.505 10.838 19.757 17.362 33.2 17.362 12.486 0 23.986-5.629 31.633-15.271 6.262 3.776 13.343 5.748 20.748 5.748 22.319 0 40.476-18.157 40.476-40.476 0-4.819-.852-9.524-2.533-14.029a40.376 40.376 0 0 0 12.057-28.829c0-2.429-.238-4.814-.657-7.143h.657v-9.524h-3.638c-4.771-10.486-13.886-18.729-25.276-22.119-2.095-19.519-15.233-35.438-32.99-41.676v-17.157c0-13.129 10.681-23.81 23.81-23.81h19.048c18.375 0 33.332-14.957 33.332-33.333zm-52.462 119.938l.133 3.757 3.686.738c8.567 1.719 15.667 6.981 20.067 14.024v9.162h3.814c.562 2.314.952 4.686.952 7.143 0 7.562-2.767 14.714-7.662 20.314-6.848-9.429-17.69-15.195-30.124-16.019l-.624 8.91c15.819 1.043 28.257 12.452 28.829 30.729-.571 16.567-14.19 29.876-30.895 29.876-6.933 0-13.51-2.271-19.014-6.567l-1.9-1.486c-5.867-5.343-9.467-12.752-10.005-20.838l-9.505.633a40.305 40.305 0 0 0 12.105 26.243c-5.848 7.29-14.586 11.538-24.062 11.538-11.824 0-22.448-6.61-27.714-17.252l-2.933-5.919-4.69 4.662c-5.838 5.79-13.581 8.986-21.805 8.986-3.767 0-7.414-.752-10.876-2.067 10.857-7.267 18.019-19.633 18.019-33.648 0-1.014-.133-2-.205-3a40.337 40.337 0 0 0 20.405-10.014l-6.438-7.024a30.807 30.807 0 0 1-15.762 7.676c-3.186-9.943-10.081-18.443-19.643-23.481l-4.438 8.429c10.214 5.386 16.557 15.886 16.557 27.414 0 13.362-8.529 24.738-20.414 29.067a31.986 31.986 0 0 1-5.086 1.376c-.114.019-.229.033-.343.052-1.7.29-3.405.457-5.11.457-17.067 0-30.952-13.886-30.952-30.952 0-4.581 1.014-9.033 3.014-13.248l1.305-2.743-1.943-2.343a30.977 30.977 0 0 1-7.138-19.762c0-14.695 10.443-27.457 24.829-30.343l3.652-.729.171-3.714c.486-10.41 6.038-19.39 14.205-24.624v9.41h9.524v-13.424c2.295-.543 4.681-.862 7.143-.862 3.681 0 7.352.681 10.895 2.019l3.405 1.286 2.133-2.943c.071-.1.157-.186.233-.286v23.733h9.524v-31.276c2.976-1.314 6.205-2.057 9.524-2.057 6.59 0 12.786 2.748 17.243 7.452-7.981 9.081-13.671 20.838-13.671 33.024 0 27.571 25 50 48.81 50v-9.524c-19.048 0-39.286-18.157-39.286-40.476 0-9.938 4.286-19.529 10.838-26.905l2.729-2.319c7.6-7.257 17.624-11.252 27.952-11.252 2.443 0 4.971.243 7.29.657v18.39c0 13.129-10.681 23.81-23.81 23.81h-4.762v9.524h4.762c18.376 0 33.333-14.957 33.333-33.333v-15.448c13.577 6.12 23.148 19.482 23.729 35.387z"/><path d="M220.238 186.905h14.286v9.524h-14.286zm23.81-90.476h14.286v9.524h-14.286zm-73.872 4.995l4.8-8.224a24.226 24.226 0 0 1-8.429-8.271l-8.129 4.957a33.728 33.728 0 0 0 11.758 11.538zM153.57 72.619c.001.495.011.99.034 1.486l9.514-1.057-.024-14.714h-9.524v14.285zm.001-42.857h9.524v14.286h-9.524zM274.49 183.981l4.586 8.343a33.781 33.781 0 0 0 12.052-11.233l-8.01-5.162a24.245 24.245 0 0 1-8.628 8.052zm12.415-20.886c0 .562-.019 1.119-.062 1.681l9.505.662a35.03 35.03 0 0 0 .081-2.343V148.81h-9.524v14.285zm-71.429-66.666h14.286v9.524h-14.286zm79.8 24.666l-9.19 2.481a23.77 23.77 0 0 1 .819 6.186v4.762h9.524v-4.762c0-2.929-.386-5.848-1.153-8.667zm-8.114-14.352a33.536 33.536 0 0 0-13.971-8.748l-2.9 9.067a24.05 24.05 0 0 1 9.99 6.262l6.881-6.581zM153.571 15.476h9.524l11.429 8.572 5.714-7.619L158.333 0l-21.904 16.429 5.714 7.619zM77.381 25h9.524v14.286h-9.524zm0 85.714h9.524V125h-9.524zm0-28.571h9.524v14.286h-9.524zm0 85.714h9.524v14.286h-9.524zm4.762-155.952l16.19 12.143 5.715-7.619L82.143 0 60.238 16.429l5.714 7.619z"/></symbol><symbol viewBox="0 0 29 24" id="face"><path d="M21.292 9.349C20.862 4.536 17.688 0 12 0S3.138 4.536 2.708 9.349C.849 9.514 0 11.27 0 13.313c0 1.755.975 3.967 3.104 4.891C6.039 23.575 10.638 24 12 24s5.961-.425 8.896-5.796C23.025 17.279 24 15.068 24 13.313c0-2.019-.841-3.798-2.708-3.964zm-1.425 7.11a.998.998 0 0 0-.569.491C16.892 21.636 13.104 22 12 22s-4.892-.364-7.298-5.05a1.006 1.006 0 0 0-.569-.491c-2.448-.829-2.553-4.364-1.553-5.012a.753.753 0 0 1 .671-.053 1 1 0 0 0 1.406-.914l.02-.566C6.48 9.508 9.008 7.14 9.641 5.875c-.069.852-.891 3.254-2.076 4.063 2.748 0 6.25-2.507 7.685-4.828.088 2.081 2.114 4.016 4.035 4.311.034.354.058.707.058 1.059a1 1 0 0 0 1.406.914.755.755 0 0 1 .671.053c1 .648.895 4.183-1.553 5.012zM16.5 12.5c0 .828-.56 1.5-1.25 1.5S14 13.328 14 12.5s.56-1.5 1.25-1.5 1.25.672 1.25 1.5zM8.75 14c-.69 0-1.25-.672-1.25-1.5S8.06 11 8.75 11s1.25.672 1.25 1.5S9.44 14 8.75 14zM9 17h6s-.765 2.354-3 2.354C9.847 19.354 9 17 9 17zm20 0c-2.781.797-3.717-1.06-4-4-.496-5.152-.973-8.926-4.051-8.255-.378-.844-.84-1.683-1.588-2.477C20.234 1.141 21.894 0 23.792 0c7.316 0 3.77 11.491 3.77 14 0 1.5.294 2.323 1.438 3z"/></symbol><symbol viewBox="0 0 300 300" id="gamepad"><circle cx="192.147" cy="134.719" r="8.808"/><circle cx="206.357" cy="120.516" r="8.808"/><path d="M94.61 117.808H81.642v12.32H69.323v12.968h12.319v12.319H94.61v-12.319h12.32v-12.968H94.61z"/><path d="M149.996 0C67.157 0 .001 67.161.001 149.997S67.157 300 149.996 300s150.003-67.163 150.003-150.003S232.835 0 149.996 0zm77.068 216.092h-13.279l-28.61-45.637h-70.351l-28.612 45.637H72.933c-10.468 0-18.957-8.486-18.957-18.957l4.212-66.349c0-.213.026-.379.031-.578-.003-.213-.031-.418-.031-.633 0-22.403 18.163-40.566 40.566-40.566 9.288 0 15.717 3.156 22.554 8.411 8.751-2.539 13.105-4.728 24.974-5.382h7.431c11.868.654 16.223 2.843 24.974 5.382 6.839-5.255 13.266-8.411 22.554-8.411 22.403 0 40.566 18.163 40.566 40.566 0 .215-.029.42-.031.633.005.197.031.366.031.578l4.212 66.349c-.001 10.471-8.484 18.957-18.955 18.957z"/><circle cx="220.565" cy="134.721" r="8.808"/><circle cx="206.355" cy="148.931" r="8.808"/></symbol><symbol viewBox="0 0 299.997 299.997" id="placeholder"><circle cx="150.437" cy="110.572" r="24.149"/><path d="M149.996 0C67.157 0 .001 67.158.001 149.997c0 82.837 67.156 150 149.995 150s150-67.163 150-150C299.996 67.158 232.835 0 149.996 0zm-.311 68.678c.106 0 .21-.005.314-.01.104.005.207.01.314.01 25.274.399 45.834 21.288 45.834 46.568 0 30.908-33.024 62.205-46.148 73.419-.877-.75-1.849-1.595-2.889-2.521-.018-.016-.034-.029-.049-.044-14.524-12.906-43.209-42.045-43.209-70.854-.001-25.28 20.561-46.168 45.833-46.568zm.965 163.572c-27.663 0-55.669-7.936-55.669-23.098 0-10.641 13.79-17.717 31.569-20.995a219.685 219.685 0 0 0 9.55 9.049c-19.366 2.163-30.744 8.294-30.744 11.943 0 4.484 17.195 12.724 45.294 12.724 28.099 0 45.297-8.24 45.297-12.724 0-3.724-11.858-10.009-31.927-12.052a220.98 220.98 0 0 0 9.627-9.142c18.313 3.188 32.674 10.335 32.674 21.197 0 15.162-28.006 23.098-55.671 23.098z"/></symbol><symbol viewBox="0 0 35 35" id="smartphone"><path d="M25.302 0H9.698a2.37 2.37 0 0 0-2.364 2.364v30.271A2.371 2.371 0 0 0 9.698 35h15.604a2.37 2.37 0 0 0 2.364-2.364V2.364A2.37 2.37 0 0 0 25.302 0zM15.004 1.704h4.992a.286.286 0 0 1 0 .573h-4.992a.286.286 0 1 1 0-.573zM17.5 33.818a1.182 1.182 0 1 1 0-2.364 1.182 1.182 0 0 1 0 2.364zm8.521-3.193H8.979V3.749h17.042v26.876z"/></symbol><symbol viewBox="0 0 24 24" id="youtube-4"><path d="M10.918 13.933h.706v3.795h-.706v-.419c-.13.154-.266.272-.405.353-.381.218-.902.213-.902-.557v-3.172h.705v2.909c0 .153.037.256.188.256.138 0 .329-.176.415-.284v-2.881zm.642-4.181c.2 0 .311-.16.311-.377V7.521c0-.223-.098-.38-.324-.38-.208 0-.309.161-.309.38v1.854c-.001.21.117.377.322.377zm-1.941 2.831H7.18v.747h.823v4.398h.795V13.33h.821v-.747zm4.721 2.253v2.105c0 .47-.176.834-.645.834-.259 0-.474-.094-.671-.34v.292h-.712v-5.145h.712v1.656c.16-.194.375-.354.628-.354.517.001.688.437.688.952zm-.727.043c0-.128-.024-.225-.075-.292-.086-.113-.244-.125-.367-.062l-.146.116v2.365l.167.134c.115.058.283.062.361-.039.04-.054.061-.141.061-.262v-1.96zM24 12c0 6.627-5.373 12-12 12S0 18.627 0 12 5.373 0 12 0s12 5.373 12 12zM13.254 9.749c0 .394.12.712.519.712.224 0 .534-.117.855-.498v.44h.741V6.417h-.741v3.025c-.09.113-.291.299-.436.299-.159 0-.197-.108-.197-.269V6.417h-.741v3.332zm-2.779-2.294v1.954c0 .703.367 1.068 1.085 1.068.597 0 1.065-.399 1.065-1.068V7.455a1.04 1.04 0 0 0-1.065-1.071c-.652 0-1.085.432-1.085 1.071zM7.714 5l.993 3.211v2.191h.835V8.211L10.513 5h-.848L9.13 7.16 8.555 5h-.841zm10.119 10.208c-.013-2.605-.204-3.602-1.848-3.714-1.518-.104-6.455-.103-7.971 0-1.642.112-1.835 1.104-1.848 3.714.013 2.606.204 3.602 1.848 3.715 1.516.103 6.453.103 7.971 0 1.643-.113 1.835-1.104 1.848-3.715zm-.885-.255v.966h-1.35v.716c0 .285.024.531.308.531.298 0 .315-.2.315-.531v-.264h.727v.285c0 .731-.313 1.174-1.057 1.174-.676 0-1.019-.491-1.019-1.174v-1.704c0-.659.435-1.116 1.071-1.116.678.001 1.005.431 1.005 1.117zm-.726-.007c0-.256-.054-.445-.309-.445-.261 0-.314.184-.314.445v.385h.623v-.385z"/></symbol></svg>