<svg xmlns="http://www.w3.org/2000/svg" xmlns:xlink="http://www.w3.org/1999/xlink" viewBox="0 0 165 67"><defs><style>.cls-1{fill:#3d435b;}.cls-2{fill:#fff;}.cls-3{fill:#fe5621;}.cls-4{fill:url(#Безымянный_градиент_37);}.cls-5{fill:#eb2d10;}</style><linearGradient id="Безымянный_градиент_37" x1="6.12" y1="19.46" x2="24.26" y2="25.92" gradientUnits="userSpaceOnUse"><stop offset="0.01" stop-color="#ffa526"/><stop offset="1" stop-color="#fe5621"/></linearGradient></defs><title>logo-2</title><g id="Слой_2" data-name="Слой 2"><g id="Слой_1-2" data-name="Слой 1"><g id="_Группа_" data-name="&lt;Группа&gt;"><path id="_Составной_контур_" data-name="&lt;Составной контур&gt;" class="cls-1" d="M55.9,41.55V21.66a9.39,9.39,0,0,1,.05-1.16,2.81,2.81,0,0,1,.29-.85q.48-.92,2.28-.92a4.45,4.45,0,0,1,2.43.46,1.84,1.84,0,0,1,.73,1.35,4.69,4.69,0,0,1,4.06-1.77A7.24,7.24,0,0,1,71,21.38a8.75,8.75,0,0,1,0,12.2,7.19,7.19,0,0,1-5.25,2.62,4.89,4.89,0,0,1-4-1.57v6.88a9.57,9.57,0,0,1-.05,1.16,2.79,2.79,0,0,1-.31.87,1.44,1.44,0,0,1-.87.7,5.45,5.45,0,0,1-1.67.2,5.63,5.63,0,0,1-1.68-.2,1.45,1.45,0,0,1-.88-.68,2.59,2.59,0,0,1-.31-.85A9.39,9.39,0,0,1,55.9,41.55Zm6.73-16a3,3,0,0,0-.78,2,2.94,2.94,0,0,0,.8,2,2.6,2.6,0,0,0,2,.9,2.84,2.84,0,0,0,2.11-.89,2.8,2.8,0,0,0,.87-2,3,3,0,0,0-.82-2,2.73,2.73,0,0,0-2.13-.9A2.61,2.61,0,0,0,62.63,25.51Z"/><path id="_Составной_контур_2" data-name="&lt;Составной контур&gt;" class="cls-1" d="M87.32,20.63q.2-1.91,2.69-1.91a7,7,0,0,1,2,.2,1.43,1.43,0,0,1,.9.72,2.92,2.92,0,0,1,.31.9,9.85,9.85,0,0,1,.05,1.18V33.65a9.85,9.85,0,0,1-.05,1.18,3.2,3.2,0,0,1-.29.9q-.48.89-2.33.89a4.58,4.58,0,0,1-2.48-.46,1.84,1.84,0,0,1-.73-1.35,4.76,4.76,0,0,1-4.2,1.81,7.41,7.41,0,0,1-5.46-2.69,9,9,0,0,1,0-12.49,7.56,7.56,0,0,1,5.56-2.67,5.29,5.29,0,0,1,2.11.41,4.7,4.7,0,0,1,1.33.77A4.75,4.75,0,0,1,87.32,20.63Zm-6.19,7.09a2.83,2.83,0,0,0,.88,2,2.89,2.89,0,0,0,2.14.9,2.71,2.71,0,0,0,2.09-.92,3,3,0,0,0,.83-2,3.15,3.15,0,0,0-.8-2.06,2.65,2.65,0,0,0-2.14-1,2.75,2.75,0,0,0-2.18,1A3.09,3.09,0,0,0,81.13,27.72Z"/><path id="_Составной_контур_3" data-name="&lt;Составной контур&gt;" class="cls-1" d="M108.13,18.93a2.3,2.3,0,0,1,1.07.7,2.41,2.41,0,0,1,.43,1.58A5.4,5.4,0,0,1,109,23.6a2,2,0,0,1-1.87,1.3,2.65,2.65,0,0,1-1.17-.27,3.41,3.41,0,0,0-1.48-.27,2.68,2.68,0,0,0-1.72.65,2,2,0,0,0-.8,1.57v7.16a10,10,0,0,1-.05,1.18,2.75,2.75,0,0,1-.32.9q-.51.89-2.65.89a3.74,3.74,0,0,1-2.35-.58A2,2,0,0,1,96,34.64V21.69A9.85,9.85,0,0,1,96,20.51a2.8,2.8,0,0,1,.29-.87q.48-.92,2.65-.92t2.55.78a2,2,0,0,1,.37,1.12,5.61,5.61,0,0,1,.49-.58,6.31,6.31,0,0,1,1.38-.92,4,4,0,0,1,1.85-.58,8.9,8.9,0,0,1,1.34.09A8.12,8.12,0,0,1,108.13,18.93Z"/><path id="_Составной_контур_4" data-name="&lt;Составной контур&gt;" class="cls-1" d="M128.78,25.56a4.14,4.14,0,0,1-1,3.1,3.23,3.23,0,0,1-2.3,1h-8.06a1.87,1.87,0,0,0,1.12,1.6,4.46,4.46,0,0,0,2.24.65,9.34,9.34,0,0,0,3.09-.41l.37-.14a3.42,3.42,0,0,1,1.36-.37q1.09,0,1.87,1.53a3.77,3.77,0,0,1,.44,1.57q0,3-7.24,3a10.9,10.9,0,0,1-4.47-.87,7.58,7.58,0,0,1-3-2.3A9.81,9.81,0,0,1,111,27.79a8.92,8.92,0,0,1,2.77-6.87,9.78,9.78,0,0,1,6.92-2.57q4.73,0,6.94,3.34A6.94,6.94,0,0,1,128.78,25.56Zm-7.18,1q1.29,0,1.29-1.09a1.54,1.54,0,0,0-.6-1.26,2.66,2.66,0,0,0-1.7-.48,3.44,3.44,0,0,0-2.19.9,2.54,2.54,0,0,0-1.09,1.93Z"/><path id="_Составной_контур_5" data-name="&lt;Составной контур&gt;" class="cls-1" d="M141,18.73a7.19,7.19,0,0,1,5.66,2.61,9.36,9.36,0,0,1,2.26,6.35v6a9.85,9.85,0,0,1-.05,1.18,2.79,2.79,0,0,1-.29.87q-.48.92-2.65.92-2.42,0-2.79-1.26a5.57,5.57,0,0,1-.2-1.74v-6a2.73,2.73,0,0,0-2.94-3,3,3,0,0,0-2.18.82,2.87,2.87,0,0,0-.83,2.15v6a9.85,9.85,0,0,1-.05,1.18,2.42,2.42,0,0,1-.32.87q-.44.92-2.62.92t-2.62-.92a3.17,3.17,0,0,1-.29-.9,9.85,9.85,0,0,1-.05-1.18V21.59a9.46,9.46,0,0,1,.05-1.14,2.42,2.42,0,0,1,.32-.87q.48-.85,2.62-.85t2.55.78a2.73,2.73,0,0,1,.34,1.4,3.45,3.45,0,0,1,.61-.68,6,6,0,0,1,.92-.72A4.45,4.45,0,0,1,141,18.73Z"/><path id="_Составной_контур_6" data-name="&lt;Составной контур&gt;" class="cls-1" d="M162,24.76l-2.21-.14v4.7a2.35,2.35,0,0,0,.29,1.33,1.25,1.25,0,0,0,1.09.41,10.94,10.94,0,0,1,1.22.05,2.43,2.43,0,0,1,.9.32q.78.44.78,2.28,0,2.15-1,2.62a3.17,3.17,0,0,1-.9.29,9.41,9.41,0,0,1-1.14.05,8,8,0,0,1-5.37-1.6q-1.84-1.6-1.84-5.42v-5a9,9,0,0,1-1.39.1,1.56,1.56,0,0,1-1.24-.58,3.07,3.07,0,0,1-.49-2,8.6,8.6,0,0,1,.17-2,1.83,1.83,0,0,1,.48-.9,2.09,2.09,0,0,1,1.36-.44l1.12.14V15.42a9.41,9.41,0,0,1,.05-1.16,2.14,2.14,0,0,1,.32-.82q.44-.85,2.62-.85t2.75,1.26a6.39,6.39,0,0,1,.17,1.74v3.34q1.5-.14,2.26-.14a9.77,9.77,0,0,1,1.16.05,2.75,2.75,0,0,1,.9.32q.88.44.88,2.62t-.92,2.62a3.16,3.16,0,0,1-.9.29A10,10,0,0,1,162,24.76Z"/></g><polygon class="cls-2" points="24.72 51.91 20.91 54.13 20.76 56.91 25.61 57.6 28.77 56.12 28.44 53.08 24.72 51.91"/><path id="_Контур_" data-name="&lt;Контур&gt;" class="cls-2" d="M30.13,2.28S19.11.12,11,5.82,1.29,21.27,1.75,26.9,8.64,46.78,18.31,49.69Z"/><path id="_Контур_2" data-name="&lt;Контур&gt;" class="cls-3" d="M24.72,52.7S23,54.1,23.23,55c.11.56,3.49,1.41,5.09,1l.27-1.81-1.92-1.73Z"/><path id="_Контур_3" data-name="&lt;Контур&gt;" class="cls-3" d="M47.61,26.08c0,5-1.91,8.62-4.19,12.15a23.51,23.51,0,0,1-2.77,3.64,35.07,35.07,0,0,1-12,8.63c-1.52.61-2.92,1.85-4.58,1.27q-.53-.19-1.06-.41C14.2,47.65,6,36.67,6,26.26A23.1,23.1,0,0,1,29.07,3.14c1.95,0,4.06-.28,5.65.7C43.08,9,47.61,15.26,47.61,26.08Z"/><path id="_Контур_4" data-name="&lt;Контур&gt;" class="cls-4" d="M47.61,26.08c0,5.13-1.94,8.53-4.28,12.09a27.75,27.75,0,0,1-3.15,3.74c-3.34,3.45-6.86,6.74-11.49,8.59-1.52.61-2.92,1.85-4.58,1.27q-.53-.19-1.06-.41C14.2,47.65,6,36.67,6,26.26A23.1,23.1,0,0,1,29.07,3.14c1.95,0,4.06-.28,5.65.7C43.08,9,47.61,15.26,47.61,26.08Z"/><path id="_Контур_5" data-name="&lt;Контур&gt;" class="cls-5" d="M17,47.67c11.64,3.49,21.67-9,24.23-17.77,4.7-16-5.72-24.08-5.72-24.08l8,5.56s4.29,2.93,3.88,11c-.22,4.4-.68,10.38-4,16.07a41.05,41.05,0,0,1-3.29,4.24A21.55,21.55,0,0,1,28.55,50s-6,1.31-8.35.39A6,6,0,0,1,17,47.67Z"/><path id="_Составной_контур_7" data-name="&lt;Составной контур&gt;" class="cls-2" d="M7.77,31.08h8.8a8.41,8.41,0,0,1,1,0,2.31,2.31,0,0,1,.76.27q.77.4.77,2.23,0,2-1.06,2.35a4.76,4.76,0,0,1-1.49.17H7.3L5,26.4,7,15.16h9.52a8.23,8.23,0,0,1,1,0,2.29,2.29,0,0,1,.76.27q.77.4.77,2.23,0,2-1.06,2.35a4.76,4.76,0,0,1-1.49.17H7.77v2.89h5.66a8.25,8.25,0,0,1,1,0,2.3,2.3,0,0,1,.76.27q.77.4.77,2.23,0,2-1.09,2.35a4.78,4.78,0,0,1-1.49.17H7.77Z"/><path id="_Составной_контур_8" data-name="&lt;Составной контур&gt;" class="cls-2" d="M35,31.25a3.56,3.56,0,0,1,1.61.27,1.43,1.43,0,0,1,.69.79,4,4,0,0,1,.19,1.32,4.74,4.74,0,0,1-.14,1.29,2.26,2.26,0,0,1-.34.74,1.12,1.12,0,0,1-.6.37,4.5,4.5,0,0,1-1.46.17H23a2.49,2.49,0,0,1-1.26-.34,2.41,2.41,0,0,1-1.26-2.26,2,2,0,0,1,.34-1.2l8.86-12.28H23.14a8.7,8.7,0,0,1-1,0,3,3,0,0,1-.79-.24q-.83-.4-.83-2.15t.77-2.23a2.3,2.3,0,0,1,.76-.27,8.55,8.55,0,0,1,1,0H34.54a2.49,2.49,0,0,1,1.26.34,2.45,2.45,0,0,1,.93.92,2.66,2.66,0,0,1,.33,1.35A2,2,0,0,1,36.71,19L27.85,31.25Z"/><path class="cls-1" d="M3.54,15.41a1.63,1.63,0,0,0,2.21-.68,21.59,21.59,0,0,1,1.32-2.17A1.64,1.64,0,1,0,4.37,10.7a24.89,24.89,0,0,0-1.52,2.5A1.64,1.64,0,0,0,3.54,15.41Z"/><path class="cls-1" d="M39,41.6c-4.42,5-9.74,7.92-14.24,7.92-10,0-21.45-13.19-21.45-24.76a21.62,21.62,0,0,1,.62-5.15,1.63,1.63,0,1,0-3.17-.78A24.9,24.9,0,0,0,0,24.76c0,6.43,2.89,13.38,7.93,19.08A27.49,27.49,0,0,0,19.84,52a6.21,6.21,0,0,0-1.76,4.17c0,.79.34,2.25,2.63,3.09a10.48,10.48,0,0,0,2.51.54,8.73,8.73,0,0,0,15.11,4.26,1.64,1.64,0,1,0-2.44-2.18,5.46,5.46,0,0,1-9.32-2.12c3-.37,4.78-1.68,4.78-3.6A6.37,6.37,0,0,0,29.64,52a28.13,28.13,0,0,0,11.76-8.17A1.64,1.64,0,1,0,39,41.6ZM28.08,56a7,7,0,0,1-3.36.65A7,7,0,0,1,21.36,56a4.2,4.2,0,0,1,3.36-3.17A4,4,0,0,1,28.08,56Z"/><path class="cls-1" d="M24.72,0A24.47,24.47,0,0,0,9.8,5a1.64,1.64,0,0,0,2,2.61A21.23,21.23,0,0,1,24.72,3.27,21.49,21.49,0,0,1,46.16,24.76a23.93,23.93,0,0,1-3.87,12.37,1.63,1.63,0,1,0,2.78,1.72,27.19,27.19,0,0,0,4.36-14.09A24.77,24.77,0,0,0,24.72,0Z"/></g></g></svg>