<?xml version="1.0" encoding="UTF-8" standalone="no"?>
<svg width="109px" height="75px" viewBox="0 0 109 75" version="1.1" xmlns="http://www.w3.org/2000/svg" xmlns:xlink="http://www.w3.org/1999/xlink">
    <!-- Generator: sketchtool 40.1 (33804) - http://www.bohemiancoding.com/sketch -->
    <title>8AFF218D-BBC2-4200-A46C-3C8A07E0107B</title>
    <desc>Created with sketchtool.</desc>
    <defs></defs>
    <g id="Page-1" stroke="none" stroke-width="1" fill="none" fill-rule="evenodd">
        <g id="Lookpage" transform="translate(-646.000000, -87.000000)" fill="#262222">
            <g id="Logo" transform="translate(646.000000, 87.000000)">
                <path d="M6.00124618,70.7630029 L6.44036175,68.0404864 L7.93335471,68.0404864 L8.18218686,66.518219 L6.68919391,66.518219 L6.92338888,65.0398633 L8.41638184,65.0398633 L8.665214,63.517596 L7.17222104,63.517596 L7.58206225,61 L5.79632558,61 L5.38648438,63.517596 L4.01058891,63.517596 L4.42043011,61 L2.63469344,61 L2.22485224,63.517596 L0.73185929,63.517596 L0.483027132,65.0398633 L1.97602008,65.0398633 L1.74182511,66.518219 L0.248832159,66.518219 L0,68.0404864 L1.49299295,68.0404864 L1.05387738,70.7630029 L2.83961405,70.7630029 L3.27872962,68.0404864 L4.65462509,68.0404864 L4.21550951,70.7630029 L6.00124618,70.7630029 Z M4.90345724,66.518219 L3.52756178,66.518219 L3.76175675,65.0398633 L5.13765222,65.0398633 L4.90345724,66.518219 Z M9.4848964,70.7630029 L11.2706331,70.7630029 L11.2706331,68.1868582 L13.7589547,68.1868582 L13.7589547,70.7630029 L15.5446913,70.7630029 L15.5446913,64.4251015 L13.7589547,64.4251015 L13.7589547,66.6645909 L11.2706331,66.6645909 L11.2706331,64.4251015 L9.4848964,64.4251015 L9.4848964,70.7630029 Z M21.824044,68.7284341 C21.5313003,69.2407356 21.0189988,69.5627537 20.3456883,69.5627537 C19.6577405,69.5627537 19.2625365,69.2260984 19.0722531,68.9626291 C18.8673325,68.6845225 18.7648722,68.2746813 18.7648722,67.8941145 L23.5073204,67.8941145 L23.5073204,67.7477427 C23.5073204,67.0597949 23.4194973,66.0644663 22.7461867,65.2594211 C22.3070712,64.7324824 21.5605747,64.2201809 20.2725023,64.2201809 C19.5113687,64.2201809 18.6331375,64.3811899 17.8866411,65.1130492 C17.4328883,65.566802 16.9205868,66.3425728 16.9205868,67.6013708 C16.9205868,68.5966994 17.2133305,69.4163818 17.9159154,70.0750552 C18.5453144,70.6751798 19.3210853,70.9679235 20.3456883,70.9679235 C22.5559033,70.9679235 23.2731254,69.4602934 23.4634088,68.9919034 L21.824044,68.7284341 Z M18.8234209,66.752414 C18.9697928,65.9034572 19.6577405,65.4789789 20.3164139,65.4789789 C20.9750873,65.4789789 21.6776722,65.8888201 21.824044,66.752414 L18.8234209,66.752414 Z M30.5038952,64.4251015 L25.3808802,64.4251015 L25.3808802,68.1575839 C25.3808802,68.406416 25.3516058,68.7284341 25.1613224,68.9626291 C25.0442249,69.1090009 24.8246671,69.27001 24.4294631,69.27001 C24.34164,69.27001 24.2391797,69.2553728 24.1513566,69.2407356 L24.1513566,70.7630029 C24.3270028,70.8069145 24.502649,70.8215517 24.6782953,70.8215517 C25.7175355,70.8215517 26.2591113,70.294613 26.390846,70.1482411 C26.9177847,69.5773909 26.9909706,68.7869828 26.9909706,68.2746813 L26.9909706,65.9473688 L28.7181585,65.9473688 L28.7181585,70.7630029 L30.5038952,70.7630029 L30.5038952,64.4251015 Z M35.5098128,64.2201809 C34.3095635,64.2201809 33.4898811,64.6153849 32.9483052,65.1130492 C32.3189063,65.6838995 31.8797907,66.5621306 31.8797907,67.6013708 C31.8797907,68.6259738 32.3189063,69.504205 32.9483052,70.0750552 C33.4898811,70.5727195 34.3095635,70.9679235 35.5098128,70.9679235 C36.710062,70.9679235 37.5297444,70.5727195 38.0713203,70.0750552 C38.7007193,69.504205 39.1398348,68.6259738 39.1398348,67.6013708 C39.1398348,66.5621306 38.7007193,65.6838995 38.0713203,65.1130492 C37.5297444,64.6153849 36.710062,64.2201809 35.5098128,64.2201809 L35.5098128,64.2201809 Z M35.5098128,69.3871075 C34.4705726,69.3871075 33.7240761,68.5674251 33.7240761,67.6013708 C33.7240761,66.6060422 34.4852098,65.8009969 35.5098128,65.8009969 C36.5344158,65.8009969 37.2955494,66.6060422 37.2955494,67.6013708 C37.2955494,68.5674251 36.549053,69.3871075 35.5098128,69.3871075 L35.5098128,69.3871075 Z M39.8424198,70.7630029 L41.6281564,70.7630029 L42.1550951,67.3232643 L43.7944599,70.8947376 L44.3213986,70.8947376 L45.9607634,67.3232643 L46.4877021,70.7630029 L48.2734388,70.7630029 L47.1171011,64.2494552 L45.7997544,64.2494552 L44.0579293,68.0697607 L42.3161042,64.2494552 L40.9987574,64.2494552 L39.8424198,70.7630029 Z M54.1575875,65.2447839 C53.5574629,64.308004 52.6060458,64.2201809 52.1230186,64.2201809 C50.2494589,64.2201809 48.9760237,65.7131738 48.9760237,67.5867336 C48.9760237,69.4456562 50.264096,70.9679235 52.2108418,70.9679235 C52.6645945,70.9679235 53.5135513,70.8654632 54.1575875,69.9433205 L54.1575875,70.7630029 L55.9433241,70.7630029 L55.9433241,64.4251015 L54.1575875,64.4251015 L54.1575875,65.2447839 Z M52.5767714,65.8009969 C53.6013744,65.8009969 54.3332337,66.5767678 54.3332337,67.5867336 C54.3332337,68.5966994 53.6013744,69.3871075 52.5767714,69.3871075 C51.5521684,69.3871075 50.8203091,68.5966994 50.8203091,67.5867336 C50.8203091,66.5767678 51.5521684,65.8009969 52.5767714,65.8009969 L52.5767714,65.8009969 Z M57.6412377,64.4251015 L57.6412377,70.7630029 L59.4269744,70.7630029 L62.3544115,66.8548743 L62.3544115,70.7630029 L64.1401482,70.7630029 L64.1401482,64.4251015 L62.3544115,64.4251015 L59.4269744,68.3332301 L59.4269744,64.4251015 L57.6412377,64.4251015 Z M62.1202165,61.2488322 C61.9738447,61.8782311 61.4176316,62.1709749 60.8906929,62.1709749 C60.2759311,62.1709749 59.7782668,61.7757708 59.6611693,61.2488322 L58.4901945,61.8050452 C58.9146729,63.0199316 60.1149221,63.3126754 60.8906929,63.3126754 C61.6664638,63.3126754 62.866713,63.0199316 63.2911914,61.8050452 L62.1202165,61.2488322 Z M65.8380617,70.7630029 L67.6237984,70.7630029 L67.6237984,65.9473688 L69.877925,65.9473688 L69.877925,64.4251015 L65.8380617,64.4251015 L65.8380617,70.7630029 Z M74.1227089,64.2201809 C72.9224597,64.2201809 72.1027773,64.6153849 71.5612014,65.1130492 C70.9318024,65.6838995 70.4926868,66.5621306 70.4926868,67.6013708 C70.4926868,68.6259738 70.9318024,69.504205 71.5612014,70.0750552 C72.1027773,70.5727195 72.9224597,70.9679235 74.1227089,70.9679235 C75.3229581,70.9679235 76.1426405,70.5727195 76.6842164,70.0750552 C77.3136154,69.504205 77.752731,68.6259738 77.752731,67.6013708 C77.752731,66.5621306 77.3136154,65.6838995 76.6842164,65.1130492 C76.1426405,64.6153849 75.3229581,64.2201809 74.1227089,64.2201809 L74.1227089,64.2201809 Z M74.1227089,69.3871075 C73.0834687,69.3871075 72.3369722,68.5674251 72.3369722,67.6013708 C72.3369722,66.6060422 73.0981059,65.8009969 74.1227089,65.8009969 C75.1473119,65.8009969 75.9084456,66.6060422 75.9084456,67.6013708 C75.9084456,68.5674251 75.1619491,69.3871075 74.1227089,69.3871075 L74.1227089,69.3871075 Z M84.7493058,64.4251015 L79.6262908,64.4251015 L79.6262908,68.1575839 C79.6262908,68.406416 79.5970164,68.7284341 79.406733,68.9626291 C79.2896355,69.1090009 79.0700777,69.27001 78.6748737,69.27001 C78.5870506,69.27001 78.4845903,69.2553728 78.3967672,69.2407356 L78.3967672,70.7630029 C78.5724134,70.8069145 78.7480596,70.8215517 78.9237059,70.8215517 C79.962946,70.8215517 80.5045219,70.294613 80.6362566,70.1482411 C81.1631953,69.5773909 81.2363812,68.7869828 81.2363812,68.2746813 L81.2363812,65.9473688 L82.9635691,65.9473688 L82.9635691,70.7630029 L84.7493058,70.7630029 L84.7493058,64.4251015 Z M89.7552233,64.2201809 C88.5549741,64.2201809 87.7352917,64.6153849 87.1937158,65.1130492 C86.5643168,65.6838995 86.1252013,66.5621306 86.1252013,67.6013708 C86.1252013,68.6259738 86.5643168,69.504205 87.1937158,70.0750552 C87.7352917,70.5727195 88.5549741,70.9679235 89.7552233,70.9679235 C90.9554726,70.9679235 91.775155,70.5727195 92.3167309,70.0750552 C92.9461298,69.504205 93.3852454,68.6259738 93.3852454,67.6013708 C93.3852454,66.5621306 92.9461298,65.6838995 92.3167309,65.1130492 C91.775155,64.6153849 90.9554726,64.2201809 89.7552233,64.2201809 L89.7552233,64.2201809 Z M89.7552233,69.3871075 C88.7159832,69.3871075 87.9694867,68.5674251 87.9694867,67.6013708 C87.9694867,66.6060422 88.7306203,65.8009969 89.7552233,65.8009969 C90.7798264,65.8009969 91.54096,66.6060422 91.54096,67.6013708 C91.54096,68.5674251 90.7944635,69.3871075 89.7552233,69.3871075 L89.7552233,69.3871075 Z M94.7611409,64.4251015 L94.7611409,70.7630029 L98.0252333,70.7630029 C98.3033399,70.7630029 98.9327388,70.7337286 99.4450403,70.3531617 C99.7524212,70.1189668 100.118351,69.6944884 100.118351,68.9479919 C100.118351,68.3917788 99.9134303,68.011212 99.6353238,67.7623798 C99.4011288,67.5574592 99.0937479,67.4110874 98.8010042,67.3525386 C99.3718544,67.1037065 99.6792353,66.591405 99.6792353,66.0498291 C99.6792353,65.5228904 99.4304032,65.0837748 99.0644735,64.8056683 C98.5668092,64.4251015 97.9813218,64.4251015 97.5568434,64.4251015 L94.7611409,64.4251015 Z M96.5468776,66.9426974 L96.5468776,65.8302713 L97.3372856,65.8302713 C97.5129318,65.8302713 97.7178524,65.8302713 97.8642243,65.9327316 C97.9666846,66.0059175 98.0691449,66.1522894 98.0691449,66.3864844 C98.0691449,66.5767678 97.995959,66.7231396 97.8349499,66.8255999 C97.6446665,66.9426974 97.3958343,66.9426974 97.36656,66.9426974 L96.5468776,66.9426974 Z M96.5468776,69.3578331 L96.5468776,68.0843979 L97.4251087,68.0843979 C97.5861177,68.0843979 97.8495871,68.0990351 98.0398705,68.2307698 C98.156968,68.3039557 98.2740655,68.4503276 98.2740655,68.6845225 C98.2740655,68.9333547 98.156968,69.1090009 98.0398705,69.196824 C97.8495871,69.3431959 97.5714806,69.3578331 97.3811971,69.3578331 L96.5468776,69.3578331 Z M101.303963,74.15883 L103.323895,74.15883 L108.432272,64.4251015 L106.412341,64.4251015 L104.655878,68.0258492 L102.694496,64.4251015 L100.616015,64.4251015 L103.631275,69.8115859 L101.303963,74.15883 Z" id="#неломайголову"></path>
                <path d="M53.8449612,25.8137395 L9.47325699,40.3839327 C7.21673599,41.1107347 5.70744225,43.1930155 5.70744225,45.5667867 C5.70744225,48.5663484 8.13533247,51.0064986 11.120412,51.0064986 L96.5704678,51.0064986 C99.5565047,51.0064986 101.983916,48.5663484 101.983916,45.5667867 C101.983916,43.1915725 100.473186,41.1092917 98.2248031,40.3863377 L53.8449612,25.8137395 Z M96.5704678,53.7265951 L11.120412,53.7265951 C6.64422875,53.7265951 3,50.0661293 3,45.5667867 C3,42.0039653 5.26657338,38.8817468 8.64034512,37.7951512 L52.4912401,23.3966777 L52.4878893,20.5774937 C52.4878893,18.3966065 53.333247,16.3470342 54.866475,14.8063677 L57.6529002,12.006424 C58.6753713,10.9789924 59.2378262,9.61341256 59.2378262,8.1598084 C59.2378262,5.16024667 56.809936,2.72057748 53.8234204,2.72057748 C50.8383409,2.72057748 48.4104506,5.16024667 48.4104506,8.1598084 L45.7039658,8.1598084 C45.7039658,3.6604658 49.3467585,0 53.8234204,0 C58.3010397,0 61.9438324,3.6604658 61.9438324,8.1598084 C61.9438324,10.3387716 61.0989534,12.3878629 59.5657254,13.9285293 L56.7802575,16.728473 C55.756829,17.7559047 55.1953315,19.1219655 55.1953315,20.5750887 L55.1972463,23.3952347 L99.0581936,37.7985182 C102.424306,38.8827088 104.689922,42.0054084 104.689922,45.5677487 C104.689922,50.0675723 101.048087,53.7265951 96.5704678,53.7265951 L96.5704678,53.7265951 Z" id="Fill-1"></path>
                <path d="M55.7197111,31.8688787 C55.7197111,30.8369163 54.8868355,30 53.8598555,30 C52.8328756,30 52,30.8369163 52,31.8688787 C52,32.900841 52.8328756,33.7377574 53.8598555,33.7377574 C54.8868355,33.7377574 55.7197111,32.900841 55.7197111,31.8688787" id="Fill-4"></path>
            </g>
        </g>
    </g>
</svg>