<?xml version="1.0" encoding="utf-8"?>
<!-- Generator: Adobe Illustrator 20.1.0, SVG Export Plug-In . SVG Version: 6.00 Build 0)  -->
<!DOCTYPE svg PUBLIC "-//W3C//DTD SVG 1.1//EN" "http://www.w3.org/Graphics/SVG/1.1/DTD/svg11.dtd">
<svg version="1.1" id="Слой_1" xmlns="http://www.w3.org/2000/svg" xmlns:xlink="http://www.w3.org/1999/xlink" x="0px" y="0px"
	 viewBox="0 0 165 110" style="enable-background:new 0 0 165 110;" xml:space="preserve">
<style type="text/css">
	.st0{fill:#FFFFFF;}
	.st1{fill-rule:evenodd;clip-rule:evenodd;fill:#D0BA93;}
</style>
<rect class="st0" width="165" height="110"/>
<g id="XMLID_68_">
	<path id="XMLID_90_" class="st1" d="M120.4,63.4c0.4,0.2,0.7,0.3,1.1,0.3c0,0,0,0,0,0c0.4,0,0.8-0.1,1.1-0.3
		c0.4-0.2,0.6-0.5,0.8-0.8c0.2-0.4,0.3-0.8,0.3-1.1c0-0.4-0.1-0.8-0.3-1.2c-0.2-0.4-0.5-0.6-0.9-0.8c-0.4-0.2-0.7-0.3-1.1-0.3
		c0,0,0,0,0,0c-0.4,0-0.8,0.1-1.1,0.3c-0.4,0.2-0.6,0.5-0.9,0.8c-0.2,0.4-0.3,0.8-0.3,1.2c0,0.4,0.1,0.8,0.3,1.1
		C119.8,62.9,120.1,63.2,120.4,63.4L120.4,63.4z M119.9,60.5c0.2-0.3,0.4-0.5,0.7-0.7c0.3-0.2,0.6-0.3,0.9-0.3c0,0,0,0,0,0
		c0.3,0,0.6,0.1,0.9,0.3c0.3,0.2,0.5,0.4,0.7,0.7c0.2,0.3,0.3,0.6,0.3,1c0,0.3-0.1,0.6-0.3,1c-0.2,0.3-0.4,0.5-0.7,0.7
		c-0.3,0.2-0.6,0.3-1,0.3c0,0,0,0,0,0c-0.3,0-0.6-0.1-1-0.3c-0.3-0.2-0.5-0.4-0.7-0.7c-0.2-0.3-0.3-0.6-0.3-1
		C119.6,61.1,119.7,60.8,119.9,60.5L119.9,60.5z"/>
	<path id="XMLID_87_" class="st1" d="M121,61.6h0.2c0.1,0,0.3,0,0.3,0.1c0,0,0,0,0.1,0c0.1,0.1,0.2,0.3,0.4,0.5l0.2,0.4h0.5
		l-0.3-0.5c-0.1-0.2-0.3-0.4-0.4-0.5c-0.1-0.1-0.1-0.1-0.2-0.1c0.2,0,0.4-0.1,0.5-0.2c0.1-0.1,0.2-0.3,0.2-0.5c0-0.1,0-0.3-0.1-0.4
		c-0.1-0.1-0.2-0.2-0.3-0.2c-0.1,0-0.3-0.1-0.5-0.1c0,0-0.1,0-0.1,0h-0.9v2.5h0.4V61.6L121,61.6z M121,60.6h0.5c0.1,0,0.1,0,0.1,0
		c0.1,0,0.2,0,0.3,0c0.1,0,0.1,0.1,0.2,0.1c0,0.1,0.1,0.1,0.1,0.2c0,0.1,0,0.2-0.1,0.3c-0.1,0.1-0.2,0.1-0.4,0.1c0,0-0.1,0-0.1,0
		H121V60.6L121,60.6z"/>
	<polygon id="XMLID_62_" class="st1" points="61.4,60.8 65,60.8 61.4,54.9 58.4,49.9 45.6,57.6 47.5,60.8 61.4,60.8 	"/>
	<polygon id="XMLID_61_" class="st1" points="94.7,60.8 101.3,60.8 112.2,60.8 101.3,42.7 89.3,22.7 84.3,25.7 76.5,30.4 84.3,43.5 
		94.7,60.8 	"/>
	<path id="XMLID_82_" class="st1" d="M88.6,66.8c-1.2-0.8-2.7-1.3-4.2-1.3c0,0,0,0,0,0c-4.3,0-7.8,3.6-7.8,7.9
		c0,4.3,3.5,7.8,7.8,7.9c0,0,0,0,0,0c1.6,0,3-0.5,4.2-1.3v0.8h3.6v-7.4V60.8h-3.6V66.8L88.6,66.8z M88.6,74.3
		c-0.4,2-2.1,3.5-4.2,3.5c0,0,0,0,0,0c-2.4,0-4.3-2-4.3-4.3c0-2.4,1.9-4.3,4.3-4.3c0,0,0,0,0,0c2.1,0,3.9,1.5,4.2,3.5V74.3
		L88.6,74.3z"/>
	<path id="XMLID_79_" class="st1" d="M105.6,66.8c-1.2-0.8-2.7-1.3-4.2-1.3c0,0,0,0,0,0c-4.3,0-7.8,3.6-7.8,7.9
		c0,4.3,3.5,7.8,7.8,7.9c0,0,0,0,0,0c1.6,0,3-0.5,4.2-1.3v0.8h3.6v-7.4V66h-3.6V66.8L105.6,66.8z M105.6,74.3
		c-0.4,2-2.1,3.5-4.2,3.5c0,0,0,0,0,0c-2.4,0-4.3-2-4.3-4.3c0-2.4,1.9-4.3,4.3-4.3c0,0,0,0,0,0c2.1,0,3.9,1.5,4.2,3.5V74.3
		L105.6,74.3z"/>
	<path id="XMLID_55_" class="st1" d="M122.1,72.4c-0.1-0.1-0.3-0.1-0.5-0.2c-0.8-0.3-2.1-0.6-3.9-1c-1.6-0.4-2.4-0.8-2.4-1.4
		c0-0.4,0.1-0.7,0.4-1c0.4-0.3,1-0.5,2-0.5c1,0,1.7,0.2,2.1,0.6c0.3,0.3,0.4,0.7,0.6,1.3h1.3h2.5c0-1.9-0.8-3.2-2.3-4.1
		c-0.1-0.1-0.2-0.1-0.3-0.1c-1-0.5-2.4-0.7-4.2-0.7c-2.1,0-3.7,0.6-4.8,1.7c-0.8,0.9-1.3,2-1.3,3.3c0,1.6,0.8,2.8,2.4,3.5
		c0.6,0.3,2.1,0.7,4.5,1.2c1.6,0.3,2.4,0.8,2.4,1.5c0,0.4-0.2,0.7-0.5,1c-0.4,0.4-1.1,0.6-2,0.6c-1.2,0-2-0.2-2.5-0.6
		c-0.5-0.4-0.7-0.9-0.7-1.6h-4c0,1.8,0.8,3.2,2.3,4.1c1.2,0.7,2.8,1.1,4.9,1.1c1.3,0,2.5-0.2,3.6-0.7c0.2-0.1,0.4-0.2,0.6-0.3
		c1.6-0.9,2.4-2.3,2.4-4.2C124.5,74.4,123.7,73.2,122.1,72.4L122.1,72.4z"/>
	<path id="XMLID_75_" class="st1" d="M48.6,66.8c-1.2-0.8-2.7-1.3-4.3-1.3c0,0,0,0,0,0c-4.3,0-7.8,3.6-7.8,7.9
		c0,4.3,3.5,7.8,7.8,7.9c0,0,0,0,0,0c1.6,0,3-0.5,4.3-1.3v0.8h3.6v-7.4V66h-3.6V66.8L48.6,66.8z M48.6,74.3c-0.4,2-2.1,3.5-4.3,3.5
		c0,0,0,0,0,0c-2.4,0-4.3-2-4.3-4.3c0-2.4,1.9-4.3,4.3-4.3c0,0,0,0,0,0c2.1,0,3.9,1.5,4.3,3.5V74.3L48.6,74.3z"/>
	<polygon id="XMLID_50_" class="st1" points="71.2,64.4 75.1,64.4 75.1,60.9 71.2,60.9 71.2,64.4 	"/>
	<polygon id="XMLID_49_" class="st1" points="71.2,80.9 75.1,80.9 75.1,65.6 71.2,65.6 71.2,80.9 	"/>
	<path id="XMLID_70_" class="st1" d="M65.7,66.8c-1.2-0.8-2.7-1.3-4.3-1.3c0,0,0,0,0,0c-4.3,0-7.8,3.6-7.8,7.9
		c0,4.3,3.5,7.8,7.8,7.9c0,0,0,0,0,0c1.6,0,3-0.5,4.3-1.3v0.8h3.6v-7.4V60.8h-3.6V66.8L65.7,66.8z M65.7,74.3
		c-0.4,2-2.1,3.5-4.3,3.5c0,0,0,0,0,0c-2.4,0-4.3-2-4.3-4.3c0-2.4,1.9-4.3,4.3-4.3c0,0,0,0,0,0c2.1,0,3.9,1.5,4.3,3.5V74.3
		L65.7,74.3z"/>
	<polygon id="XMLID_43_" class="st1" points="88.6,60.8 84.3,53.7 73.9,36.3 61.4,43.7 61,44 61.4,44.7 71.1,60.8 84.3,60.8 
		88.6,60.8 	"/>
</g>
</svg>
