<?xml version="1.0" encoding="utf-8"?>
<!-- Generator: Adobe Illustrator 20.1.0, SVG Export Plug-In . SVG Version: 6.00 Build 0)  -->
<!DOCTYPE svg PUBLIC "-//W3C//DTD SVG 1.1//EN" "http://www.w3.org/Graphics/SVG/1.1/DTD/svg11.dtd">
<svg version="1.1" id="Слой_1" xmlns="http://www.w3.org/2000/svg" xmlns:xlink="http://www.w3.org/1999/xlink" x="0px" y="0px"
	 viewBox="0 0 165 110" style="enable-background:new 0 0 165 110;" xml:space="preserve">
<style type="text/css">
	.st0{fill:#FFFFFF;}
	.st1{fill:#D0BA93;}
</style>
<rect class="st0" width="165" height="110"/>
<g>
	<path class="st1" d="M31.6,45.7l-4.8,14.1h9.5L31.6,45.7 M35.8,70.2v-0.6h3.7l-3-9.2h-9.9l-3.1,9.2h2.7v0.6h-5.5v-0.6h2.1
		l10.5-30.3l10.1,30.3h2.8v0.6H35.8"/>
	<rect x="73.3" y="27.4" class="st1" width="0.3" height="55.1"/>
	<path class="st1" d="M47.9,65.6c0-0.3,0.1-0.7,0.1-0.7h5.1c0,0-1.7,1.4-1.7,2.9c0,1.5,1,1.9,1.8,1.9c1.6,0,3.5-0.8,3.5-3.2V40h-2.5
		v-0.6h8.5V40h-2.5v22.7c0,5-2.1,7.7-7.2,7.7C50.4,70.4,47.9,69.1,47.9,65.6"/>
	<path class="st1" d="M120.6,48.2l2.2-6.5l2.2,6.5H120.6 M97.3,45.7v-6h1.1c1.7,0,2.9,1.1,2.9,3.2c0,1.1-0.9,2.9-2.7,2.9H97.3z
		 M85.9,48.2l2.2-6.5l2.2,6.5H85.9z M144.4,39.7v-0.3h-6.9v0.3h1.1V50l-6.7-10.6H129v0.3h1.1v13.1h-1.8l-4.7-14l-4.8,14h-1.9V39.7
		h1.1v-0.3h-2.7l-3.7,10.9l-3.9-10.9H105v0.3h1.1v13.1h-2c-0.7,0-1.2-0.6-1.2-1.6v-2c0-1.7-0.6-3-2.5-3.3c1.6-0.2,2.7-1.6,2.7-3.1
		c0-1.9-1.4-3.4-4.2-3.4h-4.2v0.3h1.1v13.1h-2.3l-4.7-14l-4.8,14h-1V53h2.5v-0.3h-1.3l1.4-4.2h4.6l1.4,4.2H90V53h9v-0.3h-1.7V46h1.2
		c1.7,0,2.6,0.7,2.6,2.4v1.2c0,2.8,1.8,3.5,2.8,3.5h3.6v-0.3h-1.2V40.6l4.6,12.5l4.4-12.9v12.5h-1.1V53h6.1v-0.3h-1.3l1.4-4.2h4.6
		l1.4,4.2h-1.7V53h6.7v-0.3h-1.1V40.1l8.5,13.4V39.7h2.8v13.1h-1.1V53h3.8v-0.3h-1.1V39.7H144.4"/>
	<path class="st1" d="M105.8,60.1c0-1.9-0.6-3.3-2.9-3.3h-3.2v6.3h1c1.5,0,2.2-0.8,2.2-2.1h0.3v4.5h-0.3c0-1.3-0.7-2.1-2.2-2.1h-1
		v6.5h2.3c3.4,0,3.8-1.6,3.8-3.6h0.3v3.9h-9.1v-0.3h1.2V56.9h-1.2v-0.3h9.1v3.5H105.8"/>
	<path class="st1" d="M109.4,65.4l2.2-6.5l2.2,6.5H109.4 M126.6,56.6v0.3h1.1v10.3l-6.7-10.6h-2.9v0.3h1.1v13.1h-2.1l-4.7-14
		l-4.8,14h-1v0.3h2.5v-0.3h-1.3l1.4-4.2h4.6l1.4,4.2h-1.7v0.3h6.9v-0.3h-1.1V57.3l8.5,13.4V56.9h1.1v-0.3H126.6"/>
	<path class="st1" d="M133.5,70.6c-0.7,0-1.3-0.2-1.7-0.4c-0.4-0.2-0.8-0.5-1.4-0.5c-0.5,0-0.7,0.5-0.8,0.9h-0.2v-4.3h0.2
		c0,1.1,0.6,2.4,1.7,3.3c0.6,0.5,1.3,0.8,2.2,0.8c2,0,3.1-1.4,3.1-2.6c0-2.3-1.4-2.9-4-3.6c-1.9-0.5-3.1-1.9-3.1-3.8
		c0-2.3,1.7-3.9,3.5-3.9c1.6,0,2.2,1,2.8,1c0.5,0,0.6-0.5,0.6-0.7h0.2v3.8h-0.2c0-1.8-1.5-3.8-3.4-3.8c-1.4,0-2.7,1-2.7,2.6
		c0,1.5,1.1,2.6,3.4,3.2c2.4,0.7,3.6,1.4,3.6,3.9C137.6,68,136.5,70.6,133.5,70.6"/>
	<g>
		<path class="st1" d="M89.8,68.3c0-0.1,0-0.3,0-0.3h2.3c0,0-0.8,0.6-0.7,1.3c0,0.7,0.5,0.9,0.8,0.9c0.7,0,1.6-0.4,1.6-1.4V56.9
			h-1.1v-0.3h3.8v0.3h-1.1V67c0,2.3-1,3.5-3.2,3.5C91,70.4,89.8,69.9,89.8,68.3"/>
	</g>
</g>
</svg>
