<?xml version="1.0" encoding="utf-8"?>
<!-- Generator: Adobe Illustrator 20.1.0, SVG Export Plug-In . SVG Version: 6.00 Build 0)  -->
<!DOCTYPE svg PUBLIC "-//W3C//DTD SVG 1.1//EN" "http://www.w3.org/Graphics/SVG/1.1/DTD/svg11.dtd">
<svg version="1.1" id="Слой_1" xmlns="http://www.w3.org/2000/svg" xmlns:xlink="http://www.w3.org/1999/xlink" x="0px" y="0px"
	 viewBox="0 0 165 110" style="enable-background:new 0 0 165 110;" xml:space="preserve">
<style type="text/css">
	.st0{fill:#FFFFFF;}
	.st1{fill-rule:evenodd;clip-rule:evenodd;fill:#D0BA93;}
</style>
<rect class="st0" width="165" height="110"/>
<g>
	<polygon class="st1" points="85.3,20.5 88.8,20.5 88.8,59.8 102.5,46.1 106.9,46.1 92.9,60.3 110.4,77.9 105.7,77.9 90.5,62.7 
		88.9,64.3 88.9,77.9 85.3,77.9 85.3,20.5 	"/>
	<path class="st1" d="M70.8,44.8c4.4,0,8.4,1.7,11.3,4.6l-2.5,1.9c-2.3-2.1-5.4-3.3-8.8-3.3c-7.3,0-13.2,5.9-13.2,13.2
		c0,7.3,5.9,13.2,13.2,13.2c3.4,0,6.5-1.3,8.9-3.4l2.5,1.8c-2.9,2.9-6.9,4.6-11.4,4.6c-9,0-16.3-7.3-16.3-16.3
		C54.6,52.1,61.8,44.8,70.8,44.8L70.8,44.8z"/>
	<path class="st1" d="M59.1,88.7c-2,0-3.6-1.8-3.6-3.7c0-1.9,1.6-3.7,3.6-3.7c1.3,0,2.2,0.6,3,1.6h1l0,0c-0.3-0.5-0.6-1-1.1-1.4
		c-0.8-0.6-1.8-1-2.9-1c-2.5,0-4.5,2-4.5,4.5c0,2.5,2,4.5,4.5,4.5c1,0,2-0.4,2.8-1c0.5-0.4,0.8-0.9,1.2-1.4h-1l0,0
		C61.3,88.1,60.3,88.7,59.1,88.7L59.1,88.7L59.1,88.7z"/>
	<path class="st1" d="M69,84c-0.6-0.8-1.4-1.3-2.4-1.3c-1.8,0-3.3,1.5-3.3,3.3c0,1.8,1.5,3.3,3.3,3.3c1.1,0,1.8-0.4,2.4-1.2v1.1h0.8
		v-6.3H69V84L69,84z M66.5,88.6c-1.4,0-2.5-1.2-2.5-2.6c0-1.4,1.1-2.6,2.5-2.6c1.4,0,2.5,1.2,2.5,2.6C69,87.4,67.9,88.6,66.5,88.6
		L66.5,88.6L66.5,88.6z"/>
	<polygon class="st1" points="70.7,89.2 71.5,89.2 71.5,80.7 70.7,80.7 70.7,89.2 	"/>
	<polygon class="st1" points="74.7,88.2 72.6,82.9 71.8,82.9 74.3,89.2 75.2,89.2 77.7,82.9 76.9,82.9 74.7,88.2 74.7,88.2 	"/>
	<polygon class="st1" points="78.1,89.2 78.9,89.2 78.9,82.9 78.1,82.9 78.1,89.2 	"/>
	<polygon class="st1" points="78.1,82.1 78.9,82.1 78.9,80.7 78.1,80.7 78.1,82.1 	"/>
	<path class="st1" d="M82.6,82.8c-0.8,0-1.4,0.4-1.9,1v-0.8h-0.8v6.3h0.8v-3.8c0-1,0.8-1.9,1.8-1.9c1.3,0,1.9,1.1,1.9,2.3v3.5h0.8
		v-3.5C85.3,84.1,84.3,82.8,82.6,82.8L82.6,82.8L82.6,82.8z"/>
	<polygon class="st1" points="93.1,80.7 89.3,85.6 89.3,80.7 88.4,80.7 88.4,89.2 89.3,89.2 89.3,86.9 90.4,85.5 93.1,89.2 
		94.2,89.2 90.9,84.8 94.2,80.7 93.1,80.7 93.1,80.7 	"/>
	<polygon class="st1" points="94.5,89.2 95.3,89.2 95.3,80.7 94.5,80.7 94.5,89.2 	"/>
	<path class="st1" d="M102.1,84.5c-0.6-1.1-1.7-1.7-2.9-1.7c-1.8,0-3.3,1.5-3.3,3.3c0,1.8,1.5,3.3,3.3,3.3c0.9,0,1.7-0.3,2.3-0.9
		c0.4-0.4,0.6-0.8,0.8-1.3h-0.9l0,0c-0.4,0.9-1.2,1.5-2.3,1.5c-0.6,0-1.2-0.3-1.7-0.7c-0.5-0.4-0.7-1-0.8-1.6h5.8l0,0
		C102.5,85.7,102.5,85.1,102.1,84.5L102.1,84.5L102.1,84.5z M96.8,85.6c0.3-1.2,1.2-2.1,2.4-2.1c1.1,0,2.2,0.7,2.5,2.1H96.8
		L96.8,85.6L96.8,85.6z"/>
	<polygon class="st1" points="103.2,89.2 104,89.2 104,82.9 103.2,82.9 103.2,89.2 	"/>
	<polygon class="st1" points="103.2,82.1 104,82.1 104,80.7 103.2,80.7 103.2,82.1 	"/>
	<path class="st1" d="M107.6,82.8c-0.8,0-1.4,0.4-1.9,1v-0.8h-0.8v6.3h0.8v-3.8c0-1,0.9-1.9,1.9-1.9c1.3,0,1.9,1.1,1.9,2.3v3.5h0.8
		v-3.5C110.4,84.1,109.4,82.8,107.6,82.8L107.6,82.8L107.6,82.8z"/>
</g>
</svg>
