<?xml version="1.0" encoding="utf-8"?>
<!-- Generator: Adobe Illustrator 20.1.0, SVG Export Plug-In . SVG Version: 6.00 Build 0)  -->
<!DOCTYPE svg PUBLIC "-//W3C//DTD SVG 1.1//EN" "http://www.w3.org/Graphics/SVG/1.1/DTD/svg11.dtd">
<svg version="1.1" id="Слой_1" xmlns="http://www.w3.org/2000/svg" xmlns:xlink="http://www.w3.org/1999/xlink" x="0px" y="0px"
	 viewBox="0 0 165 110" style="enable-background:new 0 0 165 110;" xml:space="preserve">
<style type="text/css">
	.st0{fill:#FFFFFF;}
	.st1{fill-rule:evenodd;clip-rule:evenodd;fill:#D0BA93;}
</style>
<rect class="st0" width="165" height="110"/>
<g id="XMLID_86_">
	<path id="XMLID_84_" class="st1" d="M99.3,29.4c3-1.5,4.5-1.3,4.5,0.2c0,1.9-0.3,4.5-0.5,6.4c-1.1,10.2-3,18.4-3.1,28.9
		c4.9-12.8,9-21.5,14.3-32.4c1.7-3.5,2.8-2.8,4.2-3.5c5.4-2.4,5.6-0.9,4.8,2.1c-2.6,10.8-9.2,45-10.3,50.2c-0.3,1.5-2,0.9-2.4,0.3
		c-2-2.6-4.1-2.7-3.9-4.5c1.2-8.7,5.6-30.7,6.7-35.9C107.9,53,102,67.8,98.9,76.1c-0.6,1.8-1.8,1.6-2.6,0.3
		c-1.1-1.9-3.1-2.8-3.4-4.9c-1.1-6.8,1.2-19.9,1.5-28.2c-3.1,9-8.4,26.6-10.7,34.5c-1,3.3-4.1,2.7-3.3-0.4
		c3.5-13.3,11-36.8,14.3-45.2C95.6,30.1,97.6,30.2,99.3,29.4L99.3,29.4z"/>
	<path id="XMLID_83_" class="st1" d="M80.2,27.7c-1-0.2-4,1.4-5.8,1.6c-0.6,0.2-1.1,0.7-1.3,1.2c-2.9,6.7-5.5,13-7.7,18.7
		c-2.9,0.5-6.3,1.2-10,2c2.7-6.9,5.4-13.7,8.1-20.2c1.3-3.3-2.1-3.6-3.5-0.3C58.2,35,55,43,51.4,52.3c-2.6,0.6-5.5,1.4-8.4,2.3
		c-2.1,0.6-2.2,1.1-1.3,2.4c0.5,0.7,1.5,0.6,2,1.1c1.3,1.3,2,2.9,4.3,3.1c-2.1,5.3-4,10.8-5.8,16c-1.1,3.3,2.1,4,3.3,0.5
		c2-5.6,4.1-11.3,6.3-17.1c1.8-0.4,6.1-1.3,10.1-2.2c-3.2,8.8-5.2,15.4-6.1,18.6c-0.2,0.6,0.2,0.9,0.3,1.2c1,1.5,2.1,1.6,3.5,3.6
		c0.3,0.5,1.6,0.8,2.1-0.5c2.9-8.9,5.9-17.3,8.7-24.7c1.2-0.3,3.3-0.8,4.6-2.7c2.3-3.4,2.9-2.7,3.6-3.8c0.7-1.3,0.2-2.5-2.3-2.3
		c0,0-0.9,0.1-2.7,0.3c2.7-7,5.2-12.9,6.9-17.4C81.1,29.1,81.2,28,80.2,27.7L80.2,27.7z"/>
	<path id="XMLID_88_" class="st1" d="M77.6,71.1c0.4-0.5,0.8-1,1.1-1.5c1.4-2.1,0-3.4-1.5-2.1c-0.2,0.2-0.4,0.4-0.7,0.6
		c-0.2-0.8-0.5-1.6-0.7-2.3c0.7-0.8,1.3-1.7,1.9-2.6c2.4-3.7-2.3-5.8-4.3-3.4c-1.1,1.3-0.8,2.5-0.5,3.6c0.1,0.3,0.2,0.8,0.4,1.4
		c-0.6,0.6-1.3,1.3-2.2,2.4c-2.3,2.7-1.7,6.1,0.8,6.9c1.5,0.5,2.9-0.2,4.1-1.3c0.1,0.2,0.1,0.3,0.2,0.4c0.6,1.6,2.7,1.1,1.9-0.8
		C77.9,72.1,77.7,71.6,77.6,71.1L77.6,71.1z M74.2,67.8c0.2,0.6,0.4,1.3,0.6,1.9c-0.3,0.2-0.5,0.4-0.8,0.6c-0.9,0.5-1.6,0-0.4-1.7
		C73.8,68.3,74,68,74.2,67.8L74.2,67.8z M75,63.1c-0.1-0.2-0.1-0.4-0.1-0.5c-0.7-2.6,2.2-1.9,0.8-0.2C75.4,62.6,75.2,62.9,75,63.1
		L75,63.1z"/>
</g>
</svg>
