<?xml version="1.0" encoding="utf-8"?>
<!-- Generator: Adobe Illustrator 20.1.0, SVG Export Plug-In . SVG Version: 6.00 Build 0)  -->
<!DOCTYPE svg PUBLIC "-//W3C//DTD SVG 1.1//EN" "http://www.w3.org/Graphics/SVG/1.1/DTD/svg11.dtd">
<svg version="1.1" id="Слой_1" xmlns="http://www.w3.org/2000/svg" xmlns:xlink="http://www.w3.org/1999/xlink" x="0px" y="0px"
	 viewBox="0 0 165 110" style="enable-background:new 0 0 165 110;" xml:space="preserve">
<style type="text/css">
	.st0{fill:#FFFFFF;}
	.st1{fill:#D0BA93;}
</style>
<rect class="st0" width="165" height="110"/>
<path class="st1" d="M106,67.6c-4.7-0.6-9-6-9-12.6c0-6,2.8-11.3,6.7-12.5v22.8L106,67.6L106,67.6z M115,54.7
	c0,6.2-2.5,11.6-6.5,12.8V56.5l-2-1.9L115,54.7L115,54.7z M106.5,42.4c1.5,0.1,2.7-0.1,5.7,2.3l2.5-2l0,7.9
	c-2.3-4.3-5.1-6.4-8.3-6.6L106.5,42.4L106.5,42.4z M129.2,67.6c-4.7-0.6-9-6-9-12.6c0-6,2.8-11.3,6.7-12.5v22.8L129.2,67.6
	L129.2,67.6z M129.7,42.4c4.8,0.9,8.5,5.7,8.5,12.6c0,6.2-2.5,11.3-6.5,12.4V44.6L129.7,42.4L129.7,42.4z M74.1,42.9h6.5l10.8,19.7
	v3.7h-4.1L74.1,42.9L74.1,42.9z M57.6,50.4h1.7l-3.5,14.4l1.6,1.5h-4.9l1.5-1.5L57.6,50.4L57.6,50.4z M70.4,66.4l-6.5-23.4h-5.4
	l3.9,15.2h-3.9v1.3h4.2l1.4,5.4l-1.5,1.5H70.4L70.4,66.4z M47.4,64.9l1.6,1.5h-9.1l1.5-1.5c0-7.3,0-14.6,0-21.9H49l-1.6,1.5
	C47.4,51.2,47.4,58.1,47.4,64.9L47.4,64.9z M91.6,56.3V44.5l1.5-1.5h-4.9l1.6,1.5v11.9H91.6L91.6,56.3z M75.8,52.3v12.6l-1.5,1.5
	h4.9l-1.6-1.5V52.3H75.8L75.8,52.3z M28.3,54.7H30v10.2l1.6,1.5h-4.9l1.5-1.5V54.7L28.3,54.7z M26.8,42.9l9.6,23.6l2.8-8l-6.5-15.6
	H26.8z"/>
</svg>
