<?xml version="1.0" encoding="utf-8"?>
<!-- Generator: Adobe Illustrator 20.1.0, SVG Export Plug-In . SVG Version: 6.00 Build 0)  -->
<!DOCTYPE svg PUBLIC "-//W3C//DTD SVG 1.1//EN" "http://www.w3.org/Graphics/SVG/1.1/DTD/svg11.dtd">
<svg version="1.1" id="Слой_1" xmlns="http://www.w3.org/2000/svg" xmlns:xlink="http://www.w3.org/1999/xlink" x="0px" y="0px"
	 viewBox="0 0 165 110" style="enable-background:new 0 0 165 110;" xml:space="preserve">
<style type="text/css">
	.st0{fill:#FFFFFF;}
	.st1{fill:#D0BA93;}
</style>
<rect class="st0" width="165" height="110"/>
<g>
	<polygon class="st1" points="24,67.1 24,42.9 28.7,42.9 37.9,55.6 46.8,42.9 51.8,42.9 51.8,67.1 46.9,67.1 46.9,53.2 38,65.5 
		29,53.2 29,67.1 	"/>
	<polygon class="st1" points="95.3,55.1 86,42.9 94.1,42.9 98.8,49.7 103.7,42.9 110.7,42.9 102.4,55.1 111.7,67.1 104.5,67 
		98.6,58.8 93.2,67.1 85.5,67.1 	"/>
	<path class="st1" d="M71,47.6c1.8,0,3.5,0.6,4.8,1.7l4.7-2.7c-2.3-2.5-5.7-4.1-9.4-4.1c-7,0-12.8,5.6-12.8,12.5
		c0,6.9,5.8,12.6,12.8,12.6c4.2,0,8-2.1,10.3-5.2l-4.3-3c-1.4,1.8-3.5,3-6,3c-4.1,0-7.5-3.3-7.5-7.4C63.5,50.9,66.9,47.6,71,47.6z"
		/>
	<path class="st1" d="M66.2,55.1c5.7,0,11.5,0,17.2,0c0.1-2.2-0.5-4.4-1.9-6.6C76.3,50.7,71.3,52.9,66.2,55.1z"/>
	<polygon class="st1" points="124.6,55.1 115.3,42.9 123.4,42.9 128.1,49.7 133,42.9 140,42.9 131.7,55.1 141,67.1 133.8,67 
		127.8,58.8 122.5,67.1 114.8,67.1 	"/>
</g>
</svg>
