<?xml version="1.0" encoding="utf-8"?>
<!-- Generator: Adobe Illustrator 20.1.0, SVG Export Plug-In . SVG Version: 6.00 Build 0)  -->
<!DOCTYPE svg PUBLIC "-//W3C//DTD SVG 1.1//EN" "http://www.w3.org/Graphics/SVG/1.1/DTD/svg11.dtd">
<svg version="1.1" id="Слой_1" xmlns="http://www.w3.org/2000/svg" xmlns:xlink="http://www.w3.org/1999/xlink" x="0px" y="0px"
	 viewBox="0 0 165 110" style="enable-background:new 0 0 165 110;" xml:space="preserve">
<style type="text/css">
	.st0{fill:#FFFFFF;}
	.st1{fill-rule:evenodd;clip-rule:evenodd;fill:#D0BA93;}
</style>
<rect class="st0" width="165" height="110"/>
<g id="XMLID_44_">
	<path id="XMLID_60_" class="st1" d="M53.4,60.1c-0.7,0-1.2,0.5-1.2,1.2c0,0.7,0.5,1.2,1.2,1.2c0.7,0,1.2-0.5,1.2-1.2
		C54.6,60.6,54.1,60.1,53.4,60.1L53.4,60.1z M53.4,62.2c-0.5,0-0.9-0.4-0.9-0.9s0.4-0.9,0.9-0.9c0.5,0,0.9,0.4,0.9,0.9
		C54.2,61.8,53.9,62.2,53.4,62.2L53.4,62.2z"/>
	<polygon id="XMLID_40_" class="st1" points="65.5,55.9 59.4,55.9 60.1,45.4 56.2,55.9 50.5,55.9 59.5,32.2 65.4,32.2 64.7,42.8 
		68.8,32.2 74.4,32.2 65.5,55.9 	"/>
	<polygon id="XMLID_39_" class="st1" points="66.2,55.9 75.1,32.2 80.7,32.2 71.8,55.9 66.2,55.9 	"/>
	<path id="XMLID_38_" class="st1" d="M49.9,47.7C42,57,34.6,69.2,41.2,74.9c6.3,5.5,14.3,2.2,19.7,0.1c5.4-2.2,65.1-28.1,65.1-28.1
		c0.6-0.3,0.5-0.6-0.3-0.5c-0.3,0.1-65,17.6-65,17.6C52.5,66.3,43.1,61.3,49.9,47.7L49.9,47.7z"/>
	<path id="XMLID_54_" class="st1" d="M53.6,61.4c0.2,0,0.3-0.1,0.3-0.3c0-0.3-0.2-0.4-0.5-0.4h-0.5V62h0.3v-0.5h0.1l0.3,0.5h0.4
		L53.6,61.4L53.6,61.4z M53.4,61.2h-0.2v-0.3h0.2c0.1,0,0.2,0,0.2,0.1C53.5,61.2,53.5,61.2,53.4,61.2L53.4,61.2z"/>
	<path id="XMLID_51_" class="st1" d="M109.8,32.1c-0.7,0-1.2,0.5-1.2,1.2c0,0.7,0.5,1.2,1.2,1.2c0.7,0,1.2-0.5,1.2-1.2
		C111.1,32.6,110.5,32.1,109.8,32.1L109.8,32.1z M109.8,34.2c-0.5,0-0.9-0.4-0.9-0.9c0-0.5,0.4-0.9,0.9-0.9c0.5,0,0.9,0.4,0.9,0.9
		C110.7,33.8,110.3,34.2,109.8,34.2L109.8,34.2z"/>
	<path id="XMLID_48_" class="st1" d="M110.1,33.4c0.2,0,0.3-0.1,0.3-0.3c0-0.3-0.2-0.4-0.5-0.4h-0.5v1.3h0.3v-0.5h0.1l0.3,0.5h0.4
		L110.1,33.4L110.1,33.4z M109.8,33.2h-0.2v-0.3h0.2c0.1,0,0.2,0,0.2,0.1C110,33.1,110,33.2,109.8,33.2L109.8,33.2z"/>
	<path id="XMLID_45_" class="st1" d="M106.1,36.1l1.5-4H96.4h-0.1h-5.8l-5.9,7.1l2.7-7.1h-5.7l-8.8,23.8h5.6l3.8-9.9l0.3,9.9l17.2,0
		l1.6-4.6h-6.6l2.2-5.8h5.4l1.7-4.4h-5.4l1.9-5H106.1L106.1,36.1z M88,54.4L87.7,42l8.5-9.3L88,54.4L88,54.4z"/>
</g>
</svg>
