<?xml version="1.0" encoding="utf-8"?>
<!-- Generator: Adobe Illustrator 20.1.0, SVG Export Plug-In . SVG Version: 6.00 Build 0)  -->
<!DOCTYPE svg PUBLIC "-//W3C//DTD SVG 1.1//EN" "http://www.w3.org/Graphics/SVG/1.1/DTD/svg11.dtd">
<svg version="1.1" id="Слой_1" xmlns="http://www.w3.org/2000/svg" xmlns:xlink="http://www.w3.org/1999/xlink" x="0px" y="0px"
	 viewBox="0 0 165 110" style="enable-background:new 0 0 165 110;" xml:space="preserve">
<style type="text/css">
	.st0{fill:#FFFFFF;}
	.st1{fill-rule:evenodd;clip-rule:evenodd;fill:#D0BA93;}
</style>
<rect class="st0" width="165" height="110"/>
<path id="XMLID_78_" class="st1" d="M39.5,63.4H18.9v-0.6l15.4-15.1H28h-6.4l-0.4,3.8h-0.9l0.4-4.4H40v0.4L24.3,62.7l14.2,0l0.4-4.7
	H40L39.5,63.4L39.5,63.4z M135,58.3L135,58.3h-8.5l-2.7,4.5h5v0.6h-9.7v-0.6h3.7l9.8-16.1h0.6l9.4,16.1h3.6v0.6h-12.8v-0.6h4.3
	L135,58.3L135,58.3z M126.8,57.6L126.8,57.6h7.8l-3.8-6.5h-0.1L126.8,57.6L126.8,57.6z M63.8,58.3L63.8,58.3h-8.5l-2.8,4.5h5v0.6
	h-9.7v-0.6h3.7l9.8-16.1h0.6l9.4,16.1h3.6v0.6H62.1v-0.6h4.3L63.8,58.3L63.8,58.3z M55.5,57.6L55.5,57.6h7.8l-3.8-6.5h-0.1
	L55.5,57.6L55.5,57.6z M88.1,62.7L88.1,62.7V47.6h-4.2V47h14.7l5.3,0c2.8,0,3.6,2.2,3.6,3.7c0,2-0.5,3.7-3.5,4.2c-0.1,0-0.5,0-1,0.1
	l4.5,7.7h3.6v0.6h-8.1l-4.9-8.3l-5.1,0v7.7h4.2v0.6H83.8v-0.6H88.1L88.1,62.7z M92.8,47.6L92.8,47.6v6.8l4.7,0c1,0,1.8-0.1,2.4-0.2
	c0.8-0.1,1.5-0.5,1.9-1c0.5-0.5,0.7-1.4,0.7-2.5c0-0.9-0.2-1.6-0.7-2.1c-0.5-0.4-1.1-0.7-1.8-0.8c-0.7-0.1-1.6-0.1-2.8-0.1H92.8z"/>
</svg>
