<?xml version="1.0" encoding="UTF-8" standalone="no"?>
<svg width="314px" height="364px" viewBox="0 0 314 364" version="1.1" xmlns="http://www.w3.org/2000/svg" xmlns:xlink="http://www.w3.org/1999/xlink">
    <!-- Generator: sketchtool 40.1 (33804) - http://www.bohemiancoding.com/sketch -->
    <title>D1B833C6-0170-4D9A-A85B-7EB0DD089907</title>
    <desc>Created with sketchtool.</desc>
    <defs></defs>
    <g id="Page-1" stroke="none" stroke-width="1" fill="none" fill-rule="evenodd" opacity="0.300000012">
        <g id="Lookpage" transform="translate(-543.000000, -2425.000000)" fill="#FFFFFF">
            <path d="M764.826324,2425 C679.587531,2425 609.332121,2490.26095 609.332121,2550.19448 C609.332121,2588.48534 637.967027,2596.80944 660.275618,2596.80944 C682.917172,2596.80944 710.886151,2587.81941 736.191417,2563.846 L727.867316,2554.52301 C706.890582,2572.83603 690.24238,2582.49199 665.270078,2582.49199 C636.635171,2582.49199 625.647358,2571.50417 625.647358,2549.52855 C625.647358,2495.25541 692.573129,2439.98338 742.18477,2439.98338 C776.813029,2439.98338 794.793087,2463.62383 794.793087,2499.91691 C794.793087,2614.45653 614.659545,2717.34242 546.401918,2770.61667 L543.072278,2784.93412 C568.377545,2774.27927 587.02353,2768.28592 615.991401,2768.28592 C669.59861,2768.28592 704.892798,2788.92969 750.50887,2788.92969 C811.108324,2788.92969 835.747663,2753.6355 835.747663,2718.00835 C835.747663,2691.37123 821.430209,2675.05599 798.122727,2664.40114 L789.132698,2673.0582 C808.444612,2682.04823 819.099461,2694.3679 819.099461,2712.015 C819.099461,2733.65766 802.784223,2744.64547 772.151532,2744.64547 C731.862885,2744.64547 665.936006,2725.66652 627.645142,2725.66652 C683.5831,2679.38452 856.724397,2585.1557 856.724397,2492.25873 C856.724397,2448.64045 819.765389,2425 764.826324,2425 L764.826324,2425 Z" id="2"></path>
        </g>
    </g>
</svg>