<?xml version="1.0" encoding="UTF-8" standalone="no"?>
<svg width="282px" height="371px" viewBox="0 0 282 371" version="1.1" xmlns="http://www.w3.org/2000/svg" xmlns:xlink="http://www.w3.org/1999/xlink">
    <!-- Generator: sketchtool 40.1 (33804) - http://www.bohemiancoding.com/sketch -->
    <title>D3B0F92E-AB37-4F03-A04E-83E3E1D9AC24</title>
    <desc>Created with sketchtool.</desc>
    <defs></defs>
    <g id="Page-1" stroke="none" stroke-width="1" fill="none" fill-rule="evenodd" opacity="0.200000018">
        <g id="Lookpage" transform="translate(-539.000000, -3496.000000)" fill="#FFFFFF">
            <path d="M746.937282,3496.5 C681.768373,3496.5 628.520606,3540.21085 628.520606,3579.94799 C628.520606,3610.41313 651.303232,3616.77108 669.317402,3616.77108 C682.298201,3616.77108 697.398314,3613.5921 712.763342,3605.37976 L706.670314,3597.16742 C696.338657,3602.73062 686.007001,3605.37976 673.026202,3605.37976 C650.243575,3605.37976 641.501405,3596.63759 641.501405,3579.41816 C641.501405,3544.18457 691.570201,3508.42114 728.923112,3508.42114 C756.474195,3508.42114 773.428708,3526.70023 773.428708,3557.16537 C773.428708,3597.69725 736.075797,3632.66593 693.689515,3648.8257 C689.980715,3648.56079 686.53683,3648.56079 683.092944,3648.56079 C669.317402,3648.56079 658.985746,3650.6801 657.396261,3658.62753 C657.131346,3659.68719 656.866432,3660.48193 656.866432,3661.27667 C656.866432,3665.5153 661.634889,3666.83987 666.403345,3666.83987 C675.675345,3666.83987 686.007001,3662.33633 697.928143,3657.56787 C727.333626,3659.15736 744.023225,3678.23119 744.023225,3706.84193 C744.023225,3801.94615 627.990777,3851.2202 541.628727,3856.51848 L538.979585,3866.32031 C639.382091,3864.73083 794.621849,3810.4234 794.621849,3710.55073 C794.621849,3670.54867 755.944367,3649.88536 707.729971,3648.8257 C755.944367,3636.37473 820.053619,3599.55165 820.053619,3550.01268 C820.053619,3515.30891 790.648135,3496.5 746.937282,3496.5 L746.937282,3496.5 Z" id="3"></path>
        </g>
    </g>
</svg>