<?xml version="1.0" encoding="UTF-8" standalone="no"?>
<svg width="48px" height="48px" viewBox="0 0 48 48" version="1.1" xmlns="http://www.w3.org/2000/svg" xmlns:xlink="http://www.w3.org/1999/xlink">
    <!-- Generator: sketchtool 40.1 (33804) - http://www.bohemiancoding.com/sketch -->
    <title>DEE93C84-44A0-4709-A32D-2DF264D369EB</title>
    <desc>Created with sketchtool.</desc>
    <defs></defs>
    <g id="Page-1" stroke="none" stroke-width="1" fill="none" fill-rule="evenodd">
        <g id="Lookpage" transform="translate(-1312.000000, -3393.000000)" fill="#FFCDCD">
            <g id="FB" transform="translate(1312.000000, 3393.000000)">
                <path d="M23.9870445,47.2615385 C37.2347234,47.2615385 47.9740891,36.6816827 47.9740891,23.6307692 C47.9740891,10.5798558 37.2347234,0 23.9870445,0 C10.7393656,0 0,10.5798558 0,23.6307692 C0,36.6816827 10.7393656,47.2615385 23.9870445,47.2615385 Z M25.9227636,34.5062937 L21.2695158,34.5062937 L21.2695158,23.6965377 L18.9443136,23.6965377 L18.9443136,19.9718585 L21.2695158,19.9718585 L21.2695158,17.7356866 C21.2695158,14.6972761 22.5817516,12.8895105 26.3123113,12.8895105 L29.41732,12.8895105 L29.41732,16.6155541 L27.4766896,16.6155541 C26.0244156,16.6155541 25.9284504,17.1360542 25.9284504,18.1074723 L25.9220527,19.9718585 L29.4386456,19.9718585 L29.0270613,23.6965377 L25.9220527,23.6965377 L25.9220527,34.5062937 L25.9227636,34.5062937 Z" id="Combined-Shape"></path>
            </g>
        </g>
    </g>
</svg>