<?xml version="1.0" encoding="UTF-8" standalone="no"?>
<svg width="48px" height="48px" viewBox="0 0 48 48" version="1.1" xmlns="http://www.w3.org/2000/svg" xmlns:xlink="http://www.w3.org/1999/xlink">
    <!-- Generator: sketchtool 40.1 (33804) - http://www.bohemiancoding.com/sketch -->
    <title>67A650A6-220A-4A0C-B737-08244BB5C89B</title>
    <desc>Created with sketchtool.</desc>
    <defs></defs>
    <g id="Page-1" stroke="none" stroke-width="1" fill="none" fill-rule="evenodd">
        <g id="Lookpage" transform="translate(-1333.000000, -3999.000000)" fill="#262222">
            <g id="Insta" transform="translate(1333.000000, 3999.000000)">
                <path d="M23.9870445,47.2615385 C37.2347234,47.2615385 47.9740891,36.6816827 47.9740891,23.6307692 C47.9740891,10.5798558 37.2347234,0 23.9870445,0 C10.7393656,0 0,10.5798558 0,23.6307692 C0,36.6816827 10.7393656,47.2615385 23.9870445,47.2615385 Z M29.8119632,11.2207792 L18.8041331,11.2207792 C14.9601289,11.2207792 11.8441558,14.3424488 11.8441558,18.1643059 L11.8441558,29.19226 C11.8441558,33.0141171 14.9601289,36.1357867 18.7750118,36.1357867 L29.8119632,36.1357867 C33.6268461,36.1357867 36.7428192,33.0141171 36.7428192,29.19226 L36.7428192,18.1643059 C36.7428192,14.3424488 33.6268461,11.2207792 29.8119632,11.2207792 Z" id="Combined-Shape"></path>
                <g id="Page-1" transform="translate(13.714286, 13.090909)">
                    <path d="M20.9900464,16.1013509 C20.9900464,18.8145777 18.7768319,21.0026639 16.0976775,21.0026639 L5.08984738,21.0026639 C2.38157171,21.0026639 0.197478434,18.7854033 0.197478434,16.1013509 L0.197478434,5.0733968 C0.197478434,2.36016999 2.41069296,0.172083858 5.08984738,0.172083858 L16.0976775,0.172083858 C18.8059532,0.172083858 20.9900464,2.38934448 20.9900464,5.0733968 L20.9900464,16.1013509 Z M10.5937624,4.13981339 C7.04097071,4.13981339 4.15796758,7.05726157 4.15796758,10.5873739 C4.15796758,14.1466607 7.04097071,17.0349344 10.5937624,17.0349344 C14.1465542,17.0349344 17.0295573,14.1466607 17.0295573,10.5873739 C17.0295573,7.05726157 14.1465542,4.13981339 10.5937624,4.13981339 Z M17.2042848,2.36016999 C18.1210124,2.36016999 18.8641957,3.10471189 18.8641957,4.02311546 C18.8641957,4.94151903 18.1210124,5.68606092 17.2042848,5.68606092 C16.2875571,5.68606092 15.5443739,4.94151903 15.5443739,4.02311546 C15.5443739,3.10471189 16.2875571,2.36016999 17.2042848,2.36016999 Z" id="Combined-Shape"></path>
                    <path d="M10.5937624,14.9927206 C8.17669921,14.9927206 6.19645464,13.0088559 6.19645464,10.5873739 C6.19645464,8.16589188 8.17669921,6.18202711 10.5937624,6.18202711 C13.0108257,6.18202711 14.9910702,8.16589188 14.9910702,10.5873739 C14.9910702,13.0088559 13.0108257,14.9927206 10.5937624,14.9927206" id="Fill-3"></path>
                </g>
            </g>
        </g>
    </g>
</svg>