<?xml version="1.0" encoding="UTF-8" standalone="no"?>
<svg width="79px" height="42px" viewBox="0 0 79 42" version="1.1" xmlns="http://www.w3.org/2000/svg" xmlns:xlink="http://www.w3.org/1999/xlink">
    <!-- Generator: sketchtool 40.1 (33804) - http://www.bohemiancoding.com/sketch -->
    <title>E6382957-9434-4C61-8C83-90A4FBDEA7E8</title>
    <desc>Created with sketchtool.</desc>
    <defs></defs>
    <g id="Page-1" stroke="none" stroke-width="1" fill="none" fill-rule="evenodd">
        <g id="Lookpage" transform="translate(-1149.000000, -2878.000000)" fill="#262222">
            <g id="Logo" transform="translate(1149.000000, 2878.000000)">
                <path d="M39.5,20.179523 L5.0288887,31.5695638 C3.27586191,32.137731 2.10333465,33.7655243 2.10333465,35.6211861 C2.10333465,37.9660507 3.98949331,39.8736034 6.30851645,39.8736034 L72.6922273,39.8736034 C75.0119942,39.8736034 76.897781,37.9660507 76.897781,35.6211861 C76.897781,33.7643962 75.7241381,32.1366029 73.9774332,31.5714439 L39.5,20.179523 Z M72.6922273,42 L6.30851645,42 C2.83109737,42 0,39.138483 0,35.6211861 C0,32.8360013 1.7608362,30.3952514 4.38182323,29.5458208 L38.4483327,18.2900193 L38.4457295,16.0861624 C38.4457295,14.3812849 39.1024638,12.779061 40.2935849,11.574667 L42.4582792,9.38585088 C43.2526078,8.58267082 43.689563,7.51514826 43.689563,6.37881392 C43.689563,4.03394929 41.8034043,2.12677267 39.4832655,2.12677267 C37.1642424,2.12677267 35.2780838,4.03394929 35.2780838,6.37881392 L33.1754929,6.37881392 C33.1754929,2.86151697 36.0054746,0 39.4832655,0 C42.9618003,0 45.791782,2.86151697 45.791782,6.37881392 C45.791782,8.08218737 45.1354196,9.68403524 43.9442985,10.8884293 L41.780348,13.0772454 C40.9852756,13.8804254 40.5490642,14.948324 40.5490642,16.0842823 L40.5505517,18.2888913 L74.6248705,29.5484529 C77.2399075,30.3960034 79,32.8371294 79,35.6219381 C79,39.1396111 76.170762,42 72.6922273,42 L72.6922273,42 Z" id="Fill-1-Copy-2"></path>
                <path d="M40.8897374,24.4609693 C40.8897374,23.6542474 40.2427001,23 39.4448687,23 C38.6470373,23 38,23.6542474 38,24.4609693 C38,25.2676911 38.6470373,25.9219386 39.4448687,25.9219386 C40.2427001,25.9219386 40.8897374,25.2676911 40.8897374,24.4609693" id="Fill-4-Copy-2"></path>
            </g>
        </g>
    </g>
</svg>