<?xml version="1.0" encoding="UTF-8" standalone="no"?>
<svg width="936px" height="495px" viewBox="0 0 936 495" version="1.1" xmlns="http://www.w3.org/2000/svg" xmlns:xlink="http://www.w3.org/1999/xlink">
    <!-- Generator: sketchtool 40.1 (33804) - http://www.bohemiancoding.com/sketch -->
    <title>87C80490-841D-426A-AAFC-AEA7718D46A9</title>
    <desc>Created with sketchtool.</desc>
    <defs></defs>
    <g id="Page-1" stroke="none" stroke-width="1" fill="none" fill-rule="evenodd">
        <g id="Lookpage" transform="translate(-232.000000, -65.000000)" fill="#FFFFFF">
            <g id="Logo" transform="translate(232.000000, 65.000000)">
                <path d="M467.714844,237.552735 L59.8319763,371.487915 C39.0891116,378.168977 25.2150658,397.310154 25.2150658,419.13083 C25.2150658,446.704029 47.5332265,469.134889 74.9732994,469.134889 L860.465189,469.134889 C887.914062,469.134889 910.227823,446.704029 910.227823,419.13083 C910.227823,397.296889 896.340576,378.155712 875.672516,371.510023 L467.714844,237.552735 Z M860.465189,494.139129 L74.9732994,494.139129 C33.8263908,494.139129 0.327148438,460.490629 0.327148438,419.13083 C0.327148438,386.379918 21.1624187,357.679207 52.1755095,347.690776 L455.270885,215.334114 L455.240083,189.419021 C455.240083,169.371412 463.010957,150.530905 477.105016,136.368468 L502.718978,110.63024 C512.117951,101.185667 517.288266,88.6326988 517.288266,75.2705744 C517.288266,47.6973752 494.970105,25.2709374 467.516832,25.2709374 C440.076759,25.2709374 417.758598,47.6973752 417.758598,75.2705744 L392.879481,75.2705744 C392.879481,33.9107756 426.365523,0.262275645 467.516832,0.262275645 C508.676941,0.262275645 542.162983,33.9107756 542.162983,75.2705744 C542.162983,95.3004962 534.396509,114.136582 520.30245,128.299019 L494.697289,154.037247 C485.289515,163.481819 480.128001,176.03921 480.128001,189.396912 L480.145602,215.320849 L883.333383,347.721727 C914.276069,357.68805 935.102539,386.393183 935.102539,419.139673 C935.102539,460.503894 901.625298,494.139129 860.465189,494.139129 L860.465189,494.139129 Z" id="Fill-1"></path>
                <path d="M485.301559,292.44672 C485.301559,282.960499 477.645426,275.267222 468.205006,275.267222 C458.764586,275.267222 451.108452,282.960499 451.108452,292.44672 C451.108452,301.93294 458.764586,309.626218 468.205006,309.626218 C477.645426,309.626218 485.301559,301.93294 485.301559,292.44672" id="Fill-4"></path>
            </g>
        </g>
    </g>
</svg>