<?xml version="1.0" encoding="UTF-8" standalone="no"?>
<svg width="48px" height="48px" viewBox="0 0 48 48" version="1.1" xmlns="http://www.w3.org/2000/svg" xmlns:xlink="http://www.w3.org/1999/xlink">
    <!-- Generator: sketchtool 40.1 (33804) - http://www.bohemiancoding.com/sketch -->
    <title>CFCC3338-D944-4BBD-B51D-35852868D0EC</title>
    <desc>Created with sketchtool.</desc>
    <defs></defs>
    <g id="Page-1" stroke="none" stroke-width="1" fill="none" fill-rule="evenodd">
        <g id="Lookpage" transform="translate(-1221.000000, -3999.000000)" fill="#262222">
            <g id="vk" transform="translate(1221.000000, 3999.000000)">
                <path d="M23.9870445,47.2615385 C37.2347234,47.2615385 47.9740891,36.6816827 47.9740891,23.6307692 C47.9740891,10.5798558 37.2347234,0 23.9870445,0 C10.7393656,0 0,10.5798558 0,23.6307692 C0,36.6816827 10.7393656,47.2615385 23.9870445,47.2615385 Z M23.9540439,31.3248472 C23.9540439,31.3248472 24.4188848,31.2749018 24.656974,31.0276109 C24.8749075,30.8010291 24.8673491,30.3734473 24.8673491,30.3734473 C24.8673491,30.3734473 24.8383753,28.3768475 25.7970308,28.0820476 C26.7418293,27.7921203 27.9549505,30.0128655 29.2423959,30.8668109 C30.2149085,31.5124472 30.953111,31.3711381 30.953111,31.3711381 L34.3934372,31.3248472 C34.3934372,31.3248472 36.1923335,31.2176472 35.3394954,29.8496292 C35.2689505,29.7375565 34.8419015,28.8373202 32.7822409,26.9881204 C30.6243211,25.0524297 30.9140593,25.3655024 33.5116253,22.0167209 C35.0938478,19.9774847 35.7262329,18.7325031 35.5284551,18.2001577 C35.3407551,17.6909577 34.1767634,17.8261759 34.1767634,17.8261759 L30.3043494,17.8493213 C30.3043494,17.8493213 30.0171307,17.8115577 29.8042361,17.934594 C29.5963804,18.055194 29.4615892,18.336594 29.4615892,18.336594 C29.4615892,18.336594 28.8493597,19.9141393 28.0317941,21.2565755 C26.307222,24.0876298 25.618149,24.2374661 25.3359691,24.062048 C24.6796491,23.6515207 24.8434142,22.4150663 24.8434142,21.5367573 C24.8434142,18.792194 25.2742423,17.6483213 24.0056929,17.3523032 C23.5849426,17.2536305 23.2750487,17.1890668 22.1979785,17.1781032 C20.8160532,17.1647032 19.6470226,17.1829759 18.9844039,17.4960486 C18.543498,17.7043577 18.2033705,18.1697031 18.4112262,18.1965031 C18.6669516,18.229394 19.246428,18.3475576 19.5538025,18.751994 C19.9506178,19.2745939 19.9367608,20.4464847 19.9367608,20.4464847 C19.9367608,20.4464847 20.1647721,23.6771026 19.4038944,24.0778843 C18.8823657,24.3531934 18.1668383,23.7916116 16.6287064,21.2224664 C15.8413743,19.9068302 15.2467811,18.4523213 15.2467811,18.4523213 C15.2467811,18.4523213 15.1321456,18.1806667 14.9268094,18.0344849 C14.6786423,17.8578486 14.3322162,17.8030304 14.3322162,17.8030304 L10.6525411,17.8261759 C10.6525411,17.8261759 10.099519,17.8407941 9.8967023,18.0734668 C9.71656072,18.2793395 9.88284525,18.7069212 9.88284525,18.7069212 C9.88284525,18.7069212 12.7638507,25.2254115 16.0265548,28.5108475 C19.0184167,31.5221927 22.4146522,31.3248472 22.4146522,31.3248472 L23.9540439,31.3248472 Z" id="Combined-Shape"></path>
            </g>
        </g>
    </g>
</svg>