<?xml version="1.0" encoding="utf-8"?><svg xmlns="http://www.w3.org/2000/svg" xmlns:xlink="http://www.w3.org/1999/xlink"><symbol viewBox="-293 385 24 24" id="arrow"><path d="M-293 397l11 11 2.8-2.8-6.2-6.2h16.4v-4h-16.4l6.2-6.2-2.8-2.8-11 11z"/></symbol><symbol viewBox="-293 385 24 24" id="arrow-left"><path d="M-283 399.8s8.9-.2 14 5.2c-2.4-10.4-14-13-14-13v-3l-10 6.9 10 7.1v-3.2z"/></symbol><symbol viewBox="-293 385 24 24" id="arrow-right"><path d="M-279 403l10-7.1-10-6.9v3s-11.6 2.6-14 13c5.1-5.4 14-5.2 14-5.2v3.2z"/></symbol><symbol viewBox="0 0 522.468 522.469" id="code"><path d="M325.762 70.513l-17.706-4.854c-2.279-.76-4.524-.521-6.707.715-2.19 1.237-3.669 3.094-4.429 5.568L190.426 440.53c-.76 2.475-.522 4.809.715 6.995 1.237 2.19 3.09 3.665 5.568 4.425l17.701 4.856c2.284.766 4.521.526 6.71-.712 2.19-1.243 3.666-3.094 4.425-5.564L332.042 81.936c.759-2.474.523-4.808-.716-6.999-1.238-2.19-3.089-3.665-5.564-4.424zm-159.595 71.952c0-2.474-.953-4.665-2.856-6.567l-14.277-14.276c-1.903-1.903-4.093-2.857-6.567-2.857s-4.665.955-6.567 2.857L2.856 254.666C.95 256.569 0 258.759 0 261.233s.953 4.664 2.856 6.566l133.043 133.044c1.902 1.906 4.089 2.854 6.567 2.854s4.665-.951 6.567-2.854l14.277-14.268c1.903-1.902 2.856-4.093 2.856-6.57 0-2.471-.953-4.661-2.856-6.563L51.107 261.233l112.204-112.201c1.906-1.902 2.856-4.093 2.856-6.567zm353.447 112.198L386.567 121.619c-1.902-1.902-4.093-2.857-6.563-2.857-2.478 0-4.661.955-6.57 2.857l-14.271 14.275c-1.902 1.903-2.851 4.09-2.851 6.567s.948 4.665 2.851 6.567l112.206 112.204-112.206 112.21c-1.902 1.902-2.851 4.093-2.851 6.563 0 2.478.948 4.668 2.851 6.57l14.271 14.268c1.909 1.906 4.093 2.854 6.57 2.854 2.471 0 4.661-.951 6.563-2.854L519.614 267.8c1.903-1.902 2.854-4.096 2.854-6.57 0-2.475-.951-4.665-2.854-6.567z"/></symbol><symbol viewBox="0 0 54.953 54.953" id="layers"><path d="M45.297 21.946l9.656-5.517L27.477.825 0 16.429l9.656 5.517L0 27.429l9.656 5.517L0 38.429l27.477 15.698 27.476-15.698-9.656-5.483 9.656-5.517-9.656-5.483zM27.477 3.125l23.435 13.309-23.435 13.39-23.436-13.39L27.477 3.125zM11.675 23.099l15.802 9.028 15.802-9.028 7.633 4.335-23.435 13.39-23.436-13.39 7.634-4.335zm39.237 15.335l-23.435 13.39-23.436-13.39 7.634-4.335 15.802 9.028 15.802-9.028 7.633 4.335z"/></symbol><symbol viewBox="0 0 40 40" id="logo-codepen"><path d="M9.8 18.2v3.6l2.6-1.8zm9.1-2.6v-4.9l-8.3 5.5 3.7 2.5zm10.5.6l-8.3-5.5v4.9l4.6 3.1zm-18.8 7.6l8.3 5.5v-4.9l-4.6-3.1zm10.5.6v4.9l8.3-5.5-3.7-2.5zM20 17.5L16.2 20l3.8 2.5 3.8-2.5z"/><path d="M20 0C9 0 0 9 0 20s9 20 20 20 20-9 20-20S31 0 20 0zm12.4 23.8v.7l-.1.1-.1.1-11.3 7.5c-.2.1-.4.2-.6.2-.2 0-.4-.1-.6-.2L8.1 24.7l-.1-.1-.1-.1V15.6l.1-.1.1-.1 11.3-7.5c.4-.2.8-.2 1.2 0l11.3 7.5.1.1.1.1v8.2z"/><path d="M30.2 21.8v-3.6L27.6 20z"/></symbol><symbol viewBox="0 0 49.652 49.652" id="logo-facebook"><path d="M24.826 0C11.137 0 0 11.137 0 24.826c0 13.688 11.137 24.826 24.826 24.826 13.688 0 24.826-11.138 24.826-24.826C49.652 11.137 38.516 0 24.826 0zM31 25.7h-4.039v14.396h-5.985V25.7h-2.845v-5.088h2.845v-3.291c0-2.357 1.12-6.04 6.04-6.04l4.435.017v4.939h-3.219c-.524 0-1.269.262-1.269 1.386v2.99h4.56L31 25.7z"/></symbol><symbol viewBox="0 0 40 40" id="logo-github"><path fill-rule="evenodd" clip-rule="evenodd" d="M20 0C8.954 0 0 8.954 0 20s8.954 20 20 20 20-8.954 20-20S31.046 0 20 0zm2.991 27.42c.593.508 1.118 1.514 1.118 3.053 0 2.207-.019 3.984-.019 4.527h-8.179c0-.393-.014-1.43-.022-2.807-4.589.996-5.558-2.211-5.558-2.211-.749-1.906-1.831-2.414-1.831-2.414-1.498-1.023.113-1.002.113-1.002 1.656.117 2.527 1.699 2.527 1.699 1.472 2.521 3.861 1.795 4.8 1.371.151-1.066.577-1.793 1.049-2.205-3.664-.416-7.515-1.832-7.515-8.154 0-1.801.643-3.273 1.698-4.426-.17-.418-.736-2.095.162-4.366 0 0 1.385-.443 4.537 1.691A15.78 15.78 0 0 1 20 11.621c1.402.006 2.813.189 4.131.555 3.152-2.135 4.534-1.691 4.534-1.691.898 2.271.333 3.948.164 4.366 1.057 1.152 1.696 2.625 1.696 4.426 0 6.338-3.858 7.733-7.534 8.143z"/></symbol><symbol viewBox="0 0 40 40" id="logo-linkedin"><path d="M20 0C9 0 0 9 0 20s9 20 20 20 20-9 20-20S31 0 20 0zm-5 29h-4V16h4v13zm-2.2-14.2v.2c-1.4 0-2.3-1.1-2.3-2.3 0-1.2.9-2.2 2.3-2.2s2.3 1 2.3 2.2c.1 1.1-.8 2.1-2.3 2.1zM30 29h-4v-6.8c0-1.7-.8-2.8-2.3-2.8-1.1 0-2.1.8-2.4 1.5-.1.3-.4.6-.4 1V29h-3.8s.1-11 0-13H21v2.2c1-.9 1.8-2.1 4-2.1 2.7 0 5 1.8 5 5.6V29z"/></symbol><symbol viewBox="0 0 24 24" id="logo-vk"><path d="M12 0C5.373 0 0 5.373 0 12s5.373 12 12 12 12-5.373 12-12S18.627 0 12 0zm6.344 16.163h-1.867c-1.055 0-1.232-.601-2.102-1.469-.785-.785-1.22-.183-1.202.935.006.297-.141.534-.495.534-1.105 0-2.694.156-4.304-1.58C6.727 12.804 5 9.235 5 8.884c0-.208.172-.301.459-.301h1.898c.503 0 .545.249.686.568.584 1.331 1.981 4.002 2.354 2.511.214-.856.301-2.839-.615-3.01-.52-.096.396-.652 1.722-.652.33 0 .688.035 1.054.12.673.156.676.458.666.898-.034 1.666-.235 2.786.204 3.069.419.271 1.521-1.502 2.104-2.871.159-.378.191-.632.643-.632h2.322c1.216 0-.159 1.748-1.21 3.112-.847 1.099-.802 1.12.183 2.034.701.651 1.53 1.54 1.53 2.043 0 .238-.186.39-.656.39z"/></symbol><symbol viewBox="0 0 512.32 512.32" id="marker"><path d="M509.76 95.733l-90.453-89.6c-3.413-3.413-9.387-3.413-12.8 0l-17.92 17.92c-3.413-3.413-8.533-3.413-11.947 0L63.467 338.08c-1.833 1.833-2.672 4.159-2.536 6.448-.005.127-.024.252-.024.379l1.707 15.36c2.56 29.867-7.68 58.88-29.013 80.213-1.707 1.707-2.56 3.413-2.56 5.973 0 2.34.722 3.967 2.148 5.532L2.88 482.293C.32 484-.533 487.413.32 489.973s3.413 5.12 5.973 5.973l35.84 11.947c.853.853 1.707.853 2.56.853 2.56 0 5.12-.853 5.973-2.56l18.347-18.347.427.427c1.707 1.707 3.413 2.56 5.973 2.56 1.707 0 4.267-.853 5.973-2.56L84.8 484c19.627-19.627 44.373-29.867 71.68-29.867h11.638c1.069.563 2.253.853 3.722.853 2.56 0 4.267-1.707 5.973-2.56L490.987 138.4c3.413-3.413 3.413-8.533 0-11.947l18.773-18.773c3.413-3.413 3.413-8.533 0-11.947zm-127.147-53.76l90.878 90.029L171.84 433.653 81.387 343.2 382.613 41.973zM57.493 476.32l-14.507 14.507-17.92-5.973 20.48-20.48 5.973 5.973 5.974 5.973zm17.92-5.973L50.667 445.6c19.627-22.187 29.867-50.347 29.013-79.36l71.68 71.68c-28.16.853-55.467 12.8-75.947 32.427zm404.48-355.84L401.387 36l11.947-11.947 78.507 78.507-11.948 11.947z"/><path d="M153.92 319.307c1.707 1.707 3.413 2.56 5.973 2.56 1.707 0 4.267-.853 5.973-2.56l204.8-204.8c3.413-3.413 3.413-8.533 0-11.947-3.413-3.413-8.533-3.413-11.947 0l-204.8 204.8c-3.412 3.413-3.412 8.533.001 11.947zm41.813 41.813c1.707 1.707 3.413 2.56 5.973 2.56s4.267-.853 5.973-2.56l204.8-204.8c3.413-3.413 3.413-8.533 0-11.947s-8.533-3.413-11.947 0l-204.8 204.8c-3.412 3.414-3.412 8.534.001 11.947z"/></symbol></svg>