<svg id="Layer_1" xmlns="http://www.w3.org/2000/svg" viewBox="0 0 290 291"><style>.st0{fill:#99e2e4}.st1{fill:#da7cad}.st2{fill:#f3d461}</style><ellipse transform="rotate(-53.42 76.7 44.467)" class="st0" cx="76.7" cy="44.5" rx="1.8" ry="1.8"/><ellipse transform="rotate(-42.126 163.004 170.375)" class="st0" cx="163" cy="170.4" rx="2.2" ry="2.2"/><ellipse transform="matrix(.07244 -.9974 .9974 .07244 -92.022 441.082)" class="st0" cx="191.1" cy="270" rx="4.1" ry="4.1"/><ellipse transform="rotate(-15.128 62.89 281.07)" class="st0" cx="62.9" cy="281.1" rx="2.3" ry="2.3"/><ellipse transform="rotate(-82.53 54.334 10.19)" class="st0" cx="54.3" cy="10.2" rx="1.6" ry="1.6"/><ellipse transform="rotate(-41.927 134.128 253.81)" class="st0" cx="134.1" cy="253.8" rx="3.3" ry="3.3"/><ellipse transform="rotate(-71.295 156.816 142.618)" class="st0" cx="156.8" cy="142.6" rx="4.5" ry="4.5"/><ellipse transform="rotate(-58.69 224.314 141.56)" class="st0" cx="224.3" cy="141.6" rx="1.8" ry="1.8"/><ellipse transform="rotate(-29.085 89.753 117.556)" class="st0" cx="89.8" cy="117.6" rx="3.2" ry="3.2"/><ellipse transform="rotate(-75.013 123.892 179.23)" class="st0" cx="123.9" cy="179.2" rx="1.7" ry="1.7"/><ellipse transform="rotate(-71.924 251.958 32.59)" class="st0" cx="252" cy="32.6" rx="1.6" ry="1.6"/><ellipse transform="rotate(-67.374 243.047 254.53)" class="st0" cx="243" cy="254.5" rx="4.6" ry="4.6"/><ellipse transform="rotate(-22.256 215.21 101.375)" class="st0" cx="215.2" cy="101.4" rx="2.4" ry="2.4"/><ellipse transform="rotate(-34.925 267.847 216.86)" class="st0" cx="267.9" cy="216.9" rx="4.4" ry="4.4"/><ellipse transform="rotate(-14.088 88.253 223.128)" class="st0" cx="88.2" cy="223.1" rx="1.8" ry="1.8"/><ellipse transform="rotate(-76.58 86.746 27.574)" class="st0" cx="86.7" cy="27.6" rx="1.9" ry="1.9"/><ellipse transform="rotate(-59.73 6.115 95.705)" class="st0" cx="6.1" cy="95.7" rx="1.8" ry="1.8"/><ellipse transform="rotate(-10.948 96.473 46.964)" class="st0" cx="96.5" cy="47" rx="2.1" ry="2.1"/><ellipse transform="rotate(-80.677 78.846 76.547)" class="st0" cx="78.8" cy="76.5" rx="3.5" ry="3.5"/><ellipse transform="rotate(-58.37 177.535 227.6)" class="st0" cx="177.5" cy="227.6" rx="1.7" ry="1.7"/><ellipse transform="rotate(-11.777 222.958 77.486)" class="st0" cx="222.9" cy="77.5" rx="3.9" ry="3.9"/><ellipse transform="rotate(-10.404 5.463 258.496)" class="st0" cx="5.5" cy="258.5" rx="2.2" ry="2.2"/><ellipse transform="rotate(-67.032 223.95 8.808)" class="st0" cx="223.9" cy="8.8" rx="1.7" ry="1.7"/><ellipse transform="rotate(-47.464 166.532 33.08)" class="st0" cx="166.5" cy="33.1" rx="1.7" ry="1.7"/><ellipse transform="rotate(-65.92 24.82 5.017)" class="st0" cx="24.8" cy="5" rx="3.2" ry="3.2"/><ellipse transform="rotate(-7.82 138.134 55.584)" class="st0" cx="138.2" cy="55.6" rx="1.8" ry="1.8"/><ellipse transform="rotate(-35.274 248.886 89.753)" class="st0" cx="248.9" cy="89.8" rx="3.6" ry="3.6"/><ellipse transform="rotate(-45.453 245.13 205.473)" class="st0" cx="245.1" cy="205.5" rx="2.8" ry="2.8"/><ellipse transform="rotate(-54.627 268.655 23.354)" class="st0" cx="268.6" cy="23.4" rx="4.3" ry="4.3"/><ellipse transform="rotate(-89.762 276.858 190.214)" class="st0" cx="276.9" cy="190.2" rx="4.2" ry="4.2"/><ellipse transform="rotate(-32.085 24.475 161.228)" class="st0" cx="24.5" cy="161.2" rx="3.6" ry="3.6"/><ellipse transform="rotate(-1.748 124.73 128.394)" class="st0" cx="124.7" cy="128.4" rx="4.3" ry="4.3"/><ellipse transform="rotate(-53.044 278.88 168.33)" class="st0" cx="278.9" cy="168.3" rx="1.8" ry="1.8"/><ellipse transform="rotate(-53.05 6.427 31.41)" class="st0" cx="6.4" cy="31.4" rx="1.8" ry="1.8"/><ellipse transform="rotate(-72.77 8.024 168.417)" class="st0" cx="8" cy="168.4" rx="1.7" ry="1.7"/><ellipse transform="matrix(.997 -.07772 .07772 .997 -.85 10.157)" class="st0" cx="130.1" cy="16" rx="1.9" ry="1.9"/><ellipse transform="rotate(-39.763 7.723 118.518)" class="st0" cx="7.7" cy="118.5" rx="3.7" ry="3.7"/><ellipse transform="rotate(-8.66 6.554 216.056)" class="st0" cx="6.5" cy="216" rx="2.4" ry="2.4"/><ellipse transform="rotate(-10.61 174.34 98.28)" class="st0" cx="174.4" cy="98.3" rx="2.8" ry="2.8"/><ellipse transform="rotate(-56.482 107.948 224.637)" class="st0" cx="108" cy="224.6" rx="3.2" ry="3.2"/><ellipse transform="rotate(-43.423 37.017 257.14)" class="st0" cx="37" cy="257.2" rx="3" ry="3"/><ellipse transform="rotate(-31.092 46.227 111.114)" class="st0" cx="46.2" cy="111.1" rx="3.6" ry="3.6"/><ellipse transform="rotate(-36.908 228.375 163.51)" class="st0" cx="228.4" cy="163.5" rx="4.1" ry="4.1"/><ellipse transform="rotate(-42.098 23.15 140.168)" class="st0" cx="23.1" cy="140.2" rx="3.5" ry="3.5"/><ellipse transform="rotate(-35.343 60.757 87.007)" class="st0" cx="60.8" cy="87" rx="3.2" ry="3.2"/><ellipse transform="rotate(-35.69 252.186 131.218)" class="st0" cx="252.2" cy="131.2" rx="1.7" ry="1.7"/><ellipse transform="rotate(-14.28 264.263 235.422)" class="st0" cx="264.2" cy="235.4" rx="1.9" ry="1.9"/><ellipse transform="rotate(-28.213 200.544 247.233)" class="st0" cx="200.6" cy="247.2" rx="3.9" ry="3.9"/><ellipse transform="rotate(-38.512 5.507 141.123)" class="st0" cx="5.5" cy="141.1" rx="2.7" ry="2.7"/><ellipse transform="rotate(-64.81 43.46 223.133)" class="st0" cx="43.5" cy="223.1" rx="3.3" ry="3.3"/><ellipse transform="rotate(-13.34 138.682 91.205)" class="st0" cx="138.7" cy="91.2" rx="3.3" ry="3.3"/><ellipse transform="rotate(-17.698 66.32 26.185)" class="st0" cx="66.3" cy="26.2" rx="2.8" ry="2.8"/><ellipse transform="rotate(-85.385 49.127 131.75) scale(1.00004)" class="st0" cx="49.1" cy="131.8" rx="2.9" ry="2.9"/><ellipse transform="rotate(-80.822 198.578 87.163)" class="st0" cx="198.6" cy="87.2" rx="3.5" ry="3.5"/><ellipse transform="rotate(-16.2 26.364 49.07)" class="st0" cx="26.4" cy="49.1" rx="4.2" ry="4.2"/><ellipse transform="rotate(-35.254 121.78 240.127)" class="st0" cx="121.8" cy="240.1" rx="2" ry="2"/><ellipse transform="rotate(-17.66 133.31 217.873)" class="st0" cx="133.3" cy="217.9" rx="2.4" ry="2.4"/><ellipse transform="matrix(.9998 -.01873 .01873 .9998 -3.184 .994)" class="st0" cx="51.5" cy="170.4" rx="2.2" ry="2.2"/><ellipse transform="rotate(-32.304 261.976 253.6)" class="st0" cx="262" cy="253.6" rx="3.8" ry="3.8"/><ellipse transform="rotate(-33.14 200.417 280.712)" class="st0" cx="200.4" cy="280.7" rx="1.7" ry="1.7"/><ellipse transform="rotate(-62.25 154.212 99.228)" class="st1" cx="154.2" cy="99.2" rx="3.7" ry="3.7"/><ellipse transform="rotate(-63.094 213.648 58.108)" class="st1" cx="213.6" cy="58.1" rx="2" ry="2"/><ellipse transform="rotate(-50.298 143.017 157.03)" class="st1" cx="143" cy="157" rx="4.4" ry="4.4"/><ellipse transform="rotate(-85.24 257.68 159.708) scale(.99995)" class="st1" cx="257.7" cy="159.7" rx="4.3" ry="4.3"/><ellipse transform="rotate(-83.102 224.062 222.635)" class="st1" cx="224.1" cy="222.6" rx="1.9" ry="1.9"/><ellipse transform="rotate(-36.01 26.288 118.645)" class="st1" cx="26.3" cy="118.6" rx="1.7" ry="1.7"/><ellipse transform="rotate(-86.338 209.134 38.25) scale(1.00004)" class="st1" cx="209.1" cy="38.2" rx="1.7" ry="1.7"/><ellipse transform="rotate(-44.3 247.125 275.836)" class="st1" cx="247.1" cy="275.8" rx="1.7" ry="1.7"/><ellipse transform="rotate(-2.476 243.525 228.92)" class="st1" cx="243.5" cy="228.9" rx="3.3" ry="3.3"/><ellipse transform="rotate(-86.206 279.286 280.264)" class="st1" cx="279.3" cy="280.3" rx="1.9" ry="1.9"/><ellipse transform="rotate(-27.114 221.45 277.304)" class="st1" cx="221.4" cy="277.3" rx="4" ry="4"/><ellipse transform="rotate(-71.228 71.245 126.224)" class="st1" cx="71.3" cy="126.2" rx="1.9" ry="1.9"/><ellipse transform="rotate(-47.87 223.447 202.223)" class="st1" cx="223.4" cy="202.2" rx="1.7" ry="1.7"/><ellipse transform="matrix(.9975 -.07045 .07045 .9975 -4.08 12.513)" class="st1" cx="175.4" cy="64.1" rx="1.8" ry="1.8"/><ellipse transform="rotate(-71.856 145.614 34.595)" class="st1" cx="145.6" cy="34.6" rx="2.2" ry="2.2"/><ellipse transform="rotate(-54.556 233.13 121.11)" class="st1" cx="233.1" cy="121.1" rx="2" ry="2"/><ellipse transform="rotate(-35.456 79.757 261.655)" class="st1" cx="79.8" cy="261.7" rx="4.5" ry="4.5"/><ellipse transform="rotate(-26.463 140.08 273.327)" class="st1" cx="140.1" cy="273.3" rx="1.8" ry="1.8"/><ellipse transform="rotate(-62.528 79.2 181.162)" class="st1" cx="79.2" cy="181.2" rx="4.5" ry="4.5"/><ellipse transform="rotate(-33.06 152.725 242.162)" class="st1" cx="152.7" cy="242.2" rx="3.9" ry="3.9"/><ellipse transform="rotate(-36.746 24.496 96.75)" class="st1" cx="24.5" cy="96.8" rx="3.4" ry="3.4"/><ellipse transform="rotate(-82.166 14.428 73.443)" class="st1" cx="14.4" cy="73.4" rx="1.8" ry="1.8"/><ellipse transform="rotate(-54.064 44.412 150.53)" class="st1" cx="44.4" cy="150.5" rx="3.1" ry="3.1"/><ellipse transform="rotate(-49.954 122.874 106.516)" class="st1" cx="122.9" cy="106.5" rx="4" ry="4"/><ellipse transform="rotate(-28.003 197.396 142.72)" class="st1" cx="197.4" cy="142.7" rx="1.7" ry="1.7"/><ellipse transform="rotate(-23.23 116.128 87.62)" class="st1" cx="116.1" cy="87.6" rx="2.9" ry="2.9"/><ellipse transform="rotate(-36.268 53.37 67.938)" class="st1" cx="53.4" cy="67.9" rx="4.5" ry="4.5"/><ellipse transform="rotate(-65.044 40.578 86.86)" class="st1" cx="40.6" cy="86.9" rx="4.1" ry="4.1"/><ellipse transform="rotate(-82.906 10.135 191.522)" class="st1" cx="10.1" cy="191.5" rx="2" ry="2"/><ellipse transform="rotate(-35.393 222.807 261.573)" class="st1" cx="222.8" cy="261.6" rx="1.7" ry="1.7"/><ellipse transform="rotate(-47.476 24.386 228.314)" class="st1" cx="24.4" cy="228.3" rx="1.7" ry="1.7"/><ellipse transform="matrix(.05867 -.9983 .9983 .05867 109.903 406.76)" class="st1" cx="270.6" cy="145.1" rx="2.9" ry="2.9"/><ellipse transform="rotate(-25.4 192.888 69.13)" class="st1" cx="192.9" cy="69.1" rx="2.2" ry="2.2"/><ellipse transform="matrix(.05886 -.9983 .9983 .05886 -116.174 281.696)" class="st1" cx="91.3" cy="202.5" rx="4.6" ry="4.6"/><ellipse transform="rotate(-53.815 265.277 200.3)" class="st1" cx="265.3" cy="200.3" rx="1.9" ry="1.9"/><ellipse transform="rotate(-41.976 85.842 161.856)" class="st1" cx="85.8" cy="161.9" rx="3.5" ry="3.5"/><ellipse transform="rotate(-65.6 174.306 192.676)" class="st1" cx="174.3" cy="192.7" rx="2" ry="2"/><ellipse transform="rotate(-73.687 206.31 190.655)" class="st1" cx="206.3" cy="190.7" rx="2.5" ry="2.5"/><ellipse transform="rotate(-84.077 100.707 186.028)" class="st1" cx="100.7" cy="186" rx="2" ry="2"/><ellipse transform="rotate(-83.17 38.5 35.586)" class="st1" cx="38.5" cy="35.6" rx="3.7" ry="3.7"/><ellipse transform="rotate(-33.647 223.533 242.194)" class="st1" cx="223.5" cy="242.2" rx="2.1" ry="2.1"/><ellipse transform="rotate(-1.962 264.2 78.5)" class="st1" cx="264.2" cy="78.5" rx="4.6" ry="4.6"/><ellipse transform="rotate(-74.62 67.05 104.738)" class="st1" cx="67" cy="104.7" rx="3.4" ry="3.4"/><ellipse transform="rotate(-44.344 162.7 78.285)" class="st1" cx="162.7" cy="78.3" rx="1.6" ry="1.6"/><ellipse transform="rotate(-65.675 97.98 70.07)" class="st1" cx="98" cy="70.1" rx="3.4" ry="3.4"/><ellipse transform="rotate(-10.454 192.26 108.555)" class="st1" cx="192.2" cy="108.5" rx="1.7" ry="1.7"/><ellipse transform="rotate(-66.046 57.426 238.738)" class="st1" cx="57.4" cy="238.7" rx="4" ry="4"/><ellipse transform="rotate(-76.692 279.098 258.268)" class="st1" cx="279.1" cy="258.3" rx="3.2" ry="3.2"/><ellipse transform="rotate(-40.16 238.027 179.894)" class="st1" cx="238" cy="179.9" rx="2.3" ry="2.3"/><ellipse transform="rotate(-80.44 179.97 134.49)" class="st1" cx="180" cy="134.5" rx="2.1" ry="2.1"/><ellipse transform="rotate(-31.45 38.063 277.958)" class="st1" cx="38.1" cy="278" rx="4.2" ry="4.2"/><ellipse transform="rotate(-78.428 279.827 235.51)" class="st1" cx="279.8" cy="235.5" rx="2.9" ry="2.9"/><ellipse transform="rotate(-40.738 187.48 208.6)" class="st1" cx="187.5" cy="208.6" rx="3.8" ry="3.8"/><ellipse transform="rotate(-24.508 55.004 44.998)" class="st1" cx="55" cy="45" rx="3" ry="3"/><ellipse transform="rotate(-3.71 279.353 77.115)" class="st1" cx="279.4" cy="77.1" rx="3.6" ry="3.6"/><ellipse transform="rotate(-43.744 272.81 101.42)" class="st1" cx="272.8" cy="101.4" rx="4.1" ry="4.1"/><ellipse transform="rotate(-56.577 15.9 274.032)" class="st1" cx="15.9" cy="274" rx="2.9" ry="2.9"/><ellipse transform="rotate(-10.97 203.968 10.81)" class="st1" cx="204" cy="10.8" rx="4.4" ry="4.4"/><ellipse transform="rotate(-46.872 35.366 181.907)" class="st1" cx="35.4" cy="181.9" rx="4.5" ry="4.5"/><ellipse transform="rotate(-13.162 62.935 190.822)" class="st1" cx="62.9" cy="190.8" rx="2.1" ry="2.1"/><ellipse transform="matrix(.9999 -.01653 .01653 .9999 -1.18 2.26)" class="st2" cx="136.1" cy="72.5" rx="4.7" ry="4.7"/><ellipse transform="rotate(-83.154 159.015 53.326)" class="st2" cx="159" cy="53.3" rx="2.4" ry="2.4"/><ellipse transform="rotate(-25.555 71.12 60.31)" class="st2" cx="71.1" cy="60.3" rx="1.8" ry="1.8"/><ellipse transform="rotate(-87.2 189.718 168.63)" class="st2" cx="189.7" cy="168.6" rx="4.1" ry="4.1"/><ellipse transform="rotate(-21.3 183.356 45.284)" class="st2" cx="183.4" cy="45.3" rx="3.9" ry="3.9"/><ellipse transform="rotate(-16.824 118.847 276.283)" class="st2" cx="118.9" cy="276.3" rx="1.7" ry="1.7"/><ellipse transform="rotate(-14.01 207.87 122.467)" class="st2" cx="207.9" cy="122.5" rx="2.2" ry="2.2"/><ellipse transform="rotate(-89.77 268.184 273.299)" class="st2" cx="268.2" cy="273.3" rx="1.9" ry="1.9"/><ellipse transform="rotate(-30 226.697 33.669)" class="st2" cx="226.7" cy="33.7" rx="4.5" ry="4.5"/><ellipse transform="rotate(-65.116 239.69 16.826)" class="st2" cx="239.7" cy="16.8" rx="4.1" ry="4.1"/><ellipse transform="rotate(-22.765 108.353 150.587)" class="st2" cx="108.4" cy="150.6" rx="4.1" ry="4.1"/><ellipse transform="rotate(-52.353 140.698 176.116)" class="st2" cx="140.7" cy="176.1" rx="3.6" ry="3.6"/><ellipse transform="rotate(-55.166 125.817 38.832)" class="st2" cx="125.8" cy="38.8" rx="2.1" ry="2.2"/><ellipse transform="rotate(-65.588 156.136 219.006)" class="st2" cx="156.1" cy="219" rx="2.9" ry="2.9"/><ellipse transform="rotate(-3.696 117.115 202.398) scale(.99998)" class="st2" cx="117.1" cy="202.4" rx="3.8" ry="3.8"/><ellipse transform="rotate(-18.232 114.6 58.16)" class="st2" cx="114.6" cy="58.2" rx="2.1" ry="2.1"/><ellipse transform="rotate(-6.066 208.477 160.662)" class="st2" cx="208.5" cy="160.6" rx="3.5" ry="3.5"/><ellipse transform="rotate(-47.01 5.722 235.954)" class="st2" cx="5.7" cy="236" rx="2.4" ry="2.4"/><ellipse transform="rotate(-37.335 176.83 251.133)" class="st2" cx="176.8" cy="251.1" rx="1.7" ry="1.7"/><ellipse transform="rotate(-53.137 164.674 119.788)" class="st2" cx="164.7" cy="119.8" rx="2.2" ry="2.2"/><ellipse transform="rotate(-76.585 141.834 116.855)" class="st2" cx="141.8" cy="116.9" rx="2.3" ry="2.3"/><ellipse transform="rotate(-88.016 163.248 270.695)" class="st2" cx="163.2" cy="270.7" rx="4.4" ry="4.4"/><ellipse transform="rotate(-50.16 88.432 241.217)" class="st2" cx="88.4" cy="241.2" rx="2.1" ry="2.1"/><ellipse transform="rotate(-1.56 275.67 124.582) scale(.99997)" class="st2" cx="275.7" cy="124.6" rx="3.7" ry="3.7"/><ellipse transform="rotate(-26.95 260.862 59.507)" class="st2" cx="260.8" cy="59.5" rx="2.1" ry="2.1"/><ellipse transform="rotate(-58.85 97.03 9.374)" class="st2" cx="97" cy="9.4" rx="3.3" ry="3.3"/><ellipse transform="rotate(-36.477 278.328 10.595)" class="st2" cx="278.3" cy="10.6" rx="1.9" ry="1.9"/><ellipse transform="rotate(-87.788 257.078 182.212)" class="st2" cx="257.1" cy="182.2" rx="1.6" ry="1.6"/><ellipse transform="rotate(-71.893 76.208 7.89)" class="st2" cx="76.2" cy="7.9" rx="3.6" ry="3.6"/><ellipse transform="rotate(-86.357 12.87 16.505) scale(1.00002)" class="st2" cx="12.9" cy="16.5" rx="3.3" ry="3.3"/><ellipse transform="rotate(-62.01 108.313 168.964)" class="st2" cx="108.3" cy="169" rx="1.6" ry="1.6"/><ellipse transform="rotate(-31.09 36.3 65.304)" class="st2" cx="36.3" cy="65.3" rx="3.9" ry="3.9"/><ellipse transform="rotate(-77.397 37.12 17.55)" class="st2" cx="37.1" cy="17.5" rx="2.9" ry="2.9"/><ellipse transform="rotate(-5.692 256.03 6.57) scale(1.00003)" class="st2" cx="256" cy="6.6" rx="2.2" ry="2.2"/><ellipse transform="rotate(-74.133 147.33 8.367)" class="st2" cx="147.3" cy="8.4" rx="3.6" ry="3.6"/><ellipse transform="matrix(.9996 -.02655 .02655 .9996 -.363 4.375)" class="st2" cx="164.6" cy="15.9" rx="2.2" ry="2.2"/><ellipse transform="rotate(-52.476 180.336 7.598)" class="st2" cx="180.3" cy="7.6" rx="3.6" ry="3.6"/><ellipse transform="rotate(-19.2 70.277 214.334)" class="st2" cx="70.3" cy="214.3" rx="2.1" ry="2.1"/><ellipse transform="rotate(-42.54 108.094 26.836)" class="st2" cx="108.1" cy="26.8" rx="2.3" ry="2.3"/><ellipse transform="rotate(-85.21 101.03 267.204)" class="st2" cx="101" cy="267.2" rx="3" ry="3"/><ellipse transform="rotate(-83.87 90.36 94.228)" class="st2" cx="90.4" cy="94.2" rx="3.1" ry="3.1"/><ellipse transform="matrix(.08506 -.9964 .9964 .08506 100.697 121.665)" class="st2" cx="116.6" cy="6" rx="1.6" ry="1.6"/><ellipse transform="rotate(-65.84 233.377 98.885)" class="st2" cx="233.4" cy="98.9" rx="3.3" ry="3.3"/><ellipse transform="rotate(-59.65 8.6 50.498)" class="st2" cx="8.6" cy="50.5" rx="3.6" ry="3.6"/><ellipse transform="rotate(-72.993 192.982 27.768)" class="st2" cx="193" cy="27.8" rx="3.2" ry="3.2"/><ellipse transform="rotate(-71.808 238.98 49.708)" class="st2" cx="239" cy="49.7" rx="4.3" ry="4.3"/><ellipse transform="rotate(-65.057 252.567 109.356)" class="st2" cx="252.6" cy="109.4" rx="2.6" ry="2.6"/><ellipse transform="rotate(-6.956 281.084 39.337)" class="st2" cx="281" cy="39.3" rx="1.6" ry="1.6"/><ellipse transform="rotate(-34.418 127.762 147.15)" class="st2" cx="127.8" cy="147.1" rx="3.8" ry="3.8"/><ellipse transform="rotate(-59.275 45.44 203.89)" class="st2" cx="45.4" cy="203.9" rx="2" ry="2"/><ellipse transform="rotate(-36.157 66.092 153.87)" class="st2" cx="66.1" cy="153.9" rx="3.9" ry="3.9"/><ellipse transform="rotate(-71.958 270.323 47.336)" class="st2" cx="270.3" cy="47.3" rx="2.3" ry="2.3"/><ellipse transform="rotate(-56.226 92.796 139.257)" class="st2" cx="92.8" cy="139.3" rx="1.8" ry="1.8"/><ellipse transform="rotate(-47.266 20.774 246.638)" class="st2" cx="20.8" cy="246.6" rx="4.1" ry="4.1"/><ellipse transform="rotate(-65.077 107.28 116.13)" class="st2" cx="107.3" cy="116.1" rx="2.5" ry="2.5"/><ellipse transform="rotate(-25.75 59.69 265.14)" class="st2" cx="59.7" cy="265.1" rx="2.6" ry="2.6"/><ellipse transform="rotate(-42.405 242.928 70.154)" class="st2" cx="242.9" cy="70.2" rx="1.8" ry="1.8"/><ellipse transform="rotate(-35.558 146.966 196.434)" class="st2" cx="147" cy="196.4" rx="4.2" ry="4.2"/><ellipse transform="rotate(-84.606 202.976 222.775)" class="st2" cx="203" cy="222.8" rx="1.9" ry="1.9"/><ellipse transform="rotate(-70.87 24.56 203.623)" class="st2" cx="24.6" cy="203.6" rx="3.2" ry="3.2"/></svg>