<?xml version="1.0" encoding="utf-8"?>
<!-- Generator: Adobe Illustrator 20.1.0, SVG Export Plug-In . SVG Version: 6.00 Build 0)  -->
<!DOCTYPE svg PUBLIC "-//W3C//DTD SVG 1.1//EN" "http://www.w3.org/Graphics/SVG/1.1/DTD/svg11.dtd">
<svg version="1.1" id="Слой_1" xmlns="http://www.w3.org/2000/svg" xmlns:xlink="http://www.w3.org/1999/xlink" x="0px" y="0px"
	 viewBox="0 0 37 40" style="enable-background:new 0 0 37 40;" xml:space="preserve">
<style type="text/css">
	.st0{fill:#D0BA94;}
	.st1{fill:#30373E;}
</style>
<g>
	<polygon class="st0" points="37,7 37,6 35,6 34,6 14,6 14,7 34,7 34,33 14,33 14,34 34,34 35,34 37,34 37,33 35,33 35,7 	"/>
	<g>
		<path class="st1" d="M10.5,21C9.1,21,8,22.1,8,23.5S9.1,26,10.5,26s2.5-1.1,2.5-2.5S11.9,21,10.5,21z M10.5,25
			C9.7,25,9,24.3,9,23.5S9.7,22,10.5,22s1.5,0.7,1.5,1.5S11.3,25,10.5,25z"/>
		<path class="st1" d="M10.5,14C9.1,14,8,15.1,8,16.5S9.1,19,10.5,19s2.5-1.1,2.5-2.5S11.9,14,10.5,14z M10.5,18
			C9.7,18,9,17.3,9,16.5S9.7,15,10.5,15s1.5,0.7,1.5,1.5S11.3,18,10.5,18z"/>
		<path class="st1" d="M17.5,14c-1.4,0-2.5,1.1-2.5,2.5s1.1,2.5,2.5,2.5s2.5-1.1,2.5-2.5S18.9,14,17.5,14z M17.5,18
			c-0.8,0-1.5-0.7-1.5-1.5s0.7-1.5,1.5-1.5s1.5,0.7,1.5,1.5S18.3,18,17.5,18z"/>
		<path class="st1" d="M14,9C7.9,9,3,13.9,3,20s4.9,11,11,11s11-4.9,11-11S20.1,9,14,9z M14,30L14,30C8.5,30,4,25.5,4,20
			s4.5-10,10-10s10,4.5,10,10S19.5,30,14,30z"/>
		<path class="st1" d="M14,6C6.3,6,0,12.3,0,20s6.3,14,14,14s14-6.3,14-14S21.7,6,14,6z M14,33L14,33C6.8,33,1,27.2,1,20S6.8,7,14,7
			s13,5.8,13,13S21.2,33,14,33z"/>
		<path class="st1" d="M17.5,21c-1.4,0-2.5,1.1-2.5,2.5s1.1,2.5,2.5,2.5s2.5-1.1,2.5-2.5S18.9,21,17.5,21z M17.5,25
			c-0.8,0-1.5-0.7-1.5-1.5s0.7-1.5,1.5-1.5s1.5,0.7,1.5,1.5S18.3,25,17.5,25z"/>
	</g>
</g>
</svg>
