<?xml version="1.0" encoding="utf-8"?>
<!-- Generator: Adobe Illustrator 20.1.0, SVG Export Plug-In . SVG Version: 6.00 Build 0)  -->
<!DOCTYPE svg PUBLIC "-//W3C//DTD SVG 1.1//EN" "http://www.w3.org/Graphics/SVG/1.1/DTD/svg11.dtd">
<svg version="1.1" id="Слой_1" xmlns="http://www.w3.org/2000/svg" xmlns:xlink="http://www.w3.org/1999/xlink" x="0px" y="0px"
	 viewBox="0 0 37 40" style="enable-background:new 0 0 37 40;" xml:space="preserve">
<style type="text/css">
	.st0{fill:#30373E;}
	.st1{fill:#D0BA94;}
</style>
<g>
	<path class="st0" d="M10.5,26C9.1,26,8,24.9,8,23.5S9.1,21,10.5,21s2.5,1.1,2.5,2.5S11.9,26,10.5,26z M10.5,22
		C9.7,22,9,22.7,9,23.5S9.7,25,10.5,25s1.5-0.7,1.5-1.5S11.3,22,10.5,22z"/>
	<path class="st0" d="M10.5,19C9.1,19,8,17.9,8,16.5S9.1,14,10.5,14s2.5,1.1,2.5,2.5S11.9,19,10.5,19z M10.5,15
		C9.7,15,9,15.7,9,16.5S9.7,18,10.5,18s1.5-0.7,1.5-1.5S11.3,15,10.5,15z"/>
	<path class="st0" d="M17.5,19c-1.4,0-2.5-1.1-2.5-2.5s1.1-2.5,2.5-2.5s2.5,1.1,2.5,2.5S18.9,19,17.5,19z M17.5,15
		c-0.8,0-1.5,0.7-1.5,1.5s0.7,1.5,1.5,1.5s1.5-0.7,1.5-1.5S18.3,15,17.5,15z"/>
	<rect x="34" y="21" class="st1" width="1" height="5"/>
	<path class="st0" d="M14,31C7.9,31,3,26.1,3,20S7.9,9,14,9s11,4.9,11,11S20.1,31,14,31z M14,10C8.5,10,4,14.5,4,20s4.5,10,10,10
		s10-4.5,10-10S19.5,10,14,10z"/>
	<path class="st0" d="M14,34C6.3,34,0,27.7,0,20S6.3,6,14,6s14,6.3,14,14S21.7,34,14,34z M14,7C6.8,7,1,12.8,1,20s5.8,13,13,13
		s13-5.8,13-13S21.2,7,14,7z"/>
	<rect x="17" y="21" class="st1" width="20" height="1"/>
	<rect x="17" y="25" class="st1" width="20" height="1"/>
	<path class="st0" d="M17.5,26c-1.4,0-2.5-1.1-2.5-2.5s1.1-2.5,2.5-2.5s2.5,1.1,2.5,2.5S18.9,26,17.5,26z M17.5,22
		c-0.8,0-1.5,0.7-1.5,1.5s0.7,1.5,1.5,1.5s1.5-0.7,1.5-1.5S18.3,22,17.5,22z"/>
</g>
</svg>
