<?xml version="1.0" encoding="utf-8"?>
<!-- Generator: Adobe Illustrator 20.1.0, SVG Export Plug-In . SVG Version: 6.00 Build 0)  -->
<!DOCTYPE svg PUBLIC "-//W3C//DTD SVG 1.1//EN" "http://www.w3.org/Graphics/SVG/1.1/DTD/svg11.dtd">
<svg version="1.1" id="Слой_1" xmlns="http://www.w3.org/2000/svg" xmlns:xlink="http://www.w3.org/1999/xlink" x="0px" y="0px"
	 viewBox="0 0 37 40" style="enable-background:new 0 0 37 40;" xml:space="preserve">
<style type="text/css">
	.st0{fill:#D0BA94;}
	.st1{fill:#30373E;}
</style>
<g>
	<polygon class="st0" points="37,18 37,17 35,17 34,17 2,17 2,18 34,18 34,23 17,23 17,24 34,24 35,24 37,24 37,23 35,23 35,18 	"/>
	<path class="st1" d="M24.5,24h-21C1.6,24,0,22.4,0,20.5v-1C0,18.1,1.1,17,2.5,17c1.2,0,2.2,0.9,2.4,2l18.1,0
		c0.1-0.5,0.3-0.9,0.7-1.3c0.5-0.5,1.1-0.7,1.8-0.7c1.4,0,2.5,1.1,2.5,2.5v1C28,22.4,26.4,24,24.5,24z M2.5,18C1.7,18,1,18.7,1,19.5
		v1C1,21.9,2.1,23,3.5,23h21c1.4,0,2.5-1.1,2.5-2.5v-1c0-0.8-0.7-1.5-1.5-1.5c-0.4,0-0.8,0.2-1.1,0.4c-0.3,0.3-0.4,0.7-0.4,1.1V20
		L4,20v-0.5C4,18.7,3.3,18,2.5,18z"/>
</g>
</svg>
