<?xml version="1.0" encoding="utf-8"?>
<!-- Generator: Adobe Illustrator 18.0.0, SVG Export Plug-In . SVG Version: 6.00 Build 0)  -->
<!DOCTYPE svg PUBLIC "-//W3C//DTD SVG 1.1//EN" "http://www.w3.org/Graphics/SVG/1.1/DTD/svg11.dtd">
<svg version="1.1" id="icons" xmlns="http://www.w3.org/2000/svg" xmlns:xlink="http://www.w3.org/1999/xlink" x="0px" y="0px"
	 viewBox="0 0 16 20" enable-background="new 0 0 16 20" xml:space="preserve">
<g>
	<g>
		<g>
			<path fill="#D0BA93" d="M15,20H8c-0.4,0-0.7-0.2-0.9-0.6l-3-6c-0.2-0.3-0.1-0.7,0-1C4.3,12.2,4.7,12,5,12h2V6
				c0-0.3,0.2-0.6,0.4-0.8C7.7,5,8,4.9,8.3,5.1l3,1C11.7,6.2,12,6.6,12,7v4.2l3.2,0.8c0.4,0.1,0.8,0.5,0.8,1v6
				C16,19.6,15.6,20,15,20z M8.6,18H14v-4.2L10.8,13c-0.4-0.1-0.8-0.5-0.8-1V7.7L9,7.4V13c0,0.6-0.4,1-1,1H6.6L8.6,18z"/>
		</g>
	</g>
	<path fill="#D0BA93" d="M14,0H2C0.9,0,0,0.9,0,2v7c0,1.1,0.9,2,2,2h3V9H2V2h12v7h2V2C16,0.9,15.1,0,14,0z"/>
</g>
</svg>
