<?xml version="1.0" encoding="utf-8"?>
<!-- Generator: Adobe Illustrator 18.0.0, SVG Export Plug-In . SVG Version: 6.00 Build 0)  -->
<!DOCTYPE svg PUBLIC "-//W3C//DTD SVG 1.1//EN" "http://www.w3.org/Graphics/SVG/1.1/DTD/svg11.dtd">
<svg version="1.1" id="icons" xmlns="http://www.w3.org/2000/svg" xmlns:xlink="http://www.w3.org/1999/xlink" x="0px" y="0px"
	 viewBox="0 0 24 20" enable-background="new 0 0 24 20" xml:space="preserve">
<g>
	<path fill="#D0BA93" d="M21,0h-9c-1.7,0-3,1.3-3,3v10H5c-3.8,0-4.9,5.6-5,5.8c-0.1,0.3,0,0.6,0.2,0.8C0.4,19.9,0.7,20,1,20h8
		c0.6,0,1-0.4,1-1h7c1.7,0,3-1.3,3-3V7h3c0.6,0,1-0.4,1-1V3C24,1.3,22.7,0,21,0z M8.1,18H2.3c0.5-1.3,1.4-3,2.7-3h4.2
		C8.5,15.9,8.2,17,8.1,18z M13,15c0.4,0,1,0.6,1,1c0,0.3,0.1,0.7,0.2,1h-3.8C10.7,16,11.5,15,13,15z M18,16c0,0.6-0.4,1-1,1
		c-0.6,0-1-0.5-1-1c0-1.5-1.5-3-3-3h-2V3c0-0.6,0.4-1,1-1h6.2C18.1,2.3,18,2.6,18,3V16z M22,5h-2V3c0-0.6,0.4-1,1-1s1,0.4,1,1V5z"/>
	<rect x="12" y="4" fill="#D0BA93" width="5" height="2"/>
	<rect x="12" y="7" fill="#D0BA93" width="5" height="2"/>
	<rect x="12" y="10" fill="#D0BA93" width="5" height="2"/>
</g>
</svg>
