<?xml version="1.0" encoding="utf-8"?>
<!-- Generator: Adobe Illustrator 18.0.0, SVG Export Plug-In . SVG Version: 6.00 Build 0)  -->
<!DOCTYPE svg PUBLIC "-//W3C//DTD SVG 1.1//EN" "http://www.w3.org/Graphics/SVG/1.1/DTD/svg11.dtd">
<svg version="1.1" id="icons" xmlns="http://www.w3.org/2000/svg" xmlns:xlink="http://www.w3.org/1999/xlink" x="0px" y="0px"
	 viewBox="0 0 24 18" enable-background="new 0 0 24 18" xml:space="preserve">
<path fill="#D0BA93" d="M22,0H10C8.9,0,8,0.9,8,2v1h2V2h12v2h-7v2h7v6H10v-1H8v1c0,1.1,0.9,2,2,2h6.4l-0.7,1.4
	c-0.2,0.3-0.5,0.6-0.9,0.6H8.4L6,13.6V8.4L8.4,6H12v1c0,0.6-0.4,1-1,1H9v2h2c1.7,0,3-1.3,3-3V5c0-0.6-0.4-1-1-1H8
	C7.7,4,7.5,4.1,7.3,4.3L5.5,6.1C5.3,6.1,5.2,6,5,6H1C0.4,6,0,6.4,0,7v8c0,0.6,0.4,1,1,1h4c0.2,0,0.3-0.1,0.5-0.1l1.8,1.8
	C7.5,17.9,7.7,18,8,18h6.8c1.1,0,2.2-0.6,2.7-1.7l1.2-2.3H22c1.1,0,2-0.9,2-2V2C24,0.9,23.1,0,22,0z M4,14H2V8h2V14z"/>
</svg>
