<?xml version="1.0" encoding="utf-8"?>
<!-- Generator: Adobe Illustrator 18.0.0, SVG Export Plug-In . SVG Version: 6.00 Build 0)  -->
<!DOCTYPE svg PUBLIC "-//W3C//DTD SVG 1.1//EN" "http://www.w3.org/Graphics/SVG/1.1/DTD/svg11.dtd">
<svg version="1.1" id="icons" xmlns="http://www.w3.org/2000/svg" xmlns:xlink="http://www.w3.org/1999/xlink" x="0px" y="0px"
	 viewBox="0 0 24 20" enable-background="new 0 0 24 20" xml:space="preserve">
<g>
	<path fill="#D0BA93" d="M22,3c0-1.7-1.3-3-3-3s-3,1.3-3,3s1.3,3,3,3S22,4.7,22,3z M19,4c-0.6,0-1-0.4-1-1c0-0.6,0.4-1,1-1
		s1,0.4,1,1C20,3.6,19.6,4,19,4z"/>
	<path fill="#D0BA93" d="M19,6c-2.8,0-5,2.2-5,5v3c0,0.6,0.4,1,1,1h1v4c0,0.6,0.4,1,1,1h4c0.6,0,1-0.4,1-1v-4h1c0.6,0,1-0.4,1-1v-3
		C24,8.2,21.8,6,19,6z M22,13h-1c-0.6,0-1,0.4-1,1v4h-2v-4c0-0.6-0.4-1-1-1h-1v-2c0-1.7,1.3-3,3-3s3,1.3,3,3V13z"/>
	<path fill="#D0BA93" d="M6,14c0.6,0,1-0.4,1-1V7c0-0.6-0.4-1-1-1H1C0.4,6,0,6.4,0,7v6c0,0.6,0.4,1,1,1H6z M2,8h3v4H2V8z"/>
	<circle fill="#D0BA93" cx="10" cy="18" r="2"/>
	<path fill="#D0BA93" d="M9,3.9L8.1,15H1v2h6.2c0.4-1.2,1.5-2,2.8-2c0,0,0.1,0,0.1,0l0.8-10H13V3h-3C9.5,3,9,3.4,9,3.9z"/>
</g>
</svg>
