<?xml version="1.0" encoding="utf-8"?>
<!-- Generator: Adobe Illustrator 18.0.0, SVG Export Plug-In . SVG Version: 6.00 Build 0)  -->
<!DOCTYPE svg PUBLIC "-//W3C//DTD SVG 1.1//EN" "http://www.w3.org/Graphics/SVG/1.1/DTD/svg11.dtd">
<svg version="1.1" id="Layout" xmlns="http://www.w3.org/2000/svg" xmlns:xlink="http://www.w3.org/1999/xlink" x="0px" y="0px"
	 viewBox="0 0 33.3 21.1" enable-background="new 0 0 33.3 21.1" xml:space="preserve">
<g id="XMLID_1939_">
	<g>
		<path id="XMLID_15_" fill="#D0BA93" d="M8.6,8.7c-0.9-3.3,2.8-6.3,2.8-6.3L9.4,0C-1.1,4.7,0,13.5,0,13.5c0,4.2,3.4,7.6,7.6,7.6
			c4.2,0,7.6-3.4,7.6-7.6C15.2,9.7,11.8,7.5,8.6,8.7z"/>
		<path id="XMLID_14_" fill="#D0BA93" d="M26.7,8.7c-0.9-3.3,2.8-6.3,2.8-6.3l-2-2.4C17,4.7,18.1,13.5,18.1,13.5
			c0,4.2,3.4,7.6,7.6,7.6c4.2,0,7.6-3.4,7.6-7.6C33.3,9.7,29.9,7.5,26.7,8.7z"/>
	</g>
</g>
</svg>
