<?xml version="1.0" encoding="utf-8"?>
<!-- Generator: Adobe Illustrator 18.0.0, SVG Export Plug-In . SVG Version: 6.00 Build 0)  -->
<!DOCTYPE svg PUBLIC "-//W3C//DTD SVG 1.1//EN" "http://www.w3.org/Graphics/SVG/1.1/DTD/svg11.dtd">
<svg version="1.1" id="Слой_1" xmlns="http://www.w3.org/2000/svg" xmlns:xlink="http://www.w3.org/1999/xlink" x="0px" y="0px"
	 viewBox="0 0 22.2 22.4" enable-background="new 0 0 22.2 22.4" xml:space="preserve">
<g>
	<defs>
		<rect id="SVGID_1_" y="0" width="22.2" height="22.4"/>
	</defs>
	<clipPath id="SVGID_2_">
		<use xlink:href="#SVGID_1_"  overflow="visible"/>
	</clipPath>
	<path clip-path="url(#SVGID_2_)" fill-rule="evenodd" clip-rule="evenodd" fill="#D0BA93" d="M19.5,8.9c-0.1-0.3-0.2-0.7-0.3-1
		c-1.5-3.4-4-5.1-7.5-5.3c-0.8,0-1.5,0-2.2,0.3c-3.9,1-6,3.7-6.6,7.9C2.6,12.6,3,14.2,4,15.7c1.1,0.3,2.1-0.1,2.8-1.1
		C7,14.4,7.1,14.2,7.1,14c0.2-1.3,0.8-2,1.8-2.3c0.7-0.2,1.3-0.5,1.8-1c0.6-0.5,0.9-1,1-1.3c-1.5,0.5-3,1.2-4.3,2
		c-0.4,0.3-0.9,0.3-1.3,0c-1.2-0.8-1.2-1.6,0-2.4c2-1.3,4.1-2.1,6.4-2.6c0.8-0.2,1.5,0.1,2.1,0.7c1.5,1.7,2.1,6.3,1.5,8.5
		c0,0.3-1.1,0.7-1.3,0.6c-1.6-0.3-0.4-3.1-1.4-4.4c-0.3,0.2-0.7,0.5-1,0.8c-0.6,0.6-1.2,1.1-1.9,1.5c-0.1,0-0.1,0.1-0.2,0.1
		c-0.8,2.2-2.3,3.6-4.4,4.2c-0.8,0.2-1.6,0.2-2.4-0.3c-1.9-1-3-2.7-3.4-5c-0.4-2.8,0.1-5.4,1.6-7.9c1.8-3,4.5-4.7,7.9-5.1
		c3-0.3,5.7,0.4,8.3,2.2c2,1.4,3.3,3.3,3.9,5.7c0.8,3,0.5,5.9-0.8,8.6c-1,2-2.8,3.5-4.3,4.6c-1.3,0.8-3,1.5-4.7,1
		c-0.4-0.1-0.7-0.4-0.7-0.8c-0.2-1.5,0.4-2,1.8-1.5c0.5-0.2,1-0.4,1.4-0.7c2.9-1.9,4.7-3.9,5.2-7.6C19.7,10.7,19.7,9.8,19.5,8.9"/>
</g>
</svg>
