<?xml version="1.0" encoding="utf-8"?>
<!-- Generator: Adobe Illustrator 18.0.0, SVG Export Plug-In . SVG Version: 6.00 Build 0)  -->
<!DOCTYPE svg PUBLIC "-//W3C//DTD SVG 1.1//EN" "http://www.w3.org/Graphics/SVG/1.1/DTD/svg11.dtd">
<svg version="1.1" id="Слой_1" xmlns="http://www.w3.org/2000/svg" xmlns:xlink="http://www.w3.org/1999/xlink" x="0px" y="0px"
	 viewBox="0 0 64.6 19" enable-background="new 0 0 64.6 19" xml:space="preserve">
<path fill="#30373E" d="M21.1,13.1c0,1.1-0.5,1.9-0.7,2.2c-0.7,1.1-1.7,1.5-2.6,2c-0.9,0.4-1.6,0.7-2,0.8c-5.3,1.4-10,0.3-10,0.3
	c-0.8-0.2-1.9-0.4-3.2-1c-0.4-0.2-0.9-0.4-1.3-0.7c-0.5-0.3-1-0.6-1.4-1l2.8-2.3c1.1,0.6,2.2,1.1,3.1,1.4c0.8,0.3,1.5,0.4,2.1,0.5
	c2.1,0.3,5.2,0.3,5.6-0.8c0.2-0.5,0.1-0.9,0.1-0.9c-0.1-0.4-0.6-0.7-1.1-0.9c-0.5-0.2-0.8-0.3-1.5-0.6c-0.6-0.2-1-0.4-1.3-0.4
	c0,0-0.1,0-0.1,0c-0.9-0.3-2-0.7-3.1-1.2c-0.3-0.1-0.6-0.3-0.9-0.4C4.6,9.7,4.2,9.5,3.6,9C2.9,8.4,2.1,7.8,1.8,6.7
	C1.3,5.2,2,3.9,2.1,3.7c0.2-0.4,0.5-0.9,1.1-1.4C4.7,1,6.5,0.6,7.7,0.4c1.5-0.3,5.8-1,10.2,1c0.5,0.2,1,0.5,1.5,0.8
	c0.4,0.3,0.8,0.5,1.2,0.8l-2.5,2c-0.5-0.3-1-0.6-1.5-0.8c-0.5-0.3-1-0.5-1.5-0.6c-0.5-0.2-1-0.3-1.5-0.5c-0.2-0.1-1.8-0.4-3.6-0.1
	c-0.5,0.1-1,0.2-1.3,0.7c0,0.1-0.3,0.4-0.2,0.8c0.1,0.4,0.5,0.6,1.2,0.9c0.4,0.2,0.7,0.3,1.1,0.4c0.4,0.1,0.7,0.2,1.1,0.3
	c0.4,0.1,0.7,0.2,1.1,0.3c1.3,0.4,1.9,0.6,2.3,0.7c0.2,0.1,0.3,0.1,0.5,0.2c0.6,0.2,2.2,0.9,3,1.5C19.6,9.6,21.1,10.8,21.1,13.1"/>
<path fill="#30373E" d="M43.7,17.9c-0.3,0.5-0.6,0.6-0.6,0.6c-0.3,0.1-0.7,0.3-0.9,0.3c-1.6,0.2-3,0.1-3,0.1
	c-1.6-0.2-2.6-0.3-3.9-0.7c-2.4-0.8-4.1-2.1-5.3-3.2c0,0,0.1-0.1,0.1-0.1l2.4-1.9c0.2,0.3,0.6,0.5,1,0.8c0.7,0.5,1.3,0.6,1.9,0.8
	c0.7,0.2,1.2,0.2,1.4,0.2c0.5,0,0.9,0,1.1-0.3c0.3-0.3,0.3-1,0.2-1.5c-0.1-0.5-0.3-1-0.4-1.2c0-0.1-0.5-1-1-2.1c-1-2.1-2.4-5-2.4-5
	L29,16.4c-0.6,1.4-2,2.3-3.4,2.3h-4.7L28,3.1C28.8,1.5,30.1,0,32.3,0h4.3l6.9,14.9C44,16.1,44.1,17.3,43.7,17.9"/>
<path fill="#30373E" d="M61.3,8.7C62.8,7.9,64,6.4,64,4.6c0-1.3-0.6-2.4-1.6-3.3C61.5,0.5,60.2,0,59.1,0H48.2
	c-1.4,0.1-2.4,1.4-2.4,3.3v15.5H60c2.4,0,4.5-2.6,4.5-5.4C64.6,11.4,63,9.2,61.3,8.7 M52.3,2.7h3.9c1.2,0,2.2,1.1,2.2,2.4v0.2
	c0,1.3-1,2.4-2.2,2.4h-3.9V2.7z M58.7,13.4c0,1.3-1,2.4-2.2,2.4h-4.2v-5.7h4.2c1.2,0,2.2,1.1,2.2,2.4V13.4z"/>
</svg>
