<?xml version="1.0" encoding="utf-8"?>
<!-- Generator: Adobe Illustrator 18.0.0, SVG Export Plug-In . SVG Version: 6.00 Build 0)  -->
<!DOCTYPE svg PUBLIC "-//W3C//DTD SVG 1.1//EN" "http://www.w3.org/Graphics/SVG/1.1/DTD/svg11.dtd">
<svg version="1.1" id="Слой_1" xmlns="http://www.w3.org/2000/svg" xmlns:xlink="http://www.w3.org/1999/xlink" x="0px" y="0px"
	 viewBox="0 0 83 83" enable-background="new 0 0 83 83" xml:space="preserve">
<g>
	<path fill="#D0BA93" d="M41.5,3C62.7,3,80,20.3,80,41.5S62.7,80,41.5,80S3,62.7,3,41.5S20.3,3,41.5,3 M41.5,0C18.6,0,0,18.6,0,41.5
		S18.6,83,41.5,83S83,64.4,83,41.5S64.4,0,41.5,0L41.5,0z"/>
</g>
<g>
	<path fill="#D0BA93" d="M44.3,31.7c0.9,0.4,1.7,0.9,2.2,1.6c0.5,0.7,0.8,1.5,0.8,2.5c0,1.4-0.6,2.6-1.8,3.6s-2.8,1.7-4.8,2.2v3.8
		h-0.5v-4c0.9-0.4,1.6-0.9,2.1-1.4c0.5-0.5,0.8-1.1,1-1.7c0.2-0.6,0.3-1.3,0.3-2c0-1.6-0.3-2.7-0.9-3.5c-0.6-0.8-1.3-1.1-2.3-1.1
		c-0.5,0-0.9,0.1-1.3,0.2s-0.7,0.3-0.9,0.5c1,0.3,1.4,0.9,1.4,1.9c0,0.5-0.2,1-0.6,1.4c-0.4,0.4-0.9,0.5-1.5,0.5
		c-0.4,0-0.7-0.1-1-0.2s-0.5-0.4-0.6-0.7c-0.2-0.3-0.2-0.6-0.2-0.9c0-0.9,0.5-1.7,1.5-2.2c1-0.6,2.3-0.9,3.9-0.9
		C42.3,31.1,43.4,31.3,44.3,31.7z M42.1,48.4c0.4,0.4,0.6,0.9,0.6,1.5c0,0.6-0.2,1.1-0.6,1.5c-0.4,0.4-0.9,0.5-1.6,0.5
		c-0.7,0-1.2-0.2-1.6-0.5c-0.4-0.4-0.6-0.8-0.6-1.5c0-0.6,0.2-1.1,0.6-1.5c0.4-0.4,0.9-0.5,1.6-0.5C41.1,47.8,41.7,48,42.1,48.4z"/>
</g>
</svg>
