<svg xmlns="http://www.w3.org/2000/svg" viewBox="0 0 83 83"><path fill="#D0BA93" d="M41.5 3C62.7 3 80 20.3 80 41.5S62.7 80 41.5 80 3 62.7 3 41.5 20.3 3 41.5 3m0-3C18.6 0 0 18.6 0 41.5S18.6 83 41.5 83 83 64.4 83 41.5 64.4 0 41.5 0z"/><path fill="#D0BA93" d="M44.3 31.7c.9.4 1.7.9 2.2 1.6.5.7.8 1.5.8 2.5 0 1.4-.6 2.6-1.8 3.6s-2.8 1.7-4.8 2.2v3.8h-.5v-4c.9-.4 1.6-.9 2.1-1.4.5-.5.8-1.1 1-1.7.2-.6.3-1.3.3-2 0-1.6-.3-2.7-.9-3.5-.6-.8-1.3-1.1-2.3-1.1-.5 0-.9.1-1.3.2s-.7.3-.9.5c1 .3 1.4.9 1.4 1.9 0 .5-.2 1-.6 1.4-.4.4-.9.5-1.5.5-.4 0-.7-.1-1-.2s-.5-.4-.6-.7c-.2-.3-.2-.6-.2-.9 0-.9.5-1.7 1.5-2.2 1-.6 2.3-.9 3.9-.9 1.2-.2 2.3 0 3.2.4zm-2.2 16.7c.4.4.6.9.6 1.5s-.2 1.1-.6 1.5c-.4.4-.9.5-1.6.5-.7 0-1.2-.2-1.6-.5-.4-.4-.6-.8-.6-1.5 0-.6.2-1.1.6-1.5.4-.4.9-.5 1.6-.5.6-.1 1.2.1 1.6.5z"/></svg>