<?xml version="1.0" encoding="utf-8"?>
<!-- Generator: Adobe Illustrator 18.0.0, SVG Export Plug-In . SVG Version: 6.00 Build 0)  -->
<!DOCTYPE svg PUBLIC "-//W3C//DTD SVG 1.1//EN" "http://www.w3.org/Graphics/SVG/1.1/DTD/svg11.dtd">
<svg version="1.1" id="Layout" xmlns="http://www.w3.org/2000/svg" xmlns:xlink="http://www.w3.org/1999/xlink" x="0px" y="0px"
	 viewBox="0 0 16 22" enable-background="new 0 0 16 22" xml:space="preserve">
<path id="XMLID_892_" fill="#D0BA93" d="M8,3V0L4,4l4,4V5c3.3,0,6,2.7,6,6c0,1-0.3,2-0.7,2.8l1.5,1.5C15.5,14,16,12.6,16,11
	C16,6.6,12.4,3,8,3z M8,17c-3.3,0-6-2.7-6-6c0-1,0.3-2,0.7-2.8L1.2,6.7C0.5,8,0,9.4,0,11c0,4.4,3.6,8,8,8v3l4-4l-4-4V17z"/>
</svg>
