<?xml version="1.0" encoding="utf-8"?>
<!-- Generator: Adobe Illustrator 20.1.0, SVG Export Plug-In . SVG Version: 6.00 Build 0)  -->
<!DOCTYPE svg PUBLIC "-//W3C//DTD SVG 1.1//EN" "http://www.w3.org/Graphics/SVG/1.1/DTD/svg11.dtd">
<svg version="1.1" id="Слой_1" xmlns="http://www.w3.org/2000/svg" xmlns:xlink="http://www.w3.org/1999/xlink" x="0px" y="0px"
	 viewBox="0 0 165 110" style="enable-background:new 0 0 165 110;" xml:space="preserve">
<style type="text/css">
	.st0{fill:#FFFFFF;}
	.st1{fill:#D0BA93;}
</style>
<rect class="st0" width="165" height="110"/>
<g>
	<path class="st1" d="M138.1,48.7c-0.9-1.6-1.7-2.6-2.9-3.6c-1.7-1.3-3.2-2.2-5.2-2.5l0,0.4c1.5,0.5,2.4,1.4,3.1,2.7
		c0.6,1.2,1.8,3.8,1.8,8.2c0.1,3.2-0.1,4.8-0.5,6.7c-0.4,1.7-1,3.2-1.6,4.1c-0.8,1.1-1.6,2.1-2.8,2.2v0.4c1.6-0.1,3-0.7,4.2-1.6
		c1.5-1.1,2.2-1.9,3.7-4.3c1.1-1.8,1.7-4,1.7-6C139.6,52.7,139.1,50.5,138.1,48.7z"/>
	<path class="st1" d="M59,60.9C59,60.8,59,60.7,59,60.5v-5.8c0-0.8-0.2-1.4-0.5-1.7c-0.4-0.4-0.9-0.7-1.6-0.8
		c-0.4-0.1-1-0.2-1.7-0.3c-0.7-0.1-1.3-0.1-1.8-0.1c-2,0-3.4,0.3-4.1,0.8c-0.5,0.4-0.8,0.9-0.8,1.5c0,0.6,0.2,1,0.7,1.3
		c0.4,0.2,0.9,0.4,1.4,0.4c0.7,0,1.3-0.1,1.7-0.3c0.6-0.3,0.9-0.8,0.9-1.4c0-0.4-0.1-0.7-0.4-1c-0.3-0.3-0.4-0.5-0.4-0.5
		c0-0.1,0.1-0.1,0.2-0.2c0.2,0,0.3-0.1,0.6-0.1c0.4,0,0.7,0.1,0.9,0.3c0.1,0.2,0.2,0.5,0.2,1v2.8h-1c-0.8,0-1.6,0.1-2.3,0.2
		c-1.3,0.2-2.2,0.6-2.8,1.3c-0.4,0.5-0.7,1.2-0.7,2c0,0.9,0.3,1.6,1,2c0.5,0.4,1.2,0.6,2.1,0.6c0.8,0,1.5-0.1,2.1-0.3
		c0.7-0.3,1.3-0.6,1.8-1.2c0.3,0.6,0.6,1,1,1.2c0.4,0.2,0.9,0.3,1.5,0.3c0.6,0,1.2-0.1,1.7-0.4c0.5-0.2,1-0.5,1.3-1v-0.6
		c-0.2,0.3-0.5,0.4-0.8,0.4C59.2,61,59.1,61,59,60.9z M54.3,59.2c0,0.6,0,1.1-0.1,1.4c-0.1,0.5-0.4,0.8-0.9,0.8
		c-0.4,0-0.6-0.2-0.7-0.7c0-0.2-0.1-0.6-0.1-1.1V59c0-0.6,0.1-1.1,0.2-1.3c0.2-0.4,0.5-0.6,0.9-0.6h0.7V59.2z"/>
	<path class="st1" d="M122.3,57.6c0-1.9-0.5-3.3-1.6-4.4c-1.1-1.1-2.4-1.6-4.2-1.6c-1.5,0-2.8,0.5-3.9,1.4c-1.1,1-1.7,2.3-1.7,4
		c0,1.2,0.3,2.2,0.8,3.1c0.5,0.7,1.2,1.3,2.1,1.7c0.5,0.2,1,0.4,1.5,0.5c0.4,0.1,1.1,0.1,1.8,0.1c2.2,0,3.8-0.9,5-2.7l-0.4-0.3
		c-0.4,0.7-1,1.2-1.6,1.6c-0.6,0.4-1.3,0.6-2,0.6c-0.9,0-1.4-0.3-1.8-0.9c-0.3-0.5-0.4-1.2-0.4-2.2v-0.9H122.3z M116,54.2v-0.4
		c0-0.5,0-0.9,0.2-1.2c0.1-0.3,0.3-0.5,0.7-0.5c0.4,0,0.6,0.1,0.7,0.4c0.1,0.2,0.1,0.5,0.1,1v0.6v3H116V54.2z"/>
	<path class="st1" d="M44.9,61c-0.6,0.5-1.2,0.7-2,0.7c-0.7,0-1.3-0.2-1.6-0.7c-0.4-0.5-0.6-1.5-0.6-2.9c0-2.6,0.2-4.3,0.5-5
		c0.3-0.6,0.8-0.9,1.7-0.9c0.2,0,0.5,0.1,0.8,0.2c0.3,0.1,0.4,0.2,0.4,0.4c0,0.1,0,0.1-0.1,0.2c-0.1,0.1-0.2,0.1-0.2,0.1
		c-0.5,0.3-0.9,0.5-1.1,0.9c-0.3,0.4-0.4,0.8-0.4,1.4c0,0.6,0.2,1.1,0.6,1.6c0.4,0.4,0.9,0.6,1.5,0.6c0.7,0,1.2-0.2,1.6-0.7
		c0.4-0.4,0.6-1,0.6-1.7c0-1-0.4-1.8-1.1-2.4c-0.8-0.7-2.1-1.1-3.9-1.1c-1.7,0-3.1,0.4-4.3,1.3c-1.3,1-2,2.4-2,4.1
		c0,1.7,0.5,3,1.7,3.9c1.1,1,2.6,1.5,4.4,1.5c1.2,0,2.3-0.3,3.1-0.7c0.9-0.5,1.7-1.4,2.1-2.5l-0.4-0.3C45.9,59.9,45.5,60.6,44.9,61z
		"/>
	<path class="st1" d="M69.9,60.9c-0.6,0.5-1.2,0.7-2,0.7c-0.7,0-1.3-0.2-1.6-0.7c-0.4-0.5-0.6-1.5-0.6-2.9c0-2.6,0.2-4.2,0.5-5
		c0.3-0.6,0.8-0.9,1.7-0.9c0.2,0,0.5,0.1,0.8,0.2c0.3,0.1,0.4,0.2,0.4,0.4c0,0.1,0,0.1-0.1,0.2c-0.1,0.1-0.2,0.1-0.2,0.1
		c-0.5,0.3-0.9,0.5-1.1,0.8c-0.3,0.4-0.4,0.8-0.4,1.4c0,0.6,0.2,1.1,0.6,1.6c0.4,0.4,0.9,0.6,1.5,0.6c0.7,0,1.2-0.2,1.6-0.6
		c0.4-0.4,0.6-1,0.6-1.7c0-1-0.4-1.8-1.1-2.4c-0.8-0.7-2.1-1.1-3.9-1.1c-1.7,0-3.1,0.4-4.3,1.3c-1.3,1-2,2.4-2,4.1
		c0,1.7,0.6,3,1.7,3.9c1.1,1,2.6,1.4,4.4,1.4c1.2,0,2.3-0.2,3.1-0.7c0.9-0.5,1.7-1.3,2.1-2.5L71.3,59C71,59.8,70.5,60.5,69.9,60.9z"
		/>
	<path class="st1" d="M32.3,64.9c-0.6-0.9-1.2-2.3-1.6-4.1c-0.4-1.9-0.6-3.5-0.5-6.7c0.1-4.3,1.2-6.9,1.8-8.2
		c0.7-1.3,1.5-2.2,3.1-2.7l0-0.4c-2,0.3-3.5,1.2-5.2,2.5c-1.2,1.1-2,2-2.9,3.6c-1,1.8-1.6,4-1.5,6.5c0,2,0.7,4.2,1.7,6
		c1.5,2.3,2.2,3.1,3.7,4.3c1.3,0.9,2.6,1.6,4.3,1.6v-0.4C33.8,67,33,66,32.3,64.9z"/>
	<path class="st1" d="M84.5,55.3c0-1.2-0.2-2.3-0.8-2.8c-0.7-0.6-1.3-0.9-2.4-0.9c-0.7,0-1.3,0.1-1.9,0.5c-0.7,0.4-1.2,0.9-1.7,1.5
		l0-7.1c-0.5,0-1.1,0.1-2,0.1c-1.8,0.2-3,0.2-3.6,0.2v0.5h1.1v14.3h-1.1v0.5h6.3v-0.5h-0.7v-4.7c0-1.6,0.1-2.6,0.6-3.2
		c0.3-0.3,0.5-0.5,0.8-0.6c0.3,0,0.7,0.1,0.8,0.5c0.1,0.3,0.1,0.7,0.1,1.2v0.4v6.4h-0.7v0.5h6.2v-0.5h-1L84.5,55.3z"/>
	<path class="st1" d="M108.2,51.7c-0.7,0-1.3,0.2-1.9,0.6c-0.6,0.4-1,0.9-1.3,1.6v-2.1c-0.3,0-1.4,0.1-3.6,0.2
		c-0.7,0-1.4,0.1-2.1,0.1v0.5h1.1v9.1h-1.1v0.5h7.3v-0.5h-1.4v-5V56c0-0.4,0-0.7,0-1c0-0.3,0.1-0.6,0.2-0.9c0-0.1,0.1-0.3,0.3-0.6
		c0.2-0.3,0.3-0.4,0.4-0.4c0.1,0,0.1,0,0.2,0.1c-0.1,0.3-0.1,0.7-0.1,1c0,0.7,0.2,1.3,0.6,1.7c0.4,0.4,0.9,0.6,1.6,0.6
		c0.7,0,1.2-0.2,1.7-0.7c0.4-0.5,0.6-1.1,0.6-1.8c0-0.8-0.3-1.3-0.7-1.8C109.5,51.9,108.9,51.7,108.2,51.7z"/>
	<path class="st1" d="M98.2,60.9c-0.1,0-0.4-0.1-0.4-0.2c0-0.1-0.1-0.2-0.1-0.4v-5.8c0-0.8-0.2-1.4-0.5-1.7
		c-0.4-0.4-0.9-0.7-1.6-0.8c-0.4-0.1-1-0.2-1.7-0.3c-0.7-0.1-1.3-0.1-1.8-0.1c-2,0-3.3,0.3-4.1,0.8c-0.5,0.4-0.8,0.9-0.8,1.5
		c0,0.6,0.2,1,0.7,1.3c0.4,0.2,0.8,0.4,1.4,0.4c0.7,0,1.3-0.1,1.7-0.3c0.6-0.3,0.9-0.8,0.9-1.4c0-0.4-0.1-0.7-0.4-1
		c-0.2-0.3-0.4-0.5-0.4-0.5c0-0.1,0.1-0.1,0.2-0.2c0.2,0,0.4-0.1,0.6-0.1c0.4,0,0.8,0.1,1,0.3c0.2,0.2,0.2,0.5,0.2,1v2.8h-1.1
		c-0.8,0-1.6,0.1-2.3,0.2c-1.3,0.2-2.2,0.6-2.8,1.3c-0.5,0.5-0.7,1.2-0.7,2c0,0.9,0.3,1.6,1,2c0.5,0.4,1.2,0.6,2.1,0.6
		c0.8,0,1.5-0.1,2.1-0.3c0.7-0.3,1.3-0.6,1.8-1.2c0.3,0.6,0.6,1,1,1.2c0.4,0.2,0.9,0.3,1.5,0.3c0.6,0,1.2-0.1,1.7-0.4
		c0.5-0.2,1-0.6,1.4-1l0-0.5C98.7,60.7,98.3,60.9,98.2,60.9z M93.1,59c0,0.6,0,1.1-0.1,1.4c-0.2,0.5-0.5,0.8-1,0.8
		c-0.3,0-0.6-0.2-0.7-0.7c-0.1-0.2-0.1-0.6-0.1-1.1v-0.6c0-0.6,0-1,0.2-1.3c0.2-0.4,0.4-0.6,0.9-0.6h0.8V59z"/>
	<path class="st1" d="M128.4,46.3c-0.5,0-1.3,0-2.2,0.1c-1.9,0.1-3.1,0.2-3.7,0.2v0.5h1.1v14.2h-1.1v0.5h6.9v-0.5h-1.1V46.3z"/>
</g>
</svg>
