<?xml version="1.0" encoding="utf-8"?>
<!-- Generator: Adobe Illustrator 20.1.0, SVG Export Plug-In . SVG Version: 6.00 Build 0)  -->
<!DOCTYPE svg PUBLIC "-//W3C//DTD SVG 1.1//EN" "http://www.w3.org/Graphics/SVG/1.1/DTD/svg11.dtd">
<svg version="1.1" id="Слой_1" xmlns="http://www.w3.org/2000/svg" xmlns:xlink="http://www.w3.org/1999/xlink" x="0px" y="0px"
	 viewBox="0 0 165 110" style="enable-background:new 0 0 165 110;" xml:space="preserve">
<style type="text/css">
	.st0{fill:#FFFFFF;}
	.st1{fill-rule:evenodd;clip-rule:evenodd;fill:#D0BA93;}
	.st2{fill-rule:evenodd;clip-rule:evenodd;fill:#FFFFFF;}
</style>
<rect class="st0" width="165" height="110"/>
<g>
	<polygon class="st1" points="41.4,21.4 82.5,92.6 123.6,21.4 41.4,21.4 	"/>
	<polygon class="st2" points="82.5,86.2 46.9,24.6 118.1,24.6 82.5,86.2 	"/>
	<path class="st1" d="M67.4,33.8H63v0.3c1.2,0.1,1.5,0.1,1.5,1.7v3c0,0.7-1.2,1.1-2.4,1.1c-2.7,0-4.5-2.1-4.5-5.5
		c0-4.7,2.6-5.9,4.2-5.9c2.5,0,3.4,1.9,3.9,3.2h0.4l-0.2-3.9h-0.4c-0.1,0.5-0.7,0.6-0.8,0.6c-0.6,0-1.4-0.6-3.1-0.6
		c-3.7,0-6,3.1-6,6.2c0,2.5,0.5,3.6,1.4,4.7c1.3,1.5,3.2,2.1,5,2.1c1.9,0,4.3-1.2,4.3-1.4v-3.8c0-1.3,0.4-1.4,1.2-1.5V33.8
		L67.4,33.8z"/>
	<path class="st1" d="M79.6,28.1h-4v0.3c1.2,0.1,1.6,0.4,1.6,2.4v5c0,1.5-0.2,2.1-0.4,2.6c-0.5,0.8-1.5,1.5-2.8,1.5
		c-3,0-3-2.6-3-3.8v-5.9c0-1.3,0.2-1.6,1.6-1.7v-0.3h-4.9v0.3c1.3,0.1,1.6,0.3,1.6,1.7v5.8c0,1.1,0,4.8,4.3,4.8
		c4.5,0,4.5-3.6,4.5-5.1v-4.8c0-2,0.3-2.2,1.7-2.4V28.1L79.6,28.1z"/>
	<path class="st1" d="M90.4,37.2h-0.5c-0.7,1.9-1.6,2.4-3.8,2.4c-2.6,0-2.6,0-2.6-0.8v-4.6h2.7c1.5,0,1.7,0.3,1.9,1.8h0.4v-4.3H88
		c-0.2,1.3-0.4,1.7-1.9,1.7h-2.7v-4.1c0-0.7,0.2-0.7,0.6-0.7h2.4c1.9,0,2.4,0.3,2.6,2h0.5l-0.1-2.6h-9.3v0.3
		c1.1,0.1,1.5,0.2,1.5,1.7v8.3c0,1.4-0.4,1.6-1.5,1.7v0.3h9.4L90.4,37.2L90.4,37.2z"/>
	<path class="st1" d="M98.2,27.8h-0.4c-0.1,0.2-0.1,0.6-0.6,0.6c-0.4,0-1.4-0.6-2.4-0.6c-1.6,0-3.1,1.1-3.1,3.2
		c0,1.8,1.1,2.6,2.7,3.6c2.6,1.6,2.8,2.2,2.8,3.3c0,1-0.7,2.1-2.1,2.1c-2.4,0-3.3-2.5-3.6-3.3h-0.4l0.5,4H92c0-0.3,0.2-0.7,0.6-0.7
		c0.5,0,1.4,0.7,2.7,0.7c2.5,0,3.7-1.9,3.7-3.5c0-3.8-5.8-4.2-5.8-6.9c0-1.2,0.9-1.7,1.8-1.7c1.8,0,2.9,1.7,3.3,3.2h0.4L98.2,27.8
		L98.2,27.8z"/>
	<path class="st1" d="M107.6,27.8h-0.4c-0.1,0.2-0.1,0.6-0.6,0.6c-0.4,0-1.4-0.6-2.4-0.6c-1.6,0-3.1,1.1-3.1,3.2
		c0,1.8,1.1,2.6,2.7,3.6c2.6,1.6,2.8,2.2,2.8,3.3c0,1-0.7,2.1-2.1,2.1c-2.4,0-3.3-2.5-3.6-3.3h-0.4l0.5,4h0.4c0-0.3,0.2-0.7,0.6-0.7
		c0.5,0,1.4,0.7,2.7,0.7c2.5,0,3.7-1.9,3.7-3.5c0-3.8-5.8-4.2-5.8-6.9c0-1.2,0.9-1.7,1.8-1.7c1.8,0,2.9,1.7,3.3,3.2h0.4L107.6,27.8
		L107.6,27.8z"/>
	<path class="st1" d="M88.9,58.8c0.5-1.7,0.4-3.3-0.4-4.8c-0.6-1.3-1.8-2.3-3.2-2.5C82.6,51,80,51,77.7,51.7c-2.2,0.7-3,3.7-3,5.7
		v2.1h3.9l0.1-1.8c0-0.4,0.2-0.9,0.2-1.4c0.1-0.7,1.2-1,2.4-1.1c1.6-0.1,3.1,0.3,3,1.5c0,0.6,0.2,1.3-0.5,1.8L81.3,61
		c-0.7,0.6-1,1.8-1,2.8v4.5h4.3v-3.2c0-1.4,0.7-2.7,1.6-3.6C86.9,60.9,88.6,59.7,88.9,58.8L88.9,58.8z"/>
	<polygon class="st1" points="86.6,77.6 78.4,77.6 82.5,70.4 86.6,77.6 	"/>
	<path class="st1" d="M111.3,26.9h-0.5v0.9h0.5c0.4,0,0.7,0,0.7-0.5C112.1,26.9,111.7,26.9,111.3,26.9L111.3,26.9L111.3,26.9z
		 M111.3,30.6c1.4,0,2.6-1.1,2.6-2.6c0-1.5-1.2-2.6-2.6-2.6c-1.4,0-2.7,1.1-2.7,2.6C108.6,29.5,109.9,30.6,111.3,30.6L111.3,30.6z
		 M111.3,25.8c1.2,0,2.1,0.9,2.1,2.2c0,1.3-0.9,2.2-2.1,2.2c-1.2,0-2.1-0.9-2.1-2.2C109.2,26.8,110.1,25.8,111.3,25.8L111.3,25.8z
		 M111.3,28.2L111.3,28.2l-0.5,0v1.3h-0.5v-3h1h0.2c0.7,0,1.1,0.3,1.1,0.8c0,0.5-0.3,0.8-0.8,0.8l0.8,1.3h-0.5L111.3,28.2
		L111.3,28.2z"/>
	<path class="st1" d="M84.3,46.2h-0.4v0.4h0.4V46.2L84.3,46.2z M85.7,45.6h0.4l-0.4-1.1h0l0,0l-0.4,1.1H85.7L85.7,45.6z M85.7,44.1
		H86l0.9,2.5h-0.4l-0.2-0.7h-0.5h-0.5L85,46.6h-0.4l1-2.5H85.7L85.7,44.1z M87.6,46.2h-0.4v0.4h0.4V46.2L87.6,46.2z M79.9,44.1v1.6
		c0,0.5-0.3,0.7-0.7,0.7c-0.3,0-0.6-0.2-0.6-0.7v-1.6h-0.4v1.7c0,0.5,0.3,0.9,1,0.9c0.7,0,1-0.5,1-1v-1.6H79.9L79.9,44.1z M81,46.2
		h-0.4v0.4H81V46.2L81,46.2z M83.4,44.8c0-0.3-0.1-0.8-1-0.8c-0.6,0-0.9,0.4-0.9,0.8c0,0.4,0.4,0.5,0.5,0.6l0.5,0.1
		c0.4,0.1,0.5,0.2,0.5,0.5c0,0.4-0.4,0.4-0.7,0.4c-0.3,0-0.7-0.1-0.7-0.6h-0.3c0,0.2,0.1,0.4,0.3,0.6c0.1,0.1,0.3,0.3,0.8,0.3
		c0.4,0,1-0.2,1-0.8c0-0.4-0.2-0.6-0.6-0.7l-0.7-0.2c-0.2,0-0.3-0.1-0.3-0.3c0-0.4,0.4-0.4,0.6-0.4c0.3,0,0.6,0.1,0.6,0.5H83.4
		L83.4,44.8z"/>
	<path class="st1" d="M93.4,58.7l-0.4,0.8l0.4,0.2l0.2,0.1l0.7-1.2l0.3,0.2L93.9,60l0.7,0.4l0.2-0.4l0.5-0.9l0.3,0.2l-0.8,1.4
		l-0.1,0.2l-1.3-0.8l-0.9-0.5l0.9-1.5l0.1-0.1l0.3,0.2L93.4,58.7L93.4,58.7z M97.2,56.6L97.2,56.6L97.2,56.6L97,56.9l-1.2-0.7
		l-1-0.6l0.2-0.4l0.8,0l1.3,0h0.3l0,0L97.2,55l-1.3-0.8l-0.2-0.1l0.2-0.3l0,0l1.3,0.8l0.8,0.5l-0.2,0.3l-0.7,0l-1.3,0.1l-0.4,0
		l0.4,0.2L97.2,56.6L97.2,56.6z M97.2,53.4C97.2,53.4,97.2,53.4,97.2,53.4l0.6-0.6c0.2-0.2,0.5-0.4,0.9-0.2c0.5,0.3,0.4,0.9,0.2,1.2
		c-0.2,0.4-0.5,0.5-0.6,0.5c-0.3,0.1-0.5,0-0.7-0.1l0.2-0.3c0.4,0.2,0.7,0,0.9-0.3c0.1-0.2,0.3-0.6,0-0.8c-0.2-0.1-0.4-0.1-0.7,0.2
		l-0.4,0.4c-0.1,0.1-0.2,0.2-0.3,0.2c-0.1,0-0.3,0-0.5-0.1c-0.4-0.2-0.5-0.6-0.2-1.2c0.2-0.4,0.5-0.5,0.7-0.6c0.2,0,0.4,0.1,0.5,0.1
		l-0.2,0.3c-0.1-0.1-0.2-0.1-0.3-0.1c-0.2,0-0.3,0.2-0.4,0.4c-0.1,0.2-0.2,0.5,0.1,0.7C97,53.5,97.1,53.5,97.2,53.4L97.2,53.4z
		 M95.8,58.7L95.8,58.7v0.2l-0.1,0.2L94.8,58L94,57l0.2-0.3l0.6,0.1l1,0.2l1,0.2l-0.2,0.3l-0.8-0.2l-0.1,0.1l-0.4,0.8L95.8,58.7
		L95.8,58.7z M94.8,57.5l0.4,0.5l0.4-0.7l-0.8-0.2L94.4,57v0L94.8,57.5L94.8,57.5z M93.4,62.4c0.2,0.1,0.5,0,0.8-0.4
		c0.2-0.3,0.2-0.7-0.3-1l-0.5-0.3l-1.2-0.7l-0.2,0.3l1.3,0.8l0.3,0.2c0.2,0.1,0.3,0.3,0.2,0.6c-0.1,0.2-0.3,0.3-0.5,0.2
		c0,0,0,0-0.1,0l-0.2-0.1L93,62.2l0.2,0.1C93.2,62.4,93.3,62.4,93.4,62.4L93.4,62.4z"/>
	<path class="st1" d="M68.5,56.7c-0.2,0.1-0.3,0.2-0.3,0.5c0,0.2-0.1,0.4,0.2,0.8c0,0.1,0.1,0.2,0.2,0.2c0.2,0.3,0.6,0.5,1,0.2
		c0.3-0.2,0.4-0.5,0.3-0.8l-0.2-0.7c0-0.1-0.1-0.3,0.1-0.4c0.1-0.1,0.2-0.1,0.2-0.1c0.2,0,0.3,0.2,0.4,0.3c0.2,0.2,0.2,0.6-0.1,0.8
		l0.2,0.3c0.2-0.2,0.7-0.5,0.2-1.3c-0.2-0.3-0.4-0.5-0.7-0.5c-0.2,0-0.3,0-0.5,0.1c-0.4,0.2-0.3,0.6-0.2,0.8l0.2,0.5
		c0.1,0.4,0.1,0.6-0.1,0.7c-0.3,0.2-0.6-0.1-0.7-0.4c0-0.1-0.1-0.2-0.1-0.2c0-0.1,0-0.2,0-0.4c0-0.1,0.1-0.2,0.3-0.3l-0.2-0.3
		C68.5,56.7,68.5,56.7,68.5,56.7L68.5,56.7z M74.4,63.5v0.2c0,0.4-0.3,0.7-0.7,0.9c-0.4,0.2-0.8,0.3-1.2,0.2
		c-0.2-0.1-0.3-0.2-0.5-0.4l-0.5-0.9l1-0.6l1.2-0.7l0.5,0.9C74.3,63.2,74.4,63.3,74.4,63.5L74.4,63.5z M72.5,64.4
		c0.2,0.2,0.6,0.1,1-0.1c0.5-0.3,0.7-0.7,0.5-1.1l-0.3-0.6l-1.1,0.7L72,63.6l0.3,0.6C72.3,64.2,72.4,64.3,72.5,64.4L72.5,64.4z
		 M72.5,60.2L72.5,60.2l1,1.6l-0.3,0.2l-0.7-1.2l0-0.1l-0.7,0.4l0.7,1.2l-0.3,0.1l-0.7-1.2l-0.2,0.1l-0.5,0.3l0.5,0.9l0.2,0.4
		L71.3,63l0,0l-0.9-1.6l1-0.5L72.5,60.2L72.5,60.2z M71.3,60.2l0.9-0.5l-0.2-0.3l-0.8,0.4l-0.1,0.1l-0.7-1.1l0.8-0.5l0.1-0.1
		L71.3,58l-0.1-0.1l-1.3,0.8l-0.8,0.5l0.2,0.3l0.7-0.4l0.3-0.2l0.7,1.2l-1,0.6l0,0l0,0l0.2,0.3L71.3,60.2L71.3,60.2z M68.5,53.8
		l0.4-0.1l-0.2-0.3l-0.2,0.1L66.6,54h0l1.5-1.5l-0.2-0.3l-2.1,0.5v0l1.5-1.4l-0.2-0.3l-1.9,1.8l0.2,0.3l2.1-0.5l-1.5,1.5l0.2,0.3
		L68.5,53.8L68.5,53.8z M68.5,55.5l0.6-0.7l0,0l-0.6,0.1L67.9,55l0.4,0.7L68.5,55.5L68.5,55.5z M68.5,54.6l0.8-0.1l0.2,0.3l-1,1.2
		l-0.7,0.8l-0.2-0.3l0.5-0.6l-0.5-0.9l-0.8,0.2l-0.2-0.3L68.5,54.6L68.5,54.6z"/>
	<path class="st1" d="M78,72.8c-0.1,0-0.2,0.1-0.2,0.2c-0.2,0.3,0.1,0.4,0.2,0.5l-0.1,0.2c-0.5-0.3-0.3-0.7-0.2-0.8
		c0.1-0.2,0.2-0.3,0.4-0.3c0.1,0,0.2,0,0.3,0.1c0.3,0.2,0.3,0.4,0.3,0.7v0.2c0,0.3,0.1,0.4,0.1,0.4l0.2-0.3l0.3-0.5l0.2,0.1L78.9,74
		l-0.1,0.2c-0.3-0.2-0.4-0.4-0.4-0.7v-0.3c0-0.2,0-0.4-0.2-0.5C78.2,72.8,78.1,72.8,78,72.8L78,72.8z M78.9,72.4
		c0.4,0.2,0.6,0.2,0.8,0c0.1-0.2,0-0.4-0.4-0.6c-0.1-0.1-0.2-0.1-0.3-0.2c-0.2-0.1-0.4,0-0.4,0.1C78.4,72,78.5,72.2,78.9,72.4
		C78.9,72.4,78.9,72.4,78.9,72.4L78.9,72.4z M78.9,71.4c0.2,0,0.3,0.1,0.4,0.2c0.3,0.2,0.7,0.5,0.5,0.9c-0.2,0.4-0.6,0.3-0.9,0.1
		c-0.1,0-0.1-0.1-0.1-0.1c-0.3-0.2-0.7-0.5-0.5-0.9C78.5,71.4,78.7,71.4,78.9,71.4L78.9,71.4z M79.1,70.3L79,70.5
		c0.2,0.2,0.2,0.3,0.1,0.6l0.1,0.1l0.2-0.3l1.1,0.6l0.1-0.2L79.1,70.3L79.1,70.3z M78,74.7l0.4,0.2l0.1-0.2L78,74.4l-1-0.6L77,74
		c0.2,0.2,0.2,0.3,0.1,0.6l0.1,0.1l0.2-0.3L78,74.7L78,74.7z"/>
	<path class="st1" d="M85.5,72.2c-0.2-0.1-0.3,0-0.3,0l0.3,0.5l0.2,0.3l-0.2,0.1l0,0l-0.6-1c0.2-0.1,0.4-0.1,0.6-0.1
		c0.1,0,0.1,0.1,0.2,0.1l0.2,0.1c0.2,0.1,0.3,0.2,0.5,0.1c0,0,0,0,0,0c0.1-0.1,0.2-0.2,0.1-0.5c0-0.1-0.1-0.1-0.1-0.1
		c-0.2-0.1-0.3,0-0.4,0.1l-0.1-0.2c0.2-0.1,0.4-0.1,0.5-0.1c0.2,0.1,0.3,0.2,0.3,0.3c0.1,0.2,0.1,0.6-0.2,0.7
		c-0.1,0-0.1,0.1-0.2,0.1c-0.2,0-0.4-0.1-0.6-0.2l-0.2-0.1C85.6,72.3,85.6,72.3,85.5,72.2L85.5,72.2z M86.9,75.1
		c0.1,0.1,0.2,0.1,0.3,0c0.2-0.1,0.1-0.4,0.1-0.5c0,0,0-0.1,0-0.1l0.2-0.1c0,0,0,0.1,0,0.1c0.1,0.1,0.2,0.3,0.4,0.1
		c0.1,0,0.2-0.2,0.1-0.4c-0.2-0.3-0.4-0.2-0.5-0.1l-0.1-0.2c0.2-0.1,0.5-0.2,0.8,0.2c0.2,0.3,0.1,0.6-0.1,0.7
		c-0.2,0.1-0.3,0.1-0.4,0c0,0.2,0,0.3-0.2,0.5c-0.1,0.1-0.3,0.1-0.5,0c-0.1,0-0.2-0.1-0.3-0.3c-0.1-0.1-0.1-0.2-0.1-0.3
		c0-0.2,0.1-0.4,0.3-0.5l0.1,0.2v0c-0.1,0.1-0.3,0.2-0.2,0.5C86.7,75,86.8,75,86.9,75.1L86.9,75.1z M86.9,73.9
		C86.9,73.9,86.9,73.9,86.9,73.9c0.4-0.2,0.8-0.6,0.5-1c-0.1-0.2-0.3-0.3-0.5-0.3c-0.2,0-0.3,0.1-0.5,0.2c0,0,0,0-0.1,0
		c-0.3,0.2-0.7,0.5-0.5,0.9c0.1,0.2,0.3,0.3,0.5,0.3C86.6,74.1,86.7,74,86.9,73.9L86.9,73.9z M86.9,72.9c0.2,0,0.3,0,0.4,0.1
		c0.1,0.2,0,0.4-0.4,0.6c0,0,0,0,0,0c-0.2,0.1-0.3,0.1-0.4,0.2c-0.2,0-0.3,0-0.4-0.1c-0.1-0.2,0-0.4,0.4-0.6c0,0,0,0,0.1,0
		C86.6,73,86.7,72.9,86.9,72.9L86.9,72.9z M86.1,70.8l-0.1-0.2c-0.3,0.1-0.4,0-0.5-0.2l-0.2,0.1l0.2,0.2l0.1,0.1l-0.1,0l-1,0.6
		l0.1,0.2l0.9-0.5L86.1,70.8L86.1,70.8z"/>
</g>
</svg>
