<?xml version="1.0" encoding="utf-8"?>
<!-- Generator: Adobe Illustrator 20.1.0, SVG Export Plug-In . SVG Version: 6.00 Build 0)  -->
<!DOCTYPE svg PUBLIC "-//W3C//DTD SVG 1.1//EN" "http://www.w3.org/Graphics/SVG/1.1/DTD/svg11.dtd">
<svg version="1.1" id="Слой_1" xmlns="http://www.w3.org/2000/svg" xmlns:xlink="http://www.w3.org/1999/xlink" x="0px" y="0px"
	 viewBox="0 0 165 110" style="enable-background:new 0 0 165 110;" xml:space="preserve">
<style type="text/css">
	.st0{fill:#FFFFFF;}
	.st1{fill:#D0BA93;}
</style>
<rect class="st0" width="165" height="110"/>
<g>
	<g>
		<path class="st1" d="M36.5,58.4c0,2.8-1.5,5.6-6,5.6c-3.8,0-5.9-2.1-5.9-5.9v-1.3h2.7v0.9c0,2.4,0.6,4,3.3,4
			c2.5,0,3.2-1.4,3.2-3.7V43.1h2.7V58.4z"/>
		<path class="st1" d="M53.2,49.2c-0.6-2.9-2.9-4.3-5.7-4.3c-4.8,0-6.9,4-6.9,8.2c0,4.6,2.1,8.5,6.9,8.5c3.6,0,5.6-2.5,5.9-5.9h2.7
			c-0.5,5.1-3.7,8.1-8.8,8.1c-6.3,0-9.4-4.7-9.4-10.6c0-5.9,3.4-10.7,9.6-10.7c4.2,0,7.7,2.3,8.4,6.6H53.2z"/>
	</g>
	<g>
		<path class="st1" d="M57.2,43.1h8.9c4,0,6.2,2.2,6.2,6c0,3.8-2.2,6-6.2,6H60v8.3h-2.7V43.1z M60,52.9h5.3c3,0,4.4-1.3,4.4-3.7
			c0-2.4-1.4-3.7-4.4-3.7H60V52.9z"/>
		<path class="st1" d="M85.2,58.8c-0.7,3.2-3,5-6.3,5c-4.7,0-6.9-3.2-7.1-7.7c0-4.4,2.9-7.7,6.9-7.7c5.2,0,6.8,4.9,6.7,8.4h-11
			c-0.1,2.6,1.4,4.8,4.6,4.8c2,0,3.4-1,3.8-2.9H85.2z M82.8,54.7c-0.1-2.3-1.9-4.2-4.2-4.2c-2.5,0-4,1.9-4.2,4.2H82.8z"/>
	</g>
	<g>
		<path class="st1" d="M86.5,48.7h2.3v2.3h0.1c1-1.8,2.7-2.7,4.8-2.7c3.9,0,5.1,2.2,5.1,5.4v9.7h-2.4v-10c0-1.8-1.1-3-3-3
			c-2.9,0-4.4,2-4.4,4.6v8.3h-2.4V48.7z"/>
		<path class="st1" d="M100.6,48.7h2.3v2.3h0.1c1-1.8,2.7-2.7,4.8-2.7c3.9,0,5.1,2.2,5.1,5.4v9.7h-2.4v-10c0-1.8-1.1-3-3-3
			c-2.9,0-4.4,2-4.4,4.6v8.3h-2.4V48.7z"/>
		<path class="st1" d="M127.2,58.8c-0.7,3.2-3,5-6.3,5c-4.7,0-6.9-3.2-7.1-7.7c0-4.4,2.9-7.7,6.9-7.7c5.2,0,6.8,4.9,6.7,8.4h-11
			c-0.1,2.6,1.4,4.8,4.6,4.8c2,0,3.4-1,3.8-2.9H127.2z M124.9,54.7c-0.1-2.3-1.9-4.2-4.2-4.2c-2.5,0-4,1.9-4.2,4.2H124.9z"/>
	</g>
	<g>
		<path class="st1" d="M134,65.4c-1.1,2.9-2.1,3.9-4.3,3.9c-0.6,0-1.1-0.1-1.7-0.3v-2.2c0.5,0.1,0.9,0.3,1.4,0.3c1,0,1.5-0.5,2-1.3
			l1-2.5l-5.8-14.6h2.7l4.3,12.1h0.1l4.1-12.1h2.6L134,65.4z"/>
	</g>
	<g>
		<path class="st1" d="M134.9,66.5c0.4,0,0.7,0.3,0.7,0.7c0,0.4-0.3,0.7-0.7,0.7c-0.4,0-0.7-0.3-0.7-0.7
			C134.2,66.8,134.5,66.5,134.9,66.5z M134.9,67.8c0.3,0,0.6-0.3,0.6-0.6c0-0.3-0.3-0.6-0.6-0.6c-0.3,0-0.6,0.3-0.6,0.6
			C134.3,67.5,134.6,67.8,134.9,67.8z M134.6,66.8h0.3c0.2,0,0.3,0.1,0.3,0.2c0,0.2-0.1,0.2-0.2,0.2l0.2,0.4h-0.1l-0.2-0.4h-0.1v0.4
			h-0.1V66.8z M134.8,67.1h0.1c0.1,0,0.2,0,0.2-0.1c0-0.1-0.1-0.1-0.2-0.1h-0.2V67.1z"/>
	</g>
</g>
</svg>
