<?xml version="1.0" encoding="utf-8"?>
<!-- Generator: Adobe Illustrator 20.1.0, SVG Export Plug-In . SVG Version: 6.00 Build 0)  -->
<!DOCTYPE svg PUBLIC "-//W3C//DTD SVG 1.1//EN" "http://www.w3.org/Graphics/SVG/1.1/DTD/svg11.dtd">
<svg version="1.1" id="Слой_1" xmlns="http://www.w3.org/2000/svg" xmlns:xlink="http://www.w3.org/1999/xlink" x="0px" y="0px"
	 viewBox="0 0 165 110" style="enable-background:new 0 0 165 110;" xml:space="preserve">
<style type="text/css">
	.st0{fill:#FFFFFF;}
	.st1{fill-rule:evenodd;clip-rule:evenodd;fill:#D0BA93;}
</style>
<rect class="st0" width="165" height="110"/>
<path class="st1" d="M102.9,66.7V56.6c0.7,0,1.3,0.1,1.9,0.4c-0.2-0.6-0.4-1.2-0.4-1.9c0-0.7,0.1-1.4,0.4-2c-0.6,0.3-1.3,0.4-2,0.4
	V43.3c2.8,0,5,2.3,5,5.1c0,0.7-0.1,1.4-0.4,2c0.6-0.3,1.3-0.4,2-0.4c2.8,0,5.1,2.3,5.1,5.1c0,2.8-2.3,5.1-5.1,5.1
	c-0.7,0-1.4-0.1-2-0.4c0.2,0.6,0.4,1.2,0.4,1.9C107.9,64.4,105.6,66.6,102.9,66.7L102.9,66.7z M122.6,44.9h10.2
	c3.2,0,5.9,2.6,5.9,5.9v14.8h-5.8V50.7c0-0.3-0.2-0.5-0.5-0.5H123c-0.3,0-0.5,0.2-0.5,0.5v14.9h-5.8V50.8
	C116.7,47.5,119.3,44.9,122.6,44.9z M102.9,43.3v10.1c0,0,0,0,0,0c-0.7,0-1.3-0.1-1.9-0.4c0.3,0.6,0.4,1.3,0.4,2
	c0,0.7-0.1,1.3-0.4,1.9c0.6-0.2,1.2-0.4,1.9-0.4c0,0,0,0,0,0v10.1c0,0,0,0,0,0c-2.8,0-5.1-2.3-5.1-5.1c0-0.7,0.1-1.3,0.4-1.9
	c-0.6,0.2-1.2,0.4-1.9,0.4c-1.8,0-3.5-1-4.3-2.5v-5.2c0.9-1.5,2.5-2.5,4.3-2.5c0.7,0,1.3,0.1,1.9,0.4c-0.3-0.6-0.4-1.3-0.4-2
	C97.8,45.6,100,43.3,102.9,43.3C102.8,43.3,102.9,43.3,102.9,43.3L102.9,43.3z M91.9,50.2h0.7V45h-0.7V50.2z M91.9,45v5.2H85v15.5
	h-6V50.2h-7.5V45H91.9L91.9,45z M91.9,52.4c-0.5,0.8-0.7,1.6-0.7,2.6c0,0.9,0.3,1.8,0.7,2.6V52.4L91.9,52.4z M71.5,57.2
	c0.3-0.7,0.5-1.4,0.5-2.2c0-0.8-0.2-1.5-0.5-2.2V57.2z M71.5,45v5.2h-0.5V45H71.5L71.5,45z M71.5,52.9C70.7,51.2,69,50,67,50
	c-0.7,0-1.4,0.1-2,0.4c0.3-0.6,0.4-1.3,0.4-2c0-2.8-2.2-5-5-5.1v10.1c0.7,0,1.4-0.1,2-0.4c-0.3,0.6-0.4,1.3-0.4,2
	c0,0.7,0.1,1.3,0.4,1.9c-0.6-0.3-1.2-0.4-1.9-0.4v10.1c2.8,0,5-2.3,5-5.1c0-0.7-0.1-1.3-0.4-1.9c0.6,0.3,1.3,0.4,2,0.4
	c2,0,3.8-1.2,4.6-2.9V52.9z M60.4,43.3v10.1c0,0,0,0,0,0c-0.7,0-1.3-0.1-1.9-0.4c0.3,0.6,0.4,1.3,0.4,2c0,0.7-0.1,1.3-0.4,1.9
	c0.6-0.2,1.2-0.4,1.9-0.4c0,0,0,0,0,0v10.1c0,0,0,0,0,0c-2.8,0-5.1-2.3-5.1-5.1c0-0.7,0.1-1.3,0.4-1.9c-0.6,0.2-1.2,0.4-1.9,0.4
	c-1.1,0-2.1-0.4-3-1V51c0.8-0.6,1.9-1,3-1c0.7,0,1.3,0.1,1.9,0.4c-0.3-0.6-0.4-1.3-0.4-2C55.3,45.6,57.5,43.3,60.4,43.3
	C60.3,43.3,60.3,43.3,60.4,43.3L60.4,43.3z M50.8,65.8h2.1l-2.1-1.7V65.8L50.8,65.8z M50.8,46.4l1.6-1.3h-1.6V46.4z M26.3,45h6v20.7
	h-6V45L26.3,45z M50.8,45v1.3l-10.9,8.8l10.9,8.9v1.7h-6.9l-8.4-7c-0.6-0.5-1-0.8-1.4-1.5c-0.4-0.7-0.7-1.5-0.6-2.3
	c0.1-0.6,0.3-1.2,0.8-1.8c0.4-0.5,0.8-0.8,1.2-1.2l8.4-6.9H50.8L50.8,45z M50.8,51c-1.3,0.9-2.1,2.4-2.1,4.1c0,1.7,0.8,3.2,2.1,4.1
	V51z"/>
</svg>
