<?xml version="1.0" encoding="utf-8"?>
<!-- Generator: Adobe Illustrator 20.1.0, SVG Export Plug-In . SVG Version: 6.00 Build 0)  -->
<!DOCTYPE svg PUBLIC "-//W3C//DTD SVG 1.1//EN" "http://www.w3.org/Graphics/SVG/1.1/DTD/svg11.dtd">
<svg version="1.1" id="Слой_1" xmlns="http://www.w3.org/2000/svg" xmlns:xlink="http://www.w3.org/1999/xlink" x="0px" y="0px"
	 viewBox="0 0 165 110" style="enable-background:new 0 0 165 110;" xml:space="preserve">
<style type="text/css">
	.st0{fill:#FFFFFF;}
	.st1{fill:#D0BA93;}
	.st2{fill-rule:evenodd;clip-rule:evenodd;fill:#D0BA93;}
</style>
<rect class="st0" width="165" height="110"/>
<g>
	<rect x="95" y="46.9" class="st1" width="4" height="16"/>
	<polygon class="st1" points="80.3,47 75.2,62.9 70.7,62.9 67.3,52.3 63.9,62.9 59.4,62.9 54.3,47 58.4,47 61.6,57.1 64.9,47 
		69.7,47 73,57.1 76.2,47 	"/>
	<polygon class="st1" points="23,46.9 27,46.9 27,59.4 34.4,59.4 34.4,62.9 27,62.9 23,62.9 23,59.4 	"/>
	<polygon class="st1" points="105.3,55.6 105.3,62.9 101.2,62.9 101.2,46.9 105.3,46.9 105.3,53 109.9,46.9 115.1,46.9 109.5,54.3 
		115.9,62.9 110.7,62.9 	"/>
	<rect x="116.5" y="46.9" class="st1" width="4" height="16"/>
	<polygon class="st1" points="126.5,55.6 126.5,62.9 122.5,62.9 122.5,46.9 126.5,46.9 126.5,53 131.1,46.9 136.4,46.9 130.8,54.3 
		137.1,62.9 131.9,62.9 	"/>
	<rect x="138" y="46.9" class="st1" width="4" height="16"/>
	<path class="st2" d="M34.2,54.1c0-4.2,3.4-7.6,7.6-7.6h1.9c3.4,0,6.3,2.3,7.3,5.4h-4.1c-0.8-1.4-2.3-2.4-4-2.4h-0.1
		c-2.5,0-4.6,2-4.6,4.6v1.7c0,2.5,2,4.6,4.6,4.6h0.1c1.7,0,3.2-1,4-2.4H51c-0.9,3.1-3.9,5.4-7.3,5.4h-1.9c-4.2,0-7.6-3.4-7.6-7.6
		V54.1z"/>
	<path class="st2" d="M80.7,47.8c0,0,5.7-2.8,10.3-0.1c0,0,2.3,1.4,2.2,5.6l0.1,9.7h-3.6v-7.4c0,0-6.3-0.6-6.5,2.3
		c-0.2,2.8,2.5,2.5,2.5,2.5s2.2-0.3,3.1-1.7v3.1c0,0-1.9,1.9-4.7,1.7c-2.8-0.2-4.3-2.2-4.3-2.2s-1.4-1.7-0.5-4.7
		c1-2.9,4.6-3.3,4.6-3.3s1.5-0.3,5.2-0.2c0,0,0.3-2.5-1.3-3c-1.6-0.5-4.1-0.1-4.1-0.1s-2.2,0.6-3.9,1.8L80.7,47.8z"/>
</g>
</svg>
