<?xml version="1.0" encoding="utf-8"?>
<!-- Generator: Adobe Illustrator 20.1.0, SVG Export Plug-In . SVG Version: 6.00 Build 0)  -->
<!DOCTYPE svg PUBLIC "-//W3C//DTD SVG 1.1//EN" "http://www.w3.org/Graphics/SVG/1.1/DTD/svg11.dtd">
<svg version="1.1" id="Слой_1" xmlns="http://www.w3.org/2000/svg" xmlns:xlink="http://www.w3.org/1999/xlink" x="0px" y="0px"
	 viewBox="0 0 165 110" style="enable-background:new 0 0 165 110;" xml:space="preserve">
<style type="text/css">
	.st0{fill:#FFFFFF;}
	.st1{fill-rule:evenodd;clip-rule:evenodd;fill:#D0BA93;}
</style>
<rect class="st0" width="165" height="110"/>
<path class="st1" d="M50.3,47.3c0-0.9,0.4-1.8,2.6-1.8v-0.6h-6l-6.6,15.2l-6.9-15.2h-5.9v0.6c2.4,0,2.9,1,2.9,1.8v15.1
	c0,0.9-0.5,1.8-2.9,1.8v0.6h7.1v-0.6c-2.5,0-2.9-1-2.9-1.8v-14l7.5,16.4h0.4l7.7-17.1v14.7c0,0.9-0.5,1.8-2.6,1.8v0.6H53v-0.6
	c-2.2,0-2.6-1-2.6-1.8L50.3,47.3L50.3,47.3z M62.9,56.1c0-3.7-1-5.1-4.3-5.1c-1.9,0-3.8,0.5-4.8,2.3c-0.6,1.1-0.4,2.3,1,2.3
	c0.7,0,1.3-0.6,1.3-1.3c0-0.8-0.2-1.4,0-1.7c0.3-0.6,1.4-0.8,2-0.8c1.9,0,2.2,1.2,2.2,4.3c-2.6,1.1-7.4,2.3-7.4,5.9
	c0,1.7,1.4,3.2,3.2,3.2c1.3,0,3-1.1,4.4-2.3c0,1.1,0.6,2.3,2.2,2.3c0.8,0,2-1.1,2.5-1.6v-0.8c-0.7,0.5-1.2,0.7-1.6,0.7
	c-0.4,0-0.6-0.4-0.6-0.9V56.1L62.9,56.1z M60.3,62c-0.3,0.7-2,1.3-2.6,1.3c-1.4,0-2.1-1.1-2.1-2.5c0-2.7,2.9-3.2,4.7-4V62L60.3,62z
	 M72.1,56.7l2.3-3.2c0.6-0.9,1.5-1.6,2.6-1.7v-0.4h-4.7v0.4c0.5,0,1.2,0.1,1.2,0.7c0,0.8-1.6,2.6-2,3.3c-0.3-0.5-1.8-2.7-1.8-3.2
	c0-0.4,0.2-0.8,1.3-0.8v-0.4h-6.2v0.4c1.9,0.1,2.1,1.1,2.8,2.2l2.6,3.9l-3.2,4.7c-0.8,1.1-1.3,1.9-2.4,1.9v0.4h4.4v-0.4
	c-1.5,0-1.5-0.3-0.4-2.1l2.2-3.4l3.1,4.4c0.5,0.7-0.3,1-1.4,1.1v0.4h6v-0.4c-1,0-1.9-0.9-2.7-2.1L72.1,56.7L72.1,56.7z M101.4,47.3
	c0-0.9,0.4-1.8,2.6-1.8v-0.6h-6l-6.6,15.2l-6.9-15.2h-5.9v0.6c2.4,0,2.9,1,2.9,1.8v15.1c0,0.9-0.5,1.8-2.9,1.8v0.6h7.1v-0.6
	c-2.5,0-2.9-1-2.9-1.8v-14l7.5,16.4h0.4l7.7-17.1v14.7c0,0.9-0.5,1.8-2.6,1.8v0.6h8.3v-0.6c-2.2,0-2.6-1-2.6-1.8L101.4,47.3
	L101.4,47.3z M114,56.1c0-3.7-1-5.1-4.3-5.1c-1.9,0-3.8,0.5-4.8,2.3c-0.6,1.1-0.4,2.3,1,2.3c0.7,0,1.3-0.6,1.3-1.3
	c0-0.8-0.2-1.4,0-1.7c0.3-0.6,1.4-0.8,2-0.8c1.9,0,2.2,1.2,2.2,4.3c-2.6,1.1-7.4,2.3-7.4,5.9c0,1.7,1.4,3.2,3.2,3.2
	c1.3,0,3-1.1,4.4-2.3c0,1.1,0.6,2.3,2.2,2.3c0.8,0,2-1.1,2.5-1.6v-0.8c-0.7,0.5-1.2,0.7-1.6,0.7c-0.4,0-0.6-0.4-0.6-0.9V56.1
	L114,56.1z M111.4,62c-0.3,0.7-2,1.3-2.6,1.3c-1.4,0-2.1-1.1-2.1-2.5c0-2.7,2.9-3.2,4.7-4V62L111.4,62z M118.4,62.4
	c0,1.3-0.5,1.9-2.3,2v0.4h7.1v-0.4c-1.8-0.1-2.3-0.7-2.3-2v-7.1c0-0.9,1.3-2.3,1.9-2.3c0.7,0,1,1.1,2,1.1c0.6,0,1.1-0.3,1.2-0.9
	c0.2-1.3-0.5-2-1.7-2c-1.5,0-2.8,1.7-3.4,2.7V51l-4.8,1.6v0.5c1.8-0.5,2.3-0.2,2.3,2.7V62.4L118.4,62.4z M135.4,56.1
	c0-3.7-1-5.1-4.3-5.1c-1.9,0-3.8,0.5-4.8,2.3c-0.6,1.1-0.4,2.3,1,2.3c0.7,0,1.3-0.6,1.3-1.3c0-0.8-0.1-1.4,0-1.7
	c0.3-0.6,1.4-0.8,2-0.8c1.9,0,2.2,1.2,2.2,4.3c-2.6,1.1-7.4,2.3-7.4,5.9c0,1.7,1.4,3.2,3.2,3.2c1.3,0,3-1.1,4.4-2.3
	c0,1.1,0.6,2.3,2.2,2.3c0.8,0,2-1.1,2.5-1.6v-0.8c-0.7,0.5-1.2,0.7-1.6,0.7c-0.4,0-0.6-0.4-0.6-0.9V56.1L135.4,56.1z M132.8,62
	c-0.3,0.7-2,1.3-2.6,1.3c-1.4,0-2.1-1.1-2.1-2.5c0-2.7,2.9-3.2,4.7-4V62L132.8,62z"/>
</svg>
