<?xml version="1.0" encoding="utf-8"?>
<!-- Generator: Adobe Illustrator 20.1.0, SVG Export Plug-In . SVG Version: 6.00 Build 0)  -->
<!DOCTYPE svg PUBLIC "-//W3C//DTD SVG 1.1//EN" "http://www.w3.org/Graphics/SVG/1.1/DTD/svg11.dtd">
<svg version="1.1" id="Слой_1" xmlns="http://www.w3.org/2000/svg" xmlns:xlink="http://www.w3.org/1999/xlink" x="0px" y="0px"
	 viewBox="0 0 165 110" style="enable-background:new 0 0 165 110;" xml:space="preserve">
<style type="text/css">
	.st0{fill:#FFFFFF;}
	.st1{fill-rule:evenodd;clip-rule:evenodd;fill:#D0BA93;}
</style>
<rect class="st0" width="165" height="110"/>
<g>
	<path class="st1" d="M38.5,65.8h12.6c0.1,0,0.1,0.1,0,0.1c-1.4,0.7-3.5,2.7-3.5,2.7c-1.4,1.4-2.5,2.3-5,2.3H30.6
		c-0.1,0-0.1-0.1,0-0.1C32,70.1,34,68,34,68C34.8,67,36.5,65.8,38.5,65.8L38.5,65.8z"/>
	<path class="st1" d="M121.7,65.8h12.7c0.1,0,0.1,0.1,0,0.1c-1.5,0.7-3.5,2.7-3.5,2.7c-1.5,1.4-2.6,2.3-5,2.3h-12.1
		c-0.1,0-0.1-0.1,0-0.1c1.3-0.7,3.3-2.8,3.3-2.8C118,67,119.6,65.8,121.7,65.8L121.7,65.8z"/>
	<path class="st1" d="M59.3,65.8H72c0.1,0,0.1,0.1,0,0.1c-1.4,0.7-3.5,2.7-3.5,2.7c-1.4,1.4-2.5,2.3-5,2.3H51.5
		c-0.1,0-0.1-0.1-0.1-0.1c1.3-0.7,3.3-2.8,3.3-2.8C55.5,67,57.2,65.8,59.3,65.8L59.3,65.8z"/>
	<path class="st1" d="M80.1,65.8h12.6c0.1,0,0.1,0.1,0,0.1c-1.4,0.7-3.5,2.7-3.5,2.7c-1.4,1.4-2.5,2.3-4.9,2.3H72.3
		c-0.1,0-0.1-0.1-0.1-0.1c1.4-0.7,3.3-2.8,3.3-2.8C76.3,67,78,65.8,80.1,65.8L80.1,65.8z"/>
	<path class="st1" d="M100.9,65.8h12.7c0.1,0,0.1,0.1-0.1,0.1c-1.4,0.7-3.5,2.7-3.5,2.7c-1.4,1.4-2.5,2.3-4.9,2.3H93
		c-0.1,0-0.1-0.1,0-0.1c1.3-0.7,3.3-2.8,3.3-2.8C97.1,67,98.8,65.8,100.9,65.8L100.9,65.8z"/>
	<path class="st1" d="M104.4,41.1c-8,0-13.3,4.1-13.3,10.4c0,5.8,4.9,9.6,12.1,9.6c2.4,0,4.4-0.3,6.9-1v-4.8c-1.7,1.9-3.8,2.7-6,2.7
		c-4.3,0-7.2-2.8-7.2-7c0-4.1,3-7,7.3-7c2.3,0,4.1,0.9,5.6,2.4v-4.9C108.2,41.3,106.3,41.1,104.4,41.1L104.4,41.1z"/>
	<path class="st1" d="M44.7,44.5c3,0,6.5,0.6,8,1.8v-4.6h-21v4.6c1.5-1.3,4.7-1.8,8.1-1.8v12.6c0,1.8-0.1,2.4-0.9,3.3h6.7
		c-0.7-1-0.9-1.5-0.9-3.3V44.5L44.7,44.5z"/>
	<path class="st1" d="M66.2,49c-1.2,0.4-3.4,0.5-4.5,0.5h-1.8v-5h2.4c2.1,0,5.8,0.4,7.2,1.7v-4.5H54.1c0.7,0.9,0.9,1.5,0.9,3.3v12.1
		c0,1.8-0.1,2.4-0.8,3.3h16.3v-4.6c-2.2,1.7-6.5,1.7-8.2,1.7h-2.4v-5.3h1.7c1.2,0,3.3,0.1,4.6,0.6V49L66.2,49z"/>
	<path class="st1" d="M88.9,42.3c-2.4-0.8-5.6-1.3-8.1-1.3c-4.4,0-8.7,1.4-8.7,6.1c0,8.1,13.3,3.8,13.3,8.9c0,1.6-2.4,2.3-4.3,2.3
		c-3.4,0-5.8-0.6-8.7-2.5V60c2.2,0.7,5.3,1.2,8.5,1.2c4.6,0,8.9-1.3,8.9-6.1c0-8.6-13.2-4.7-13.2-8.9c0-1.7,2.1-2.3,4-2.3
		c3.1,0,6.5,1,8.4,2.8V42.3L88.9,42.3z"/>
	<path class="st1" d="M123.1,41.4c-7.2,0-12.3,4.1-12.3,10c0,5.8,4.6,9.5,11.3,9.5c7.2,0,12.3-4,12.3-9.9
		C134.4,45.2,129.8,41.4,123.1,41.4L123.1,41.4z M122.5,58.1c-3.8,0-6.3-3.1-6.3-7c0-3.8,2.4-7,6.3-7c3.8,0,6.3,3.1,6.3,7
		C128.8,55,126.3,58.1,122.5,58.1L122.5,58.1z"/>
</g>
</svg>
