<svg xmlns="http://www.w3.org/2000/svg" xmlns:xlink="http://www.w3.org/1999/xlink" viewBox="0 0 35 28.64"><defs><style>.cls-1{fill:url(#Безымянный_градиент_9);}.cls-2{fill:url(#Безымянный_градиент_9-2);}.cls-3{fill:url(#Безымянный_градиент_9-3);}</style><linearGradient id="Безымянный_градиент_9" x1="15.91" y1="14.32" x2="20.55" y2="14.32" gradientUnits="userSpaceOnUse"><stop offset="0" stop-color="#f16944"/><stop offset="1" stop-color="#f14444"/></linearGradient><linearGradient id="Безымянный_градиент_9-2" x1="0" y1="14.32" x2="35" y2="14.32" xlink:href="#Безымянный_градиент_9"/><linearGradient id="Безымянный_градиент_9-3" x1="7.96" y1="14.32" x2="27.05" y2="14.32" xlink:href="#Безымянный_градиент_9"/></defs><title>1</title><g id="Слой_2" data-name="Слой 2"><g id="Слой_1-2" data-name="Слой 1"><path id="_Контур_" data-name="&lt;Контур&gt;" class="cls-1" d="M16.16,17.33l4.31-2.88a.16.16,0,0,0,0-.27l-4.31-2.88a.16.16,0,0,0-.25.14V17.2A.16.16,0,0,0,16.16,17.33Z"/><path id="_Составной_контур_" data-name="&lt;Составной контур&gt;" class="cls-2" d="M31.82,0H3.18A3.18,3.18,0,0,0,0,3.18V25.46a3.19,3.19,0,0,0,3.18,3.18H31.82A3.19,3.19,0,0,0,35,25.46V3.18A3.18,3.18,0,0,0,31.82,0ZM3.18,25.46V3.18H31.82V25.46Z"/><path id="_Составной_контур_2" data-name="&lt;Составной контур&gt;" class="cls-3" d="M17.5,4.77A9.55,9.55,0,1,0,27,14.32,9.56,9.56,0,0,0,17.5,4.77Zm0,15.91a6.36,6.36,0,1,1,6.36-6.36A6.37,6.37,0,0,1,17.5,20.68Z"/></g></g></svg>