<svg xmlns="http://www.w3.org/2000/svg" xmlns:xlink="http://www.w3.org/1999/xlink" viewBox="0 0 32.03 32.11"><defs><style>.cls-1{fill:url(#Безымянный_градиент_9);}.cls-2{fill:url(#Безымянный_градиент_9-2);}.cls-3{fill:url(#Безымянный_градиент_9-3);}</style><linearGradient id="Безымянный_градиент_9" x1="8.32" y1="17.48" x2="18.14" y2="17.48" gradientUnits="userSpaceOnUse"><stop offset="0" stop-color="#f16944"/><stop offset="1" stop-color="#f14444"/></linearGradient><linearGradient id="Безымянный_градиент_9-2" x1="9.9" y1="9.99" x2="16.56" y2="9.99" xlink:href="#Безымянный_градиент_9"/><linearGradient id="Безымянный_градиент_9-3" x1="0" y1="16.06" x2="32.03" y2="16.06" xlink:href="#Безымянный_градиент_9"/></defs><title>2</title><g id="Слой_2" data-name="Слой 2"><g id="Слой_1-2" data-name="Слой 1"><path class="cls-1" d="M9.33,20a1,1,0,0,1-1-1.14A4.57,4.57,0,0,1,13.23,15h0a4.57,4.57,0,0,1,4.9,3.85,1,1,0,0,1-1,1.14Z"/><circle class="cls-2" cx="13.23" cy="9.99" r="3.33"/><path class="cls-3" d="M29.19,31.62a1.66,1.66,0,0,0,2.35,0h0a1.66,1.66,0,0,0,0-2.35l-7.75-7.75A13.31,13.31,0,0,0,13.32,0,13.31,13.31,0,0,0,3.9,22.73a13.29,13.29,0,0,0,17.52,1.13ZM13.32,23.3a10,10,0,0,1-7.06-17A10,10,0,1,1,20.38,20.38,9.92,9.92,0,0,1,13.32,23.3Z"/></g></g></svg>