<svg xmlns="http://www.w3.org/2000/svg" xmlns:xlink="http://www.w3.org/1999/xlink" viewBox="0 0 38.41 31.42"><defs><style>.cls-1{fill:url(#Безымянный_градиент_9);}.cls-2{fill:url(#Безымянный_градиент_9-2);}</style><linearGradient id="Безымянный_градиент_9" y1="13.96" x2="38.41" y2="13.96" gradientUnits="userSpaceOnUse"><stop offset="0" stop-color="#f16944"/><stop offset="1" stop-color="#f14444"/></linearGradient><linearGradient id="Безымянный_градиент_9-2" y1="27.93" x2="3.49" y2="27.93" xlink:href="#Безымянный_градиент_9"/></defs><title>3</title><g id="Слой_2" data-name="Слой 2"><g id="Слой_1-2" data-name="Слой 1"><g id="_Группа_" data-name="&lt;Группа&gt;"><path id="_Составной_контур_" data-name="&lt;Составной контур&gt;" class="cls-1" d="M37.44,8.91,20,.18a1.75,1.75,0,0,0-1.56,0L1,8.91a1.74,1.74,0,0,0-.78.81,2.14,2.14,0,0,0-.19.75V20.54a1.75,1.75,0,1,0,3.49,0V13.05L7,14.45V23a1.75,1.75,0,0,0,1,1.56c3,1.5,6.09,3.35,11.26,3.35s8.26-1.85,11.26-3.35a1.75,1.75,0,0,0,1-1.56V14.45l5.89-2.35a1.75,1.75,0,0,0,.13-3.18Zm-9.51,13-1.7.85a15.78,15.78,0,0,1-14.05,0l-1.7-.85V15.85l8.08,3.23a1.75,1.75,0,0,0,1.3,0l8.08-3.23ZM19.2,15.58,6,10.3,19.2,3.7l13.2,6.6Z"/><path id="_Контур_" data-name="&lt;Контур&gt;" class="cls-2" d="M1.75,24.44A1.75,1.75,0,0,0,0,26.19v3.49a1.75,1.75,0,1,0,3.49,0V26.19A1.75,1.75,0,0,0,1.75,24.44Z"/></g></g></g></svg>