<svg xmlns="http://www.w3.org/2000/svg" xmlns:xlink="http://www.w3.org/1999/xlink" viewBox="0 0 32.79 29.27"><defs><style>.cls-1{fill:url(#Безымянный_градиент_9);}.cls-2{fill:url(#Безымянный_градиент_9-2);}</style><linearGradient id="Безымянный_градиент_9" y1="15.75" x2="30.41" y2="15.75" gradientUnits="userSpaceOnUse"><stop offset="0" stop-color="#f16944"/><stop offset="1" stop-color="#f14444"/></linearGradient><linearGradient id="Безымянный_градиент_9-2" x1="7.83" y1="10.4" x2="32.79" y2="10.4" xlink:href="#Безымянный_градиент_9"/></defs><title>4</title><g id="Слой_2" data-name="Слой 2"><g id="Слой_1-2" data-name="Слой 1"><path class="cls-1" d="M27,29.27H3.38A3.38,3.38,0,0,1,0,25.89V5.62A3.38,3.38,0,0,1,3.38,2.24H18.58a1.69,1.69,0,0,1,1.69,1.69h0a1.69,1.69,0,0,1-1.69,1.69H3.38V25.89H27V19.13a1.69,1.69,0,0,1,1.69-1.69h0a1.69,1.69,0,0,1,1.69,1.69v6.76A3.38,3.38,0,0,1,27,29.27Z"/><path class="cls-2" d="M13,19.9,8.45,15.36a2.11,2.11,0,0,1,0-3h0a2.11,2.11,0,0,1,3,0l3.7,3.7L29.12.69a2.11,2.11,0,0,1,3-.14h0a2.11,2.11,0,0,1,.14,3L17.46,19.8A3.09,3.09,0,0,1,13,19.9Z"/></g></g></svg>