<svg xmlns="http://www.w3.org/2000/svg" xmlns:xlink="http://www.w3.org/1999/xlink" viewBox="0 0 31.82 31.82"><defs><style>.cls-1{fill:url(#Безымянный_градиент_9);}.cls-2{fill:url(#Безымянный_градиент_9-2);}.cls-3{fill:url(#Безымянный_градиент_9-3);}.cls-4{fill:url(#Безымянный_градиент_9-4);}</style><linearGradient id="Безымянный_градиент_9" x1="6.36" y1="22.27" x2="25.46" y2="22.27" gradientUnits="userSpaceOnUse"><stop offset="0" stop-color="#f16944"/><stop offset="1" stop-color="#f14444"/></linearGradient><linearGradient id="Безымянный_градиент_9-2" x1="0" y1="15.91" x2="31.82" y2="15.91" xlink:href="#Безымянный_градиент_9"/><linearGradient id="Безымянный_градиент_9-3" x1="9.55" y1="11.14" x2="12.73" y2="11.14" xlink:href="#Безымянный_градиент_9"/><linearGradient id="Безымянный_градиент_9-4" x1="19.09" y1="11.14" x2="22.27" y2="11.14" xlink:href="#Безымянный_градиент_9"/></defs><title>5</title><g id="Слой_2" data-name="Слой 2"><g id="Слой_1-2" data-name="Слой 1"><g id="_Группа_" data-name="&lt;Группа&gt;"><path id="_Составной_контур_" data-name="&lt;Составной контур&gt;" class="cls-1" d="M23.87,17.5H8a1.59,1.59,0,0,0-1.59,1.59c0,4.16,4.55,8,9.55,8s9.55-3.79,9.55-8A1.59,1.59,0,0,0,23.87,17.5Zm-8,6.36A7,7,0,0,1,10,20.68H21.81A6.91,6.91,0,0,1,15.91,23.87Z"/><path id="_Составной_контур_2" data-name="&lt;Составной контур&gt;" class="cls-2" d="M15.91,0A15.91,15.91,0,1,0,31.82,15.91,15.93,15.93,0,0,0,15.91,0Zm0,28.64A12.73,12.73,0,1,1,28.64,15.91,12.74,12.74,0,0,1,15.91,28.64Z"/><rect id="_Контур_" data-name="&lt;Контур&gt;" class="cls-3" x="9.55" y="7.96" width="3.18" height="6.36" rx="1.59" ry="1.59"/><rect id="_Контур_2" data-name="&lt;Контур&gt;" class="cls-4" x="19.09" y="7.96" width="3.18" height="6.36" rx="1.59" ry="1.59"/></g></g></g></svg>