<svg xmlns="http://www.w3.org/2000/svg" viewBox="0 0 2000 415.31"><defs><style>.cls-1{fill:#fff;}</style></defs><title>boubles_bg_up</title><g id="Слой_2" data-name="Слой 2"><g id="Слой_1-2" data-name="Слой 1"><path class="cls-1" d="M1881.34,0a118.69,118.69,0,0,0-116.85,97.91,82.28,82.28,0,0,0-118.32,54.26,118.68,118.68,0,0,0-189.82,40.57,58.33,58.33,0,0,0-51.32-9.64,82.31,82.31,0,0,0-158.1,2.4,118.69,118.69,0,0,0-205.19,20.73,118.68,118.68,0,0,0-159.46-31.08,58.36,58.36,0,0,0-91-28.15,118.69,118.69,0,0,0-209.78,9.9,82.26,82.26,0,0,0-96-10.37A82.28,82.28,0,0,0,335,111.79,118.76,118.76,0,0,0,229.49,76.21,118.68,118.68,0,0,0,0,118.66V415.31H2000V118.66A118.66,118.66,0,0,0,1881.34,0Z"/></g></g></svg>