<svg id="Слой_1" xmlns="http://www.w3.org/2000/svg" viewBox="0 0 2000 450"><style>.st0{fill:#FFF}</style><path class="st0" d="M2000 47.9c-21.8-19.3-50.5-30.9-81.8-30.9-61 0-111.6 44.1-121.8 102.1-11.9-6.2-25.4-9.8-39.8-9.8-40.7 0-74.8 28.4-83.6 66.4-22.1-20.4-51.6-33-84.1-33-51.1 0-95 31-113.9 75.3-10.2-7.8-23-12.4-36.8-12.4-5.8 0-11.4.8-16.7 2.3-10.7-35.1-43.4-60.7-82.1-60.7-39.6 0-72.9 26.8-82.8 63.2-22.4-31.5-59.2-52-100.8-52-50.5 0-93.9 30.2-113.1 73.6-22.5-31.1-59.1-51.4-100.4-51.4-24.2 0-46.8 7-65.9 19-8-24.3-30.8-41.9-57.9-41.9-13.9 0-26.8 4.7-37 12.6-21.5-36.5-61.2-61-106.6-61-49.6 0-92.4 29.2-112.1 71.3-15.2-13.8-35.4-22.2-57.5-22.2-15.5 0-30.1 4.1-42.6 11.3-5.3-42.3-41.4-75-85.1-75-30 0-56.4 15.4-71.7 38.7-22.6-23.9-54.5-38.7-89.9-38.7-6.9 0-13.6.6-20.1 1.6-17.8-46.5-62.8-79.5-115.6-79.5C49.6 16.9 21.6 28 0 46.4V450h2000V47.9z"/></svg>