<svg xmlns="http://www.w3.org/2000/svg" xmlns:xlink="http://www.w3.org/1999/xlink" viewBox="0 0 50 37"><defs><style>.cls-1{fill:url(#Безымянный_градиент_9);}</style><linearGradient id="Безымянный_градиент_9" y1="18.5" x2="50" y2="18.5" gradientUnits="userSpaceOnUse"><stop offset="0" stop-color="#f16944"/><stop offset="1" stop-color="#f14444"/></linearGradient></defs><title>pay</title><g id="Слой_2" data-name="Слой 2"><g id="Слой_1-2" data-name="Слой 1"><path id="_Составной_контур_" data-name="&lt;Составной контур&gt;" class="cls-1" d="M45.83,0h-25a4.14,4.14,0,0,0-4.17,4.11V6.17h4.17V4.11h25V8.22H31.25v4.11H45.83V24.66h-25V22.61H16.67v2.06a4.14,4.14,0,0,0,4.17,4.11h13.3l-1.51,3a2.07,2.07,0,0,1-1.86,1.13H17.53l-5-5V17.29l5-5H25v2.06a2.07,2.07,0,0,1-2.08,2.06H18.75v4.11h4.17a6.22,6.22,0,0,0,6.25-6.17V10.28a2.07,2.07,0,0,0-2.08-2.06H16.67a2.08,2.08,0,0,0-1.47.6l-3.82,3.77a2,2,0,0,0-1-.26H2.08A2.07,2.07,0,0,0,0,14.39V30.83a2.07,2.07,0,0,0,2.08,2.06h8.33a2,2,0,0,0,1-.26l3.82,3.77a2.11,2.11,0,0,0,1.47.6H30.76a6.22,6.22,0,0,0,5.59-3.41l2.44-4.81h7A4.14,4.14,0,0,0,50,24.66V4.11A4.14,4.14,0,0,0,45.83,0ZM8.33,28.77H4.17V16.44H8.33Z"/></g></g></svg>