<svg xmlns="http://www.w3.org/2000/svg" viewBox="0 0 16.09 16.09"><defs><style>.cls-1{fill:#cbd3e0;}</style></defs><title>close</title><g id="Слой_2" data-name="Слой 2"><g id="Слой_1-2" data-name="Слой 1"><path id="_Контур_" data-name="&lt;Контур&gt;" class="cls-1" d="M13,.29,8,5.21,3.13.29a1,1,0,0,0-1.41,0L.29,1.72a1,1,0,0,0,0,1.41L5.21,8,.29,13a1,1,0,0,0,0,1.41L1.72,15.8a1,1,0,0,0,1.41,0L8,10.89,13,15.8a1,1,0,0,0,1.41,0l1.43-1.43a1,1,0,0,0,0-1.41L10.89,8,15.8,3.13a1,1,0,0,0,0-1.41L14.38.29A1,1,0,0,0,13,.29Z"/></g></g></svg>