<svg xmlns="http://www.w3.org/2000/svg" xmlns:xlink="http://www.w3.org/1999/xlink" viewBox="0 0 20 20"><defs><style>.cls-1{fill:url(#Безымянный_градиент_9);}.cls-2{fill:url(#Безымянный_градиент_9-2);}</style><linearGradient id="Безымянный_градиент_9" y1="10" x2="20" y2="10" gradientUnits="userSpaceOnUse"><stop offset="0" stop-color="#f16944"/><stop offset="1" stop-color="#f14444"/></linearGradient><linearGradient id="Безымянный_градиент_9-2" x1="6.29" x2="13.71" xlink:href="#Безымянный_градиент_9"/></defs><title>error</title><g id="Слой_2" data-name="Слой 2"><g id="Слой_1-2" data-name="Слой 1"><path class="cls-1" d="M10,0A10,10,0,1,0,20,10,10,10,0,0,0,10,0Zm0,18a8,8,0,1,1,8-8A8,8,0,0,1,10,18Z"/><polygon class="cls-2" points="12.29 6.29 10 8.59 7.71 6.29 6.29 7.71 8.59 10 6.29 12.29 7.71 13.71 10 11.41 12.29 13.71 13.71 12.29 11.41 10 13.71 7.71 12.29 6.29"/></g></g></svg>