<svg id="Слой_1" xmlns="http://www.w3.org/2000/svg" viewBox="0 0 16 16"><style>.st0{fill:#FFF}.st1{fill:url(#SVGID_1_)}.st2{fill:#393945}</style><path class="st0" d="M8 11.5c-2.5 0-4.5-3-4.5-5.5s2-4.5 4.5-4.5 4.5 2 4.5 4.5-2 5.5-4.5 5.5z"/><linearGradient id="SVGID_1_" gradientUnits="userSpaceOnUse" x1="5" y1="11.05" x2="12.5" y2="11.05" gradientTransform="matrix(1 0 0 -1 0 18)"><stop offset=".005" stop-color="#ffa526"/><stop offset="1" stop-color="#fe5621"/></linearGradient><path class="st1" d="M7.4 11.5C6 10.5 5 8.5 5 6.8c0-2.5 2-4.5 4.5-4.5.5 0 1 .1 1.5.3l1.1 1.6.4 1.6-.2 1.5-.9 2-1.3 1.4-1.8.9-.9-.1z"/><path class="st2" d="M11.5 13.4c-.3.4-.8.6-1.3.6-.7 0-1.3-.5-1.6-1.1.2-.1.4-.2.4-.3 0-.3-.1-.5-.3-.7C11.1 11.4 13 8.5 13 6c0-2.8-2.2-5-5-5S3 3.2 3 6c0 2.5 1.9 5.4 4.3 5.9-.2.2-.3.4-.3.7 0 .2.3.3.6.4.3 1.1 1.4 2 2.6 2 .8 0 1.5-.3 2-.9.2-.2.2-.5 0-.7-.2-.2-.5-.2-.7 0zM4 6c0-2.2 1.8-4 4-4s4 1.8 4 4c0 2.3-1.8 5-4 5S4 8.3 4 6z"/></svg>