<svg xmlns="http://www.w3.org/2000/svg" xmlns:xlink="http://www.w3.org/1999/xlink" viewBox="0 0 134.72 33"><defs><style>.cls-1{fill:#fff;}.cls-2{fill:url(#Безымянный_градиент_9);}.cls-3{fill:url(#Безымянный_градиент_9-2);}</style><linearGradient id="Безымянный_градиент_9" y1="16.5" x2="117" y2="16.5" gradientUnits="userSpaceOnUse"><stop offset="0" stop-color="#f16944"/><stop offset="1" stop-color="#f14444"/></linearGradient><linearGradient id="Безымянный_градиент_9-2" x1="95" x2="107" xlink:href="#Безымянный_градиент_9"/></defs><title>for_free</title><g id="Слой_2" data-name="Слой 2"><g id="Слой_1-2" data-name="Слой 1"><path class="cls-1" d="M18.13,12v1.76H14v1.94h4v1.76H14V21H12V12Z"/><path class="cls-1" d="M28.64,19.76a4.88,4.88,0,0,1-6.69,0,4.43,4.43,0,0,1-1.36-3.3,4.43,4.43,0,0,1,1.36-3.3,4.88,4.88,0,0,1,6.69,0A4.43,4.43,0,0,1,30,16.46,4.43,4.43,0,0,1,28.64,19.76ZM28,16.46a2.93,2.93,0,0,0-.77-2,2.54,2.54,0,0,0-3.78,0,3.1,3.1,0,0,0,0,4.09,2.55,2.55,0,0,0,3.78,0A2.91,2.91,0,0,0,28,16.46Z"/><path class="cls-1" d="M40.25,15a2.64,2.64,0,0,1-1.71,2.78L40.81,21H38.35l-2-2.86H35V21H33V12h3.4a4.87,4.87,0,0,1,3,.71A2.72,2.72,0,0,1,40.25,15Zm-2.41,1.06A1.35,1.35,0,0,0,38.21,15a1.13,1.13,0,0,0-.39-1,2.46,2.46,0,0,0-1.35-.27H35v2.66h1.46A2.15,2.15,0,0,0,37.84,16.07Z"/><path class="cls-1" d="M54.41,12v1.76H50.25v1.94h4v1.76h-4V21h-2V12Z"/><path class="cls-1" d="M64.66,15A2.64,2.64,0,0,1,63,17.79L65.22,21H62.76l-2-2.86H59.39V21h-2V12h3.4a4.87,4.87,0,0,1,3,.71A2.72,2.72,0,0,1,64.66,15Zm-2.41,1.06A1.35,1.35,0,0,0,62.62,15a1.13,1.13,0,0,0-.39-1,2.46,2.46,0,0,0-1.35-.27h-1.5v2.66h1.46A2.15,2.15,0,0,0,62.25,16.07Z"/><path class="cls-1" d="M74.46,12v1.78H70v1.85h4v1.71H70v1.86h4.6V21H68V12Z"/><path class="cls-1" d="M84.13,12v1.78H79.66v1.85h4v1.71h-4v1.86h4.6V21H77.66V12Z"/><path class="cls-2" d="M105.14,33H0V0H105.14L117,12.35v8.29ZM3,30H103.86L114,19.44V13.56L103.86,3H3Z"/><path class="cls-1" d="M119.26,28.47c-10,0-18.88-9.2-19.35-9.69a1.5,1.5,0,0,1,2.18-2.06c.13.13,12.77,13.24,23.47,7,10.11-5.85,4.95-20.2,4.72-20.8a1.5,1.5,0,0,1,2.81-1c.06.17,6.28,17.32-6,24.45A15.34,15.34,0,0,1,119.26,28.47Z"/><path class="cls-3" d="M101.5,22h-1a5.5,5.5,0,0,1,0-11h1a5.5,5.5,0,0,1,0,11Zm-1-8a2.5,2.5,0,0,0,0,5h1a2.5,2.5,0,0,0,0-5Z"/></g></g></svg>