<svg xmlns="http://www.w3.org/2000/svg" xmlns:xlink="http://www.w3.org/1999/xlink" viewBox="0 0 182 84"><defs><style>.cls-1{fill:#fff;}.cls-2{fill:#393945;}.cls-3{fill:#fe5621;}.cls-4{fill:url(#Безымянный_градиент_37);}.cls-5{fill:#eb2d10;}.cls-6{fill:none;stroke:#393945;stroke-linecap:round;stroke-miterlimit:10;stroke-width:1.66px;}</style><linearGradient id="Безымянный_градиент_37" x1="56.46" y1="48.51" x2="65.67" y2="51.78" gradientUnits="userSpaceOnUse"><stop offset="0.01" stop-color="#ffa526"/><stop offset="1" stop-color="#fe5621"/></linearGradient></defs><title>logo</title><g id="Слой_2" data-name="Слой 2"><g id="Слой_1-2" data-name="Слой 1"><g id="_Группа_" data-name="&lt;Группа&gt;"><path class="cls-1" d="M123.89,23.65a29.65,29.65,0,0,0-14.86,4A35.57,35.57,0,0,0,44.62,41.89,21.11,21.11,0,0,0,46.68,84h77.22a30.18,30.18,0,0,0,0-60.35Z"/></g><g id="_Группа_2" data-name="&lt;Группа&gt;"><path class="cls-1" d="M178.08,65.08a3.87,3.87,0,0,0-1.94.52,4.65,4.65,0,0,0-8.42,1.86A2.76,2.76,0,0,0,168,73h10.09a3.94,3.94,0,0,0,0-7.89Z"/></g><g id="_Группа_3" data-name="&lt;Группа&gt;"><path class="cls-1" d="M129.43,1.13a2.91,2.91,0,0,0-1.46.39,3.5,3.5,0,0,0-6.33,1.4,2.08,2.08,0,0,0,.2,4.14h7.59a3,3,0,0,0,0-5.93Z"/></g><g id="_Группа_4" data-name="&lt;Группа&gt;"><path class="cls-1" d="M7,19a7,7,0,0,1,3.48.93,8.33,8.33,0,0,1,15.09,3.34,4.95,4.95,0,0,1-.48,9.87H7A7.07,7.07,0,0,1,7,19Z"/></g><g id="_Группа_5" data-name="&lt;Группа&gt;"><path id="_Контур_" data-name="&lt;Контур&gt;" class="cls-1" d="M68.65,39.72s-5.59-1.1-9.68,1.81-5,7.88-4.72,10.76,3.5,10.14,8.41,11.63Z"/><g id="_Группа_6" data-name="&lt;Группа&gt;"><path id="_Составной_контур_" data-name="&lt;Составной контур&gt;" class="cls-2" d="M81.73,59.76V49.61a4.82,4.82,0,0,1,0-.59,1.44,1.44,0,0,1,.15-.43q.24-.47,1.16-.47a2.25,2.25,0,0,1,1.23.23.94.94,0,0,1,.37.69,2.38,2.38,0,0,1,2.06-.9,3.67,3.67,0,0,1,2.67,1.34,4.48,4.48,0,0,1,0,6.22A3.64,3.64,0,0,1,86.73,57a2.47,2.47,0,0,1-2.05-.8v3.51a4.91,4.91,0,0,1,0,.59,1.43,1.43,0,0,1-.16.44.73.73,0,0,1-.44.36,2.75,2.75,0,0,1-.85.1,2.84,2.84,0,0,1-.85-.1.74.74,0,0,1-.45-.35,1.33,1.33,0,0,1-.16-.43A4.82,4.82,0,0,1,81.73,59.76Zm3.42-8.19a1.56,1.56,0,0,0-.4,1,1.5,1.5,0,0,0,.41,1,1.32,1.32,0,0,0,1,.46A1.52,1.52,0,0,0,87.7,52.6a1.51,1.51,0,0,0-.41-1,1.38,1.38,0,0,0-1.08-.46A1.32,1.32,0,0,0,85.14,51.57Z"/><path id="_Составной_контур_2" data-name="&lt;Составной контур&gt;" class="cls-2" d="M97.67,49.09q.1-1,1.36-1a3.54,3.54,0,0,1,1,.1.73.73,0,0,1,.46.36,1.49,1.49,0,0,1,.16.46,5.05,5.05,0,0,1,0,.6v6.08a5,5,0,0,1,0,.6,1.64,1.64,0,0,1-.15.46q-.24.45-1.18.45A2.31,2.31,0,0,1,98.06,57a.94.94,0,0,1-.37-.69,2.41,2.41,0,0,1-2.13.92,3.75,3.75,0,0,1-2.77-1.37,4.6,4.6,0,0,1,0-6.37,3.83,3.83,0,0,1,2.82-1.36,2.67,2.67,0,0,1,1.07.21,2.38,2.38,0,0,1,.67.39A2.42,2.42,0,0,1,97.67,49.09ZM94.53,52.7a1.45,1.45,0,0,0,.45,1,1.46,1.46,0,0,0,1.09.46,1.37,1.37,0,0,0,1.06-.47,1.51,1.51,0,0,0,.42-1,1.61,1.61,0,0,0-.41-1.05,1.34,1.34,0,0,0-1.09-.49,1.39,1.39,0,0,0-1.1.49A1.58,1.58,0,0,0,94.53,52.7Z"/><path id="_Составной_контур_3" data-name="&lt;Составной контур&gt;" class="cls-2" d="M108.24,48.22a1.17,1.17,0,0,1,.54.36,1.23,1.23,0,0,1,.22.81,2.77,2.77,0,0,1-.33,1.22,1,1,0,0,1-.95.66,1.34,1.34,0,0,1-.6-.14,1.72,1.72,0,0,0-.75-.14,1.36,1.36,0,0,0-.87.33,1,1,0,0,0-.41.8v3.65a5.13,5.13,0,0,1,0,.6,1.41,1.41,0,0,1-.16.46q-.26.45-1.35.45a1.89,1.89,0,0,1-1.19-.3,1,1,0,0,1-.31-.75V49.62a5.05,5.05,0,0,1,0-.6,1.43,1.43,0,0,1,.15-.44q.24-.47,1.35-.47t1.29.4a1,1,0,0,1,.19.57,2.86,2.86,0,0,1,.25-.3,3.2,3.2,0,0,1,.7-.47A2,2,0,0,1,107,48a4.5,4.5,0,0,1,.68,0A4.1,4.1,0,0,1,108.24,48.22Z"/><path id="_Составной_контур_4" data-name="&lt;Составной контур&gt;" class="cls-2" d="M118.71,51.6a2.12,2.12,0,0,1-.53,1.58,1.64,1.64,0,0,1-1.16.51h-4.09a1,1,0,0,0,.57.82,2.25,2.25,0,0,0,1.14.33,4.72,4.72,0,0,0,1.57-.21l.19-.07a1.73,1.73,0,0,1,.69-.19q.55,0,.95.78a1.93,1.93,0,0,1,.22.8q0,1.55-3.68,1.55a5.51,5.51,0,0,1-2.27-.44,3.85,3.85,0,0,1-1.54-1.17,5,5,0,0,1-1.09-3.15,4.56,4.56,0,0,1,1.41-3.5,5,5,0,0,1,3.51-1.31,3.91,3.91,0,0,1,3.52,1.7A3.56,3.56,0,0,1,118.71,51.6Zm-3.64.51q.66,0,.66-.56a.79.79,0,0,0-.3-.64,1.34,1.34,0,0,0-.86-.24,1.74,1.74,0,0,0-1.11.46,1.3,1.3,0,0,0-.55,1Z"/><path id="_Составной_контур_5" data-name="&lt;Составной контур&gt;" class="cls-2" d="M124.89,48.11a3.64,3.64,0,0,1,2.87,1.33,4.79,4.79,0,0,1,1.15,3.24v3.06a5.05,5.05,0,0,1,0,.6,1.43,1.43,0,0,1-.15.44q-.24.47-1.35.47T126,56.61a2.85,2.85,0,0,1-.1-.89V52.67a1.54,1.54,0,0,0-2.6-1.1,1.47,1.47,0,0,0-.42,1.1v3.08a5.05,5.05,0,0,1,0,.6,1.24,1.24,0,0,1-.16.44q-.22.47-1.33.47T120,56.79a1.63,1.63,0,0,1-.15-.46,5,5,0,0,1,0-.6V49.57a4.85,4.85,0,0,1,0-.58,1.24,1.24,0,0,1,.16-.44q.24-.43,1.33-.43t1.29.4a1.4,1.4,0,0,1,.17.71,1.76,1.76,0,0,1,.31-.35,3.05,3.05,0,0,1,.47-.37A2.25,2.25,0,0,1,124.89,48.11Z"/><path id="_Составной_контур_6" data-name="&lt;Составной контур&gt;" class="cls-2" d="M135.57,51.19l-1.12-.07v2.4a1.21,1.21,0,0,0,.15.68.63.63,0,0,0,.55.21,5.52,5.52,0,0,1,.62,0,1.23,1.23,0,0,1,.46.17q.4.23.4,1.16,0,1.09-.48,1.34a1.6,1.6,0,0,1-.46.15,4.75,4.75,0,0,1-.58,0,4,4,0,0,1-2.73-.82,3.52,3.52,0,0,1-.93-2.76V51.12a4.53,4.53,0,0,1-.71.05.79.79,0,0,1-.63-.3,1.57,1.57,0,0,1-.25-1,4.41,4.41,0,0,1,.09-1,.93.93,0,0,1,.24-.46,1.06,1.06,0,0,1,.69-.23l.57.07V46.43a4.83,4.83,0,0,1,0-.59,1.09,1.09,0,0,1,.16-.42Q131.86,45,133,45t1.4.64a3.27,3.27,0,0,1,.09.89v1.7q.76-.07,1.15-.07a4.93,4.93,0,0,1,.59,0,1.39,1.39,0,0,1,.46.17q.45.23.45,1.34T136.63,51a1.6,1.6,0,0,1-.46.15A5,5,0,0,1,135.57,51.19Z"/></g><g id="_Группа_7" data-name="&lt;Группа&gt;"><path id="_Контур_2" data-name="&lt;Контур&gt;" class="cls-3" d="M65.9,65.44s-.85.71-.76,1.18c.06.29,1.77.72,2.58.52l.14-.92-1-.88Z"/><path id="_Контур_3" data-name="&lt;Контур&gt;" class="cls-3" d="M77.52,51.86a10.88,10.88,0,0,1-2.12,6.2A12,12,0,0,1,74,59.92a17.8,17.8,0,0,1-6.08,4.4c-.77.31-1.48.94-2.32.65l-.54-.21C60.57,62.87,56.4,57.27,56.4,52a11.76,11.76,0,0,1,11.71-11.8,5.47,5.47,0,0,1,2.87.36C75.22,43.14,77.52,46.34,77.52,51.86Z"/><path id="_Контур_4" data-name="&lt;Контур&gt;" class="cls-4" d="M77.52,51.86A10.53,10.53,0,0,1,75.35,58a14.14,14.14,0,0,1-1.6,1.91,17.19,17.19,0,0,1-5.83,4.38c-.77.31-1.48.94-2.32.65l-.54-.21C60.57,62.87,56.4,57.27,56.4,52a11.76,11.76,0,0,1,11.71-11.8,5.47,5.47,0,0,1,2.87.36C75.22,43.14,77.52,46.34,77.52,51.86Z"/><path id="_Контур_5" data-name="&lt;Контур&gt;" class="cls-5" d="M62,62.88c5.9,1.78,11-4.6,12.3-9.07,2.38-8.19-2.9-12.28-2.9-12.28l4,2.84s2.18,1.49,2,5.61a17.79,17.79,0,0,1-2,8.2,20.93,20.93,0,0,1-1.67,2.16,10.93,10.93,0,0,1-5.9,3.74s-3.06.67-4.24.2A3,3,0,0,1,62,62.88Z"/><path id="_Контур_6" data-name="&lt;Контур&gt;" class="cls-6" d="M68.44,67.22c0,1.41-5.08,1.41-5.08,0a2.89,2.89,0,0,1,2.54-2.56A2.8,2.8,0,0,1,68.44,67.22Z"/><path id="_Составной_контур_7" data-name="&lt;Составной контур&gt;" class="cls-1" d="M57.3,54.41h4.47l.5,0a1.17,1.17,0,0,1,.38.14q.39.21.39,1.14t-.54,1.2a2.4,2.4,0,0,1-.75.09H57.07L55.9,52l1-5.73h4.83l.5,0a1.16,1.16,0,0,1,.38.14q.39.21.39,1.14t-.54,1.2a2.4,2.4,0,0,1-.75.09H57.3v1.47h2.87l.5,0a1.16,1.16,0,0,1,.38.14q.39.2.39,1.14t-.55,1.2a2.41,2.41,0,0,1-.75.09H57.3Z"/><path id="_Составной_контур_8" data-name="&lt;Составной контур&gt;" class="cls-1" d="M71.1,54.5a1.8,1.8,0,0,1,.82.14.73.73,0,0,1,.35.4,2,2,0,0,1,.09.67,2.43,2.43,0,0,1-.07.66,1.16,1.16,0,0,1-.17.38.57.57,0,0,1-.3.19,2.27,2.27,0,0,1-.74.09H65a1.26,1.26,0,0,1-.64-.18,1.23,1.23,0,0,1-.64-1.15,1,1,0,0,1,.17-.61l4.49-6.26H65.1l-.51,0a1.51,1.51,0,0,1-.4-.12q-.42-.2-.42-1.09t.39-1.14a1.16,1.16,0,0,1,.38-.14,4.32,4.32,0,0,1,.51,0h5.83a1.31,1.31,0,0,1,1.11.64,1.37,1.37,0,0,1,.17.69,1,1,0,0,1-.17.63L67.49,54.5Z"/><path id="_Контур_7" data-name="&lt;Контур&gt;" class="cls-6" d="M55.54,45.68a11.81,11.81,0,0,1,.72-1.19"/><path id="_Контур_8" data-name="&lt;Контур&gt;" class="cls-6" d="M73.75,60.34c-2.28,2.57-5.22,4.32-7.85,4.32-5.44,0-11.71-7-11.71-13.47a11.9,11.9,0,0,1,.34-2.83"/><path id="_Контур_9" data-name="&lt;Контур&gt;" class="cls-6" d="M58.84,41.78a11.61,11.61,0,0,1,7.07-2.39,11.76,11.76,0,0,1,11.71,11.8,13.18,13.18,0,0,1-2.09,6.75"/><path id="_Контур_10" data-name="&lt;Контур&gt;" class="cls-6" d="M72.19,70.69a3.6,3.6,0,0,1-6.29-2.42"/></g></g></g></g></svg>