<svg xmlns="http://www.w3.org/2000/svg" viewBox="0 0 189 381.98"><defs><style>.cls-1{fill:#d2dfe9;}</style></defs><title>pattern_right</title><g id="Слой_2" data-name="Слой 2"><g id="Слой_1-2" data-name="Слой 1"><path class="cls-1" d="M73.13,7.14a1.78,1.78,0,0,1-1.78-1.78V1.78a1.78,1.78,0,0,1,3.57,0V5.35A1.78,1.78,0,0,1,73.13,7.14Z"/><path class="cls-1" d="M73.13,20.22a1.78,1.78,0,0,1-1.78-1.78V14.87a1.78,1.78,0,0,1,3.57,0v3.57A1.78,1.78,0,0,1,73.13,20.22Z"/><path class="cls-1" d="M68.37,11.9H64.8a1.78,1.78,0,1,1,0-3.57h3.57a1.78,1.78,0,1,1,0,3.57Z"/><path class="cls-1" d="M81.46,11.9H77.89a1.78,1.78,0,1,1,0-3.57h3.57a1.78,1.78,0,1,1,0,3.57Z"/><path class="cls-1" d="M181.27,172.58a7.73,7.73,0,1,1,7.73-7.73A7.74,7.74,0,0,1,181.27,172.58Zm0-11.9a4.16,4.16,0,1,0,4.16,4.16A4.17,4.17,0,0,0,181.27,160.68Z"/><path id="_Контур_" data-name="&lt;Контур&gt;" class="cls-1" d="M91.57,372.46h-3a1.19,1.19,0,0,1-1.19-1.19v-3a1.78,1.78,0,1,0-3.57,0v3a1.19,1.19,0,0,1-1.19,1.19h-3a1.78,1.78,0,0,0,0,3.57h3a1.19,1.19,0,0,1,1.19,1.19v3a1.78,1.78,0,1,0,3.57,0v-3A1.19,1.19,0,0,1,88.6,376h3a1.78,1.78,0,0,0,0-3.57Z"/><path class="cls-1" d="M44.43,204.07A10.11,10.11,0,1,1,54.54,194,10.12,10.12,0,0,1,44.43,204.07Zm0-16.66A6.54,6.54,0,1,0,51,194,6.55,6.55,0,0,0,44.43,187.41Z"/><path class="cls-1" d="M12.49,303.75a5.35,5.35,0,1,1,5.35-5.35A5.36,5.36,0,0,1,12.49,303.75Zm0-7.14a1.78,1.78,0,1,0,1.78,1.78A1.79,1.79,0,0,0,12.49,296.62Z"/><path class="cls-1" d="M106.21,121.75H94.31a1.78,1.78,0,0,1-1.55-2.68l5.95-10.3a1.78,1.78,0,0,1,3.09,0l5.95,10.3a1.78,1.78,0,0,1-1.55,2.68Zm-8.81-3.57h5.71l-2.86-4.95Z"/><path class="cls-1" d="M139.72,254.68a1.78,1.78,0,0,1-1.78-1.78v-7.51a1.78,1.78,0,0,1,3.57,0v7.51A1.78,1.78,0,0,1,139.72,254.68Z"/><path class="cls-1" d="M139.72,254.68a1.77,1.77,0,0,1-.55-.09L132,252.27a1.78,1.78,0,0,1,1.1-3.39l7.14,2.32a1.78,1.78,0,0,1-.55,3.48Z"/><path class="cls-1" d="M135.31,260.75a1.78,1.78,0,0,1-1.44-2.83l4.41-6.07a1.78,1.78,0,0,1,2.89,2.1L136.75,260A1.78,1.78,0,0,1,135.31,260.75Z"/><path class="cls-1" d="M144.13,260.75a1.78,1.78,0,0,1-1.45-.74l-4.41-6.07a1.78,1.78,0,0,1,2.89-2.1l4.41,6.07a1.78,1.78,0,0,1-1.44,2.83Z"/><path class="cls-1" d="M139.72,254.68a1.78,1.78,0,0,1-.55-3.48l7.14-2.32a1.78,1.78,0,0,1,1.1,3.39l-7.14,2.32A1.77,1.77,0,0,1,139.72,254.68Z"/><path class="cls-1" d="M8.92,85a1.78,1.78,0,0,1-1.78-1.78V75.72a1.78,1.78,0,0,1,3.57,0v7.51A1.78,1.78,0,0,1,8.92,85Z"/><path class="cls-1" d="M8.92,85a1.79,1.79,0,0,1-.55-.09L1.23,82.6a1.78,1.78,0,0,1,1.1-3.39l7.14,2.32A1.78,1.78,0,0,1,8.92,85Z"/><path class="cls-1" d="M4.51,91.08a1.78,1.78,0,0,1-1.44-2.83l4.41-6.07a1.78,1.78,0,1,1,2.89,2.1L6,90.34A1.78,1.78,0,0,1,4.51,91.08Z"/><path class="cls-1" d="M13.34,91.08a1.78,1.78,0,0,1-1.44-.74L7.48,84.27a1.78,1.78,0,1,1,2.89-2.1l4.41,6.07a1.78,1.78,0,0,1-1.44,2.83Z"/><path class="cls-1" d="M8.92,85a1.78,1.78,0,0,1-.55-3.48l7.14-2.32a1.78,1.78,0,0,1,1.1,3.39L9.47,84.92A1.79,1.79,0,0,1,8.92,85Z"/></g></g></svg>