<svg xmlns="http://www.w3.org/2000/svg" viewBox="0 0 187 377.94"><defs><style>.cls-1{fill:#d2dfe9;}</style></defs><title>pattern_left</title><g id="Слой_2" data-name="Слой 2"><g id="Слой_1-2" data-name="Слой 1"><path class="cls-1" d="M114.64,7.06a1.77,1.77,0,0,1-1.77-1.77V1.77a1.77,1.77,0,0,1,3.53,0V5.3A1.77,1.77,0,0,1,114.64,7.06Z"/><path class="cls-1" d="M114.64,20a1.77,1.77,0,0,1-1.77-1.77V14.71a1.77,1.77,0,0,1,3.53,0v3.53A1.77,1.77,0,0,1,114.64,20Z"/><path class="cls-1" d="M122.88,11.77h-3.53a1.77,1.77,0,1,1,0-3.53h3.53a1.77,1.77,0,1,1,0,3.53Z"/><path class="cls-1" d="M109.93,11.77H106.4a1.77,1.77,0,1,1,0-3.53h3.53a1.77,1.77,0,1,1,0,3.53Z"/><path class="cls-1" d="M7.65,170.75a7.65,7.65,0,1,1,7.65-7.65A7.66,7.66,0,0,1,7.65,170.75Zm0-11.77a4.12,4.12,0,1,0,4.12,4.12A4.12,4.12,0,0,0,7.65,159Z"/><path id="_Контур_" data-name="&lt;Контур&gt;" class="cls-1" d="M96.4,368.52h2.94a1.18,1.18,0,0,0,1.18-1.18V364.4a1.77,1.77,0,1,1,3.53,0v2.94a1.18,1.18,0,0,0,1.18,1.18h2.94a1.77,1.77,0,0,1,0,3.53h-2.94a1.18,1.18,0,0,0-1.18,1.18v2.94a1.77,1.77,0,1,1-3.53,0v-2.94a1.18,1.18,0,0,0-1.18-1.18H96.4a1.77,1.77,0,0,1,0-3.53Z"/><path class="cls-1" d="M143,201.91a10,10,0,1,1,10-10A10,10,0,0,1,143,201.91Zm0-16.48a6.47,6.47,0,1,0,6.47,6.47A6.48,6.48,0,0,0,143,185.43Z"/><path class="cls-1" d="M174.64,300.54a5.3,5.3,0,1,1,5.3-5.3A5.3,5.3,0,0,1,174.64,300.54Zm0-7.06a1.77,1.77,0,1,0,1.77,1.77A1.77,1.77,0,0,0,174.64,293.48Z"/><path class="cls-1" d="M93.69,120.46H81.92a1.77,1.77,0,0,1-1.53-2.65l5.89-10.19a1.77,1.77,0,0,1,1.53-.88h0a1.77,1.77,0,0,1,1.53.88l5.88,10.19a1.77,1.77,0,0,1-1.53,2.65ZM85,116.93h5.65L87.8,112Z"/><path class="cls-1" d="M48.76,252A1.77,1.77,0,0,1,47,250.22v-7.43a1.77,1.77,0,0,1,3.53,0v7.43A1.77,1.77,0,0,1,48.76,252Z"/><path class="cls-1" d="M48.76,252a1.77,1.77,0,0,1-.55-3.44l7.06-2.29a1.77,1.77,0,0,1,1.09,3.36l-7.06,2.29A1.76,1.76,0,0,1,48.76,252Z"/><path class="cls-1" d="M53.13,258a1.76,1.76,0,0,1-1.43-.73l-4.36-6a1.77,1.77,0,0,1,2.86-2.07l4.36,6a1.77,1.77,0,0,1-1.43,2.8Z"/><path class="cls-1" d="M44.39,258a1.77,1.77,0,0,1-1.43-2.8l4.37-6a1.77,1.77,0,0,1,2.86,2.08l-4.37,6A1.76,1.76,0,0,1,44.39,258Z"/><path class="cls-1" d="M48.76,252a1.76,1.76,0,0,1-.55-.09l-7.06-2.29a1.77,1.77,0,0,1,1.09-3.36l7.06,2.29a1.77,1.77,0,0,1-.55,3.44Z"/><path class="cls-1" d="M178.17,84.11a1.77,1.77,0,0,1-1.77-1.77V74.92a1.77,1.77,0,0,1,3.53,0v7.43A1.77,1.77,0,0,1,178.17,84.11Z"/><path class="cls-1" d="M178.17,84.11a1.77,1.77,0,0,1-.55-3.45l7.06-2.29a1.77,1.77,0,0,1,1.09,3.36L178.72,84A1.77,1.77,0,0,1,178.17,84.11Z"/><path class="cls-1" d="M182.54,90.12a1.76,1.76,0,0,1-1.43-.73l-4.37-6a1.77,1.77,0,1,1,2.86-2.08l4.37,6a1.77,1.77,0,0,1-1.43,2.8Z"/><path class="cls-1" d="M173.81,90.12a1.77,1.77,0,0,1-1.43-2.8l4.36-6a1.77,1.77,0,0,1,2.86,2.08l-4.36,6A1.76,1.76,0,0,1,173.81,90.12Z"/><path class="cls-1" d="M178.17,84.11a1.77,1.77,0,0,1-.55-.09l-7.06-2.29a1.77,1.77,0,0,1,1.09-3.36l7.06,2.29a1.77,1.77,0,0,1-.55,3.45Z"/></g></g></svg>