<svg xmlns="http://www.w3.org/2000/svg" xmlns:xlink="http://www.w3.org/1999/xlink" viewBox="0 0 40 40"><defs><style>.cls-1{fill:url(#Безымянный_градиент_9);}.cls-2{fill:#fff;}</style><linearGradient id="Безымянный_градиент_9" x1="5.86" y1="5.86" x2="34.14" y2="34.14" gradientUnits="userSpaceOnUse"><stop offset="0" stop-color="#f16944"/><stop offset="1" stop-color="#f14444"/></linearGradient></defs><title>question</title><g id="Слой_2" data-name="Слой 2"><g id="Слой_1-2" data-name="Слой 1"><path id="_Контур_" data-name="&lt;Контур&gt;" class="cls-1" d="M35.58,30.37l.21.44a1.79,1.79,0,0,1-2,2.52l-.47-.11a1.79,1.79,0,0,0-2.17,1.91l0,.49a1.78,1.78,0,0,1-2.74,1.67L28,37a1.77,1.77,0,0,0-2.69,1l-.12.47a1.77,1.77,0,0,1-3.14.62l-.29-.39a1.77,1.77,0,0,0-2.88.05l-.28.4a1.77,1.77,0,0,1-3.16-.5l-.14-.47a1.77,1.77,0,0,0-2.73-.94l-.4.28A1.78,1.78,0,0,1,9.41,36l0-.49a1.78,1.78,0,0,0-2.24-1.83l-.47.13a1.79,1.79,0,0,1-2.1-2.44L4.81,31a1.8,1.8,0,0,0-1.49-2.49l-.48,0a1.8,1.8,0,0,1-1.15-3L2,25a1.81,1.81,0,0,0-.55-2.86L1,22A1.81,1.81,0,0,1,1,18.74l.43-.22a1.81,1.81,0,0,0,.45-2.88l-.34-.34a1.8,1.8,0,0,1,1-3.06L3,12.18A1.8,1.8,0,0,0,4.42,9.63l-.21-.44a1.79,1.79,0,0,1,2-2.52l.47.11A1.79,1.79,0,0,0,8.87,4.87l0-.49a1.78,1.78,0,0,1,2.74-1.67L12,3a1.77,1.77,0,0,0,2.69-1l.12-.47A1.77,1.77,0,0,1,17.92.84l.29.39a1.77,1.77,0,0,0,2.88-.05l.28-.4a1.77,1.77,0,0,1,3.16.5l.14.47a1.77,1.77,0,0,0,2.73.94l.4-.28A1.78,1.78,0,0,1,30.59,4l0,.49a1.78,1.78,0,0,0,2.24,1.83l.47-.13a1.79,1.79,0,0,1,2.1,2.44L35.19,9a1.8,1.8,0,0,0,1.49,2.49l.48,0a1.8,1.8,0,0,1,1.15,3L38,15a1.81,1.81,0,0,0,.55,2.86L39,18A1.81,1.81,0,0,1,39,21.26l-.43.22a1.81,1.81,0,0,0-.45,2.88l.34.34a1.8,1.8,0,0,1-1,3.06l-.48.06A1.8,1.8,0,0,0,35.58,30.37Z"/><g id="_Группа_" data-name="&lt;Группа&gt;"><path id="_Составной_контур_" data-name="&lt;Составной контур&gt;" class="cls-2" d="M21.55,22.58H18.33a.86.86,0,0,1-.84-1c.47-2.64,2.73-3.15,2.7-4.65a.92.92,0,0,0-.93-.91,1.21,1.21,0,0,0-1,.47,1.49,1.49,0,0,1-1.68.47l-2.1-.78a1.12,1.12,0,0,1-.59-1.57c.7-1.32,2.35-3.28,6-3.28,3.94,0,6.26,2.35,6.26,4.93,0,2.78-3.27,3.8-3.85,5.73A.85.85,0,0,1,21.55,22.58ZM22.27,25v2.69a1,1,0,0,1-1,1h-2.9a1,1,0,0,1-1-1V25a1,1,0,0,1,1-1h2.9A1,1,0,0,1,22.27,25Z"/></g></g></g></svg>