<svg xmlns="http://www.w3.org/2000/svg" xmlns:xlink="http://www.w3.org/1999/xlink" viewBox="0 0 25.9 37"><defs><style>.cls-1{fill:url(#Безымянный_градиент_9);}.cls-2{fill:url(#Безымянный_градиент_9-2);}</style><linearGradient id="Безымянный_градиент_9" y1="18.5" x2="25.9" y2="18.5" gradientUnits="userSpaceOnUse"><stop offset="0" stop-color="#f16944"/><stop offset="1" stop-color="#f14444"/></linearGradient><linearGradient id="Безымянный_градиент_9-2" x1="10.18" y1="26.82" x2="15.72" y2="26.82" xlink:href="#Безымянный_градиент_9"/></defs><title>sign-icon</title><g id="Слой_2" data-name="Слой 2"><g id="Слой_1-2" data-name="Слой 1"><path class="cls-1" d="M22.2,16.65H7.4V9.25a5.55,5.55,0,0,1,11.1,0V11.1h3.7V9.25a9.25,9.25,0,0,0-18.5,0v7.4A3.7,3.7,0,0,0,0,20.35V33.3A3.7,3.7,0,0,0,3.7,37H22.2a3.7,3.7,0,0,0,3.7-3.7V20.35A3.7,3.7,0,0,0,22.2,16.65ZM3.7,33.3V20.35H22.2V33.3Z"/><circle class="cls-2" cx="12.95" cy="26.83" r="2.78"/></g></g></svg>