<svg xmlns="http://www.w3.org/2000/svg" xmlns:xlink="http://www.w3.org/1999/xlink" viewBox="0 0 40 40"><defs><style>.cls-1{fill:url(#Безымянный_градиент_7);}.cls-2{fill:#fff;}</style><linearGradient id="Безымянный_градиент_7" y1="20" x2="40" y2="20" gradientUnits="userSpaceOnUse"><stop offset="0" stop-color="#a5d022"/><stop offset="1" stop-color="#68ba18"/></linearGradient></defs><title>success</title><g id="Слой_2" data-name="Слой 2"><g id="Слой_1-2" data-name="Слой 1"><path id="_Контур_" data-name="&lt;Контур&gt;" class="cls-1" d="M35.58,30.37l.21.44a1.79,1.79,0,0,1-2,2.52l-.47-.11a1.79,1.79,0,0,0-2.17,1.91l0,.49a1.78,1.78,0,0,1-2.74,1.67L28,37a1.77,1.77,0,0,0-2.69,1l-.12.47a1.77,1.77,0,0,1-3.14.62l-.29-.39a1.77,1.77,0,0,0-2.88.05l-.28.4a1.77,1.77,0,0,1-3.16-.5l-.14-.47a1.77,1.77,0,0,0-2.73-.94l-.4.28A1.78,1.78,0,0,1,9.41,36l0-.49a1.78,1.78,0,0,0-2.24-1.83l-.47.13a1.79,1.79,0,0,1-2.1-2.44L4.81,31a1.8,1.8,0,0,0-1.49-2.49l-.48,0a1.8,1.8,0,0,1-1.15-3L2,25a1.81,1.81,0,0,0-.55-2.86L1,22A1.81,1.81,0,0,1,1,18.74l.43-.22a1.81,1.81,0,0,0,.45-2.88l-.34-.34a1.8,1.8,0,0,1,1-3.06L3,12.18A1.8,1.8,0,0,0,4.42,9.63l-.21-.44a1.79,1.79,0,0,1,2-2.52l.47.11A1.79,1.79,0,0,0,8.87,4.87l0-.49a1.78,1.78,0,0,1,2.74-1.67L12,3a1.77,1.77,0,0,0,2.69-1l.12-.47A1.77,1.77,0,0,1,17.92.84l.29.39a1.77,1.77,0,0,0,2.88-.05l.28-.4a1.77,1.77,0,0,1,3.16.5l.14.47a1.77,1.77,0,0,0,2.73.94l.4-.28A1.78,1.78,0,0,1,30.59,4l0,.49a1.78,1.78,0,0,0,2.24,1.83l.47-.13a1.79,1.79,0,0,1,2.1,2.44L35.19,9a1.8,1.8,0,0,0,1.49,2.49l.48,0a1.8,1.8,0,0,1,1.15,3L38,15a1.81,1.81,0,0,0,.55,2.86L39,18A1.81,1.81,0,0,1,39,21.26l-.43.22a1.81,1.81,0,0,0-.45,2.88l.34.34a1.8,1.8,0,0,1-1,3.06l-.48.06A1.8,1.8,0,0,0,35.58,30.37Z"/><path id="_Контур_2" data-name="&lt;Контур&gt;" class="cls-2" d="M27.42,16.07,26,14.64a1,1,0,0,0-1.41,0l-5.66,5.72L15.4,16.78a1,1,0,0,0-1.41,0l-1.41,1.43a1,1,0,0,0,0,1.43l4.24,4.29.71.71.71.71a1,1,0,0,0,1.41,0l7.78-7.86A1,1,0,0,0,27.42,16.07Z"/></g></g></svg>