<?xml version="1.0" encoding="iso-8859-1"?>
<!-- Generator: Adobe Illustrator 19.0.0, SVG Export Plug-In . SVG Version: 6.00 Build 0)  -->
<svg version="1.1" id="Layer_1" xmlns="http://www.w3.org/2000/svg" xmlns:xlink="http://www.w3.org/1999/xlink" x="0px" y="0px"
	 viewBox="0 0 512.32 512.32" style="enable-background:new 0 0 512.32 512.32;" xml:space="preserve">
<g transform="translate(1 1)">
	<g>
		<g>
			<path d="M508.76,94.733l-90.453-89.6c-3.413-3.413-9.387-3.413-12.8,0l-17.92,17.92c-3.413-3.413-8.533-3.413-11.947,0
				L62.467,337.08c-1.833,1.833-2.672,4.159-2.536,6.448c-0.005,0.127-0.024,0.252-0.024,0.379l1.707,15.36
				c2.56,29.867-7.68,58.88-29.013,80.213c-1.707,1.707-2.56,3.413-2.56,5.973c0,2.34,0.722,3.967,2.148,5.532L1.88,481.293
				c-2.56,1.707-3.413,5.12-2.56,7.68s3.413,5.12,5.973,5.973l35.84,11.947c0.853,0.853,1.707,0.853,2.56,0.853
				c2.56,0,5.12-0.853,5.973-2.56l18.347-18.347l0.427,0.427c1.707,1.707,3.413,2.56,5.973,2.56c1.707,0,4.267-0.853,5.973-2.56
				L83.8,483c19.627-19.627,44.373-29.867,71.68-29.867h11.638c1.069,0.563,2.253,0.853,3.722,0.853c2.56,0,4.267-1.707,5.973-2.56
				L489.987,137.4c3.413-3.413,3.413-8.533,0-11.947l18.773-18.773C512.173,103.267,512.173,98.147,508.76,94.733z M381.613,40.973
				l90.878,90.029L170.84,432.653L80.387,342.2L381.613,40.973z M56.493,475.32l-14.507,14.507l-17.92-5.973l20.48-20.48
				l5.973,5.973L56.493,475.32z M74.413,469.347L49.667,444.6c19.627-22.187,29.867-50.347,29.013-79.36l71.68,71.68
				C122.2,437.773,94.893,449.72,74.413,469.347z M478.893,113.507L400.387,35l11.947-11.947l78.507,78.507L478.893,113.507z"/>
			<path d="M152.92,318.307c1.707,1.707,3.413,2.56,5.973,2.56c1.707,0,4.267-0.853,5.973-2.56l204.8-204.8
				c3.413-3.413,3.413-8.533,0-11.947c-3.413-3.413-8.533-3.413-11.947,0l-204.8,204.8
				C149.507,309.773,149.507,314.893,152.92,318.307z"/>
			<path d="M194.733,360.12c1.707,1.707,3.413,2.56,5.973,2.56s4.267-0.853,5.973-2.56l204.8-204.8
				c3.413-3.413,3.413-8.533,0-11.947s-8.533-3.413-11.947,0l-204.8,204.8C191.32,351.587,191.32,356.707,194.733,360.12z"/>
		</g>
	</g>
</g>
<g>
</g>
<g>
</g>
<g>
</g>
<g>
</g>
<g>
</g>
<g>
</g>
<g>
</g>
<g>
</g>
<g>
</g>
<g>
</g>
<g>
</g>
<g>
</g>
<g>
</g>
<g>
</g>
<g>
</g>
</svg>
